<svg width="33" height="20" viewBox="0 0 33 20" fill="none" xmlns="http://www.w3.org/2000/svg">
<g clip-path="url(#clip0_557_619)">
<path fill-rule="evenodd" clip-rule="evenodd" d="M25.7051 0.988556C25.6694 2.5467 25.9762 4.88886 27.036 6.86154C27.7515 8.19351 28.8188 9.36596 30.3463 9.99999C28.8188 10.634 27.7515 11.8065 27.036 13.1384C25.9762 15.1111 25.6694 17.4533 25.7051 19.0114L26.7048 18.9886C26.6718 17.5467 26.9621 15.389 27.9169 13.6117C28.8576 11.8605 30.4235 10.5001 33 10.5001V9.50011L33 9.49988C30.4235 9.49988 28.8576 8.13948 27.9169 6.3883C26.9621 4.61103 26.6718 2.45325 26.7048 1.01143L25.7051 0.988556Z" fill="white"/>
<path d="M33 9.99979L0.00435108 9.95576" stroke="white"/>
</g>
<defs>
<clipPath id="clip0_557_619">
<rect width="33" height="20" fill="white" transform="translate(33 20) rotate(180)"/>
</clipPath>
</defs>
</svg>
