<svg width="26" height="26" viewBox="0 0 26 26" fill="none" xmlns="http://www.w3.org/2000/svg">
<path fill-rule="evenodd" clip-rule="evenodd" d="M11.5764 0H13.0002H14.424L13.7121 6.50009L13.0002 13.0002L12.2883 6.50009L11.5764 0ZM13.0002 13.0002L15.6335 7.0148L18.2672 1.02978L19.5003 1.74169L20.7333 2.4536L16.8666 7.72671L13.0002 13.0002ZM13.0002 13.0002L18.2733 9.13344L23.5468 5.26706L24.2587 6.50009L24.9706 7.73312L18.9852 10.3665L13.0002 13.0002ZM13.0002 13.0002L19.5003 12.2883L26 11.5764V13.0002V14.424L19.5003 13.7121L13.0002 13.0002ZM13.0002 13.0002L18.9852 15.6335L24.9706 18.2672L24.2587 19.5003L23.5468 20.7333L18.2733 16.8666L13.0002 13.0002ZM13.0002 13.0002L15.6335 18.9852L18.2672 24.9706L19.5003 24.2587L20.7333 23.5468L16.8666 18.2733L13.0002 13.0002ZM13.0002 13.0002L13.7121 19.5003L14.424 26H13.0002H11.5764L12.2883 19.5003L13.0002 13.0002ZM13.0002 13.0002L10.3665 18.9852L7.73312 24.9706L6.50009 24.2587L5.26706 23.5468L9.13344 18.2733L13.0002 13.0002ZM13.0002 13.0002L7.72671 16.8666L2.4536 20.7333L1.74169 19.5003L1.02978 18.2672L7.0148 15.6335L13.0002 13.0002ZM13.0002 13.0002L6.50009 13.7121L0 14.424V13.0002V11.5764L6.50009 12.2883L13.0002 13.0002ZM13.0002 13.0002L7.0148 10.3665L1.02978 7.73312L1.74169 6.50009L2.4536 5.26706L7.72671 9.13344L13.0002 13.0002ZM13.0002 13.0002L9.13344 7.72671L5.26706 2.4536L6.50009 1.74169L7.73312 1.02978L10.3665 7.0148L13.0002 13.0002Z" fill="black"/>
</svg>
