<svg width="18" height="18" viewBox="0 0 18 18" fill="none" xmlns="http://www.w3.org/2000/svg">
<path fill-rule="evenodd" clip-rule="evenodd" d="M9.00012 0H9.98584L9.49298 4.50006L9.00012 9.00012L8.50726 4.50006L8.0144 0H9.00012ZM9.00012 9.00012L10.8232 4.8564L12.6466 0.712923L13.5002 1.20578L14.3538 1.69864L11.6768 5.34926L9.00012 9.00012ZM9.00012 9.00012L12.6507 6.32315L16.3016 3.64643L16.7945 4.50006L17.2873 5.3537L13.1436 7.17679L9.00012 9.00012ZM9.00012 9.00012L13.5002 8.50726L18 8.0144V9.00012V9.98584L13.5002 9.49298L9.00012 9.00012ZM9.00012 9.00012L13.1436 10.8232L17.2873 12.6466L16.7945 13.5002L16.3016 14.3538L12.6507 11.6768L9.00012 9.00012ZM9.00012 9.00012L10.8232 13.1436L12.6466 17.2873L13.5002 16.7945L14.3538 16.3016L11.6768 12.6507L9.00012 9.00012ZM9.00012 9.00012L9.49298 13.5002L9.98584 18H9.00012H8.0144L8.50726 13.5002L9.00012 9.00012ZM9.00012 9.00012L7.17679 13.1436L5.3537 17.2873L4.50006 16.7945L3.64643 16.3016L6.32315 12.6507L9.00012 9.00012ZM9.00012 9.00012L5.34926 11.6768L1.69864 14.3538L1.20578 13.5002L0.712923 12.6466L4.8564 10.8232L9.00012 9.00012ZM9.00012 9.00012L4.50006 9.49298L0 9.98584V9.00012V8.0144L4.50006 8.50726L9.00012 9.00012ZM9.00012 9.00012L4.8564 7.17679L0.712923 5.3537L1.20578 4.50006L1.69864 3.64643L5.34926 6.32315L9.00012 9.00012ZM9.00012 9.00012L6.32315 5.34926L3.64643 1.69864L4.50006 1.20578L5.3537 0.712923L7.17679 4.8564L9.00012 9.00012Z" fill="white"/>
</svg>
