<svg width="473" height="84" viewBox="0 0 473 84" fill="none" xmlns="http://www.w3.org/2000/svg">
<g clip-path="url(#clip0_145_305)">
<path d="M54.054 26.94C53.046 30.216 52.038 33.492 51.03 36.768C50.022 40.002 49.014 43.236 48.006 46.47C47.04 49.704 46.053 52.959 45.045 56.235C44.037 59.469 43.029 62.724 42.021 66H11.97C11.172 63.396 10.374 60.792 9.576 58.188C8.778 55.584 7.98 52.98 7.182 50.376C6.384 47.772 5.565 45.168 4.725 42.564C3.927 39.96 3.129 37.356 2.331 34.752C1.533 32.148 0.735 29.544 -0.063 26.94H23.058C23.31 28.41 23.541 29.88 23.751 31.35C24.003 32.778 24.255 34.227 24.507 35.697C24.759 37.167 24.99 38.637 25.2 40.107C25.452 41.577 25.704 43.047 25.956 44.517C26.208 45.987 26.439 47.457 26.649 48.927C26.901 50.355 27.153 51.804 27.405 53.274C27.447 53.484 27.468 53.652 27.468 53.778C27.51 53.862 27.552 53.904 27.594 53.904C27.636 53.904 27.657 53.862 27.657 53.778C27.699 53.652 27.741 53.484 27.783 53.274C28.035 51.804 28.266 50.355 28.476 48.927C28.728 47.457 28.98 45.987 29.232 44.517C29.484 43.047 29.715 41.577 29.925 40.107C30.177 38.637 30.429 37.167 30.681 35.697C30.933 34.227 31.164 32.778 31.374 31.35C31.626 29.88 31.878 28.41 32.13 26.94H54.054ZM57.7976 66C57.7976 64.068 57.7976 62.157 57.7976 60.267C57.7976 58.335 57.7976 56.424 57.7976 54.534C57.7976 52.602 57.7976 50.691 57.7976 48.801C57.7976 48.003 57.7976 47.205 57.7976 46.407C57.7976 45.609 57.7976 44.811 57.7976 44.013C60.2336 44.013 62.6486 44.013 65.0426 44.013C67.4786 44.013 69.9146 44.013 72.3506 44.013C74.7866 44.013 77.2016 44.013 79.5956 44.013C79.5956 46.449 79.5956 48.885 79.5956 51.321C79.5956 53.757 79.5956 56.214 79.5956 58.692C79.5956 61.128 79.5956 63.564 79.5956 66H57.7976ZM57.7976 44.013C57.7976 41.157 57.7976 38.301 57.7976 35.445C57.7976 32.589 57.7976 29.754 57.7976 26.94H79.5956C79.5956 28.326 79.5956 29.712 79.5956 31.098C79.5956 32.484 79.5956 33.87 79.5956 35.256C79.5956 36.642 79.5956 38.028 79.5956 39.414C79.5956 39.414 79.5746 39.435 79.5326 39.477C75.9206 40.233 72.2876 40.989 68.6336 41.745C65.0216 42.501 61.4096 43.257 57.7976 44.013ZM120.781 66C120.781 63.732 120.781 61.485 120.781 59.259C120.781 56.991 120.781 54.744 120.781 52.518C120.781 50.25 120.781 48.003 120.781 45.777C120.781 44.979 120.571 44.286 120.151 43.698C119.731 43.11 119.164 42.627 118.45 42.249C117.736 41.871 116.938 41.598 116.056 41.43C115.174 41.22 114.25 41.115 113.284 41.115C110.848 41.115 109.021 41.598 107.803 42.564C106.627 43.53 106.039 44.601 106.039 45.777C106.039 46.659 106.291 47.457 106.795 48.171C107.341 48.885 108.139 49.473 109.189 49.935C110.281 50.355 111.646 50.565 113.284 50.565C115.048 50.565 116.623 50.25 118.009 49.62C119.395 48.99 120.298 47.961 120.718 46.533L115.678 66C114.334 66.336 113.053 66.567 111.835 66.693C110.617 66.861 109.21 66.945 107.614 66.945C104.38 66.945 101.335 66.504 98.4793 65.622C95.6233 64.698 93.1033 63.354 90.9193 61.59C88.7773 59.826 87.0763 57.684 85.8163 55.164C84.5983 52.644 83.9893 49.767 83.9893 46.533C83.9893 43.761 84.4303 41.283 85.3123 39.099C86.1943 36.873 87.3913 34.941 88.9033 33.303C90.4573 31.665 92.2423 30.3 94.2583 29.208C96.2743 28.116 98.4163 27.318 100.684 26.814C102.994 26.268 105.325 25.995 107.677 25.995C108.643 25.995 109.63 26.037 110.638 26.121C111.646 26.205 112.633 26.331 113.599 26.499C114.565 26.667 115.468 26.898 116.308 27.192C117.19 27.486 117.988 27.843 118.702 28.263C119.458 28.683 120.109 29.166 120.655 29.712C120.697 29.754 120.718 29.775 120.718 29.775C120.76 29.733 120.781 29.691 120.781 29.649C120.781 27.969 120.781 26.163 120.781 24.231C120.781 22.257 120.781 20.43 120.781 18.75H142.579C142.579 22.782 142.579 26.835 142.579 30.909C142.579 34.941 142.579 38.973 142.579 43.005C142.579 46.827 142.579 50.649 142.579 54.471C142.579 58.293 142.579 62.136 142.579 66H120.781ZM175.463 51.762C177.689 51.762 179.411 51.363 180.629 50.565C181.847 49.767 182.477 48.675 182.519 47.289L201.986 53.652C201.23 56.298 199.613 58.713 197.135 60.897C194.699 63.039 191.612 64.74 187.874 66C184.136 67.26 179.957 67.89 175.337 67.89C171.389 67.89 167.693 67.449 164.249 66.567C160.847 65.685 157.844 64.362 155.24 62.598C152.678 60.792 150.662 58.545 149.192 55.857C147.722 53.169 146.987 50.04 146.987 46.47C146.987 42.9 147.722 39.771 149.192 37.083C150.662 34.395 152.678 32.169 155.24 30.405C157.844 28.599 160.868 27.255 164.312 26.373C167.756 25.491 171.431 25.05 175.337 25.05C179.327 25.05 182.981 25.491 186.299 26.373C189.659 27.255 192.536 28.62 194.93 30.468C197.366 32.274 199.235 34.584 200.537 37.398C201.881 40.17 202.553 43.467 202.553 47.289H168.218C168.218 47.289 168.197 47.289 168.155 47.289C168.155 47.289 168.155 47.31 168.155 47.352C168.155 47.982 168.323 48.57 168.659 49.116C168.995 49.662 169.457 50.145 170.045 50.565C170.675 50.943 171.431 51.237 172.313 51.447C173.237 51.657 174.287 51.762 175.463 51.762ZM175.337 40.989C173.279 40.989 171.578 41.367 170.234 42.123C168.89 42.837 168.218 43.866 168.218 45.21C168.218 45.252 168.218 45.294 168.218 45.336C168.26 45.336 168.281 45.336 168.281 45.336H182.33C182.372 45.336 182.393 45.336 182.393 45.336C182.393 45.294 182.393 45.252 182.393 45.21C182.393 44.538 182.204 43.95 181.826 43.446C181.49 42.9 181.007 42.459 180.377 42.123C179.747 41.745 178.991 41.472 178.109 41.304C177.269 41.094 176.345 40.989 175.337 40.989ZM234.581 67.89C231.977 67.89 229.457 67.701 227.021 67.323C224.585 66.945 222.317 66.378 220.217 65.622C218.117 64.824 216.206 63.837 214.484 62.661C212.762 61.485 211.292 60.12 210.074 58.566C208.856 56.97 207.911 55.185 207.239 53.211C206.567 51.195 206.231 48.969 206.231 46.533C206.231 43.677 206.693 41.115 207.617 38.847C208.583 36.537 209.927 34.521 211.649 32.799C213.413 31.077 215.471 29.649 217.823 28.515C220.175 27.339 222.758 26.478 225.572 25.932C228.428 25.344 231.431 25.05 234.581 25.05C238.529 25.05 242.204 25.512 245.606 26.436C249.05 27.318 252.053 28.662 254.615 30.468C257.219 32.232 259.256 34.458 260.726 37.146C262.196 39.834 262.931 42.963 262.931 46.533C262.931 50.103 262.196 53.232 260.726 55.92C259.256 58.566 257.219 60.792 254.615 62.598C252.053 64.362 249.05 65.685 245.606 66.567C242.204 67.449 238.529 67.89 234.581 67.89ZM234.644 51.195C237.248 51.195 239.096 50.691 240.188 49.683C241.28 48.675 241.826 47.583 241.826 46.407C241.826 45.861 241.7 45.315 241.448 44.769C241.196 44.223 240.797 43.719 240.251 43.257C239.705 42.795 238.97 42.438 238.046 42.186C237.122 41.892 235.988 41.745 234.644 41.745C233.3 41.745 232.145 41.892 231.179 42.186C230.255 42.438 229.499 42.795 228.911 43.257C228.365 43.719 227.966 44.223 227.714 44.769C227.462 45.315 227.336 45.882 227.336 46.47C227.336 47.058 227.462 47.646 227.714 48.234C227.966 48.78 228.386 49.284 228.974 49.746C229.562 50.166 230.318 50.523 231.242 50.817C232.166 51.069 233.3 51.195 234.644 51.195Z" fill="black"/>
</g>
<defs>
<clipPath id="clip0_145_305">
<rect width="473" height="84" fill="white"/>
</clipPath>
</defs>
</svg>
