<svg width="473" height="84" viewBox="0 0 473 84" fill="none" xmlns="http://www.w3.org/2000/svg">
<g clip-path="url(#clip0_145_308)">
<path d="M28.492 60.2C30.4867 60.2 32.4133 59.792 34.272 58.976C36.1307 58.16 37.8533 56.9813 39.44 55.44L41.208 57.412C35.632 64.484 29.24 68.02 22.032 68.02C17.9067 68.02 14.3027 67.0907 11.22 65.232C8.18267 63.3733 5.82533 60.744 4.148 57.344C2.47067 53.944 1.632 49.9547 1.632 45.376C1.632 41.432 2.38 37.624 3.876 33.952C5.41733 30.2347 7.36667 27.2653 9.724 25.044C12.036 23.548 14.5067 22.4147 17.136 21.644C19.8107 20.828 22.44 20.42 25.024 20.42C28.4693 20.42 31.62 21.168 34.476 22.664C37.3773 24.1147 39.6667 26.1547 41.344 28.784L32.98 35.788C30.6227 31.6173 27.7893 27.1067 24.48 22.256C22.4853 23.072 20.672 24.4773 19.04 26.472C17.408 28.4667 16.116 30.8467 15.164 33.612C14.2573 36.3773 13.804 39.256 13.804 42.248C13.804 47.96 15.0733 52.38 17.612 55.508C20.196 58.636 23.8227 60.2 28.492 60.2ZM57.6199 28.648C57.6199 30.0987 58.0279 31.436 58.8439 32.66C59.6599 33.884 60.6799 34.972 61.9039 35.924C63.1279 36.876 64.8052 38.0547 66.9359 39.46C69.4292 41.092 71.4239 42.5427 72.9199 43.812C74.4159 45.036 75.6852 46.532 76.7279 48.3C77.8159 50.0227 78.3599 51.972 78.3599 54.148C78.3599 56.5507 77.7026 58.8173 76.3879 60.948C75.0732 63.0333 73.1012 64.7333 70.4719 66.048C67.8426 67.3627 64.6692 68.02 60.9519 68.02C52.9732 68.02 47.3066 64.8467 43.9519 58.5L51.6359 52.584C53.8119 57.072 56.2599 61.424 58.9799 65.64H59.0479C60.3626 65.64 61.5866 65.3 62.7199 64.62C63.8532 63.8947 64.7599 62.9653 65.4399 61.832C66.1199 60.6987 66.4599 59.4973 66.4599 58.228C66.4599 56.868 66.0519 55.6213 65.2359 54.488C64.4652 53.3093 63.4906 52.2893 62.3119 51.428C61.1332 50.5213 59.5239 49.4333 57.4839 48.164C55.0359 46.6227 53.0639 45.2627 51.5679 44.084C50.0719 42.9053 48.7799 41.4773 47.6919 39.8C46.6492 38.0773 46.1279 36.1053 46.1279 33.884C46.1279 31.3907 46.8306 29.124 48.2359 27.084C49.6866 24.9987 51.7266 23.3667 54.3559 22.188C57.0306 21.0093 60.1586 20.42 63.7399 20.42C67.2306 20.42 70.0866 20.9867 72.3079 22.12C74.5746 23.208 76.6146 24.772 78.4279 26.812L71.2879 34.02C68.8852 30.0307 66.4599 26.2907 64.0119 22.8C61.9719 22.8 60.3852 23.3667 59.2519 24.5C58.1639 25.588 57.6199 26.9707 57.6199 28.648ZM96.433 28.648C96.433 30.0987 96.841 31.436 97.657 32.66C98.473 33.884 99.493 34.972 100.717 35.924C101.941 36.876 103.618 38.0547 105.749 39.46C108.242 41.092 110.237 42.5427 111.733 43.812C113.229 45.036 114.498 46.532 115.541 48.3C116.629 50.0227 117.173 51.972 117.173 54.148C117.173 56.5507 116.516 58.8173 115.201 60.948C113.886 63.0333 111.914 64.7333 109.285 66.048C106.656 67.3627 103.482 68.02 99.765 68.02C91.7864 68.02 86.1197 64.8467 82.765 58.5L90.449 52.584C92.625 57.072 95.073 61.424 97.793 65.64H97.861C99.1757 65.64 100.4 65.3 101.533 64.62C102.666 63.8947 103.573 62.9653 104.253 61.832C104.933 60.6987 105.273 59.4973 105.273 58.228C105.273 56.868 104.865 55.6213 104.049 54.488C103.278 53.3093 102.304 52.2893 101.125 51.428C99.9464 50.5213 98.337 49.4333 96.297 48.164C93.849 46.6227 91.877 45.2627 90.381 44.084C88.885 42.9053 87.593 41.4773 86.505 39.8C85.4624 38.0773 84.941 36.1053 84.941 33.884C84.941 31.3907 85.6437 29.124 87.049 27.084C88.4997 24.9987 90.5397 23.3667 93.169 22.188C95.8437 21.0093 98.9717 20.42 102.553 20.42C106.044 20.42 108.9 20.9867 111.121 22.12C113.388 23.208 115.428 24.772 117.241 26.812L110.101 34.02C107.698 30.0307 105.273 26.2907 102.825 22.8C100.785 22.8 99.1984 23.3667 98.065 24.5C96.977 25.588 96.433 26.9707 96.433 28.648ZM157.079 67.608C155.331 66.9493 153.507 66.088 151.607 65.024C150.619 65.8093 149.39 66.43 147.921 66.886C146.477 67.342 144.97 67.57 143.399 67.57C141.752 67.57 140.245 67.304 138.877 66.772C137.534 66.24 136.47 65.4927 135.685 64.53C134.9 63.542 134.507 62.3893 134.507 61.072C134.507 59.7547 134.925 58.5007 135.761 57.31C136.622 56.1193 137.762 55.1187 139.181 54.308C137.509 51.952 136.673 49.8747 136.673 48.076C136.673 46.936 137.015 45.8213 137.699 44.732C138.408 43.6173 139.396 42.718 140.663 42.034C141.93 41.3247 143.348 40.97 144.919 40.97C146.287 40.97 147.478 41.236 148.491 41.768C149.53 42.3 150.315 42.9967 150.847 43.858C151.404 44.7193 151.683 45.6313 151.683 46.594C151.683 47.9873 151.138 49.33 150.049 50.622C148.985 51.8887 147.68 52.8767 146.135 53.586C147.908 55.258 149.998 56.7907 152.405 58.184C152.962 56.056 153.393 53.852 153.697 51.572L151.759 51.534V50.204H159.967V51.534L158.105 51.572C156.762 55.372 155.749 58.0573 155.065 59.628C157.016 60.5653 158.903 61.3 160.727 61.832L157.079 67.608ZM146.173 49.292C146.173 48.3293 145.958 47.4427 145.527 46.632C145.096 45.8213 144.514 45.1627 143.779 44.656C143.07 44.124 142.297 43.82 141.461 43.744C141.284 44.3013 141.195 44.846 141.195 45.378C141.195 47.5567 142.525 50.0013 145.185 52.712C145.844 51.6227 146.173 50.4827 146.173 49.292ZM150.277 64.226C148.402 63.0607 146.629 61.7813 144.957 60.388C143.31 58.9947 141.866 57.576 140.625 56.132C140.372 56.9173 140.245 57.652 140.245 58.336C140.245 59.552 140.612 60.6287 141.347 61.566C142.107 62.478 143.12 63.1747 144.387 63.656C145.654 64.1373 147.047 64.378 148.567 64.378C149.15 64.378 149.72 64.34 150.277 64.264V64.226ZM219.893 23.888V64.552L223.225 64.62V67H205.273V64.62L208.605 64.552V45.648H193.373V64.552L196.705 64.62V67H178.753V64.62L182.085 64.552V23.888L178.753 23.82V21.44H196.705V23.82L193.373 23.888V43.132H208.605V23.888L205.273 23.82V21.44H223.225V23.82L219.893 23.888ZM247.174 61.628L238.878 67.612C235.524 67.612 233.076 66.796 231.534 65.164C230.038 63.4867 229.29 60.812 229.29 57.14V39.052H224.734V36.876C226.638 35.8333 228.701 34.36 230.922 32.456C233.189 30.5067 235.252 28.4667 237.11 26.336L239.354 27.016L239.014 36.4H246.97V39.256L238.878 39.12V54.76C238.878 56.936 239.286 58.5227 240.102 59.52C240.964 60.5173 242.097 61.016 243.502 61.016L246.018 59.588L247.174 61.628ZM300.887 65.028V67H286.335V65.028L288.851 64.824V50.476C288.851 48.4813 288.33 46.94 287.287 45.852C286.29 44.7187 284.884 44.1293 283.071 44.084L280.555 46.6V47.756V64.824L283.003 65.028V67H268.451V65.028L270.967 64.824V50.476C270.967 48.4813 270.446 46.94 269.403 45.852C268.406 44.764 267 44.1973 265.187 44.152L262.943 46.396L262.671 64.824L265.187 65.028V67H250.567V65.028L253.083 64.824L252.879 40.48L250.295 41.092L249.615 39.052L260.359 35.72L262.739 43.336L268.383 35.244C271.874 35.244 274.571 35.9467 276.475 37.352C278.424 38.7573 279.671 40.9333 280.215 43.88L286.267 35.176C290.438 35.176 293.498 36.196 295.447 38.236C297.442 40.276 298.439 43.4493 298.439 47.756V64.824L300.887 65.028ZM303.977 65.028L306.493 64.824L306.153 24.092L303.569 24.636L302.889 22.664L315.469 18.856L316.421 20.488L316.081 64.824L318.597 65.028V67H303.977V65.028Z" fill="#1E1E1E"/>
</g>
<defs>
<clipPath id="clip0_145_308">
<rect width="473" height="84" fill="white"/>
</clipPath>
</defs>
</svg>
