<svg width="473" height="84" viewBox="0 0 473 84" fill="none" xmlns="http://www.w3.org/2000/svg">
<g clip-path="url(#clip0_145_306)">
<path d="M27.588 65.76C22.4707 65.76 18.2653 64.9493 14.972 63.328C11.6787 61.7067 9.24667 59.376 7.676 56.336C6.10533 53.2453 5.32 49.572 5.32 45.316V23.884C5.32 22.2627 5.14267 21.1227 4.788 20.464C4.484 19.7547 4.15467 19.4 3.8 19.4H15.352C14.9973 19.4507 14.6427 19.8053 14.288 20.464C13.984 21.1227 13.832 22.2627 13.832 23.884V45.164C13.832 48.7107 14.3893 51.548 15.504 53.676C16.6187 55.7533 18.2147 57.2733 20.292 58.236C22.3693 59.148 24.8267 59.604 27.664 59.604H28.5C30.6787 59.604 32.604 59.3507 34.276 58.844C35.948 58.3373 37.3667 57.5267 38.532 56.412C39.6973 55.2973 40.5587 53.828 41.116 52.004C41.724 50.1293 42.028 47.8493 42.028 45.164V23.884C42.028 22.2627 41.8507 21.1227 41.496 20.464C41.192 19.7547 40.8627 19.4 40.508 19.4H52.06C51.7053 19.4507 51.3507 19.8307 50.996 20.54C50.692 21.1987 50.54 22.3387 50.54 23.96V45.316C50.54 49.572 49.7293 53.2453 48.108 56.336C46.5373 59.376 44.1053 61.7067 40.812 63.328C37.5693 64.9493 33.4147 65.76 28.348 65.76H27.588ZM63.4867 65C63.8414 65 64.1961 64.6453 64.5507 63.936C64.9054 63.2267 65.0827 62.0613 65.0827 60.44V23.96C65.0827 22.3387 64.9054 21.1987 64.5507 20.54C64.1961 19.8307 63.8414 19.4507 63.4867 19.4H75.1907C74.8361 19.4 74.4814 19.7547 74.1267 20.464C73.7721 21.1733 73.5947 22.364 73.5947 24.036V60.44C73.5947 62.0613 73.7721 63.2267 74.1267 63.936C74.4814 64.6453 74.8361 65 75.1907 65H63.4867ZM110.41 65.76C105.293 65.76 101.088 64.9493 97.7942 63.328C94.5009 61.7067 92.0689 59.376 90.4982 56.336C88.9275 53.2453 88.1422 49.572 88.1422 45.316V23.884C88.1422 22.2627 87.9649 21.1227 87.6102 20.464C87.3062 19.7547 86.9769 19.4 86.6222 19.4H98.1742C97.8195 19.4507 97.4649 19.8053 97.1102 20.464C96.8062 21.1227 96.6542 22.2627 96.6542 23.884V45.164C96.6542 48.7107 97.2115 51.548 98.3262 53.676C99.4409 55.7533 101.037 57.2733 103.114 58.236C105.192 59.148 107.649 59.604 110.486 59.604H111.322C113.501 59.604 115.426 59.3507 117.098 58.844C118.77 58.3373 120.189 57.5267 121.354 56.412C122.52 55.2973 123.381 53.828 123.938 52.004C124.546 50.1293 124.85 47.8493 124.85 45.164V23.884C124.85 22.2627 124.673 21.1227 124.318 20.464C124.014 19.7547 123.685 19.4 123.33 19.4H134.882C134.528 19.4507 134.173 19.8307 133.818 20.54C133.514 21.1987 133.362 22.3387 133.362 23.96V45.316C133.362 49.572 132.552 53.2453 130.93 56.336C129.36 59.376 126.928 61.7067 123.634 63.328C120.392 64.9493 116.237 65.76 111.17 65.76H110.41ZM142.509 65C142.762 64.9493 143.32 64.5947 144.181 63.936C145.042 63.2267 146.182 62.0867 147.601 60.516C148.969 58.996 150.337 57.476 151.705 55.956C153.073 54.3853 154.416 52.84 155.733 51.32C157.101 49.8 158.469 48.28 159.837 46.76C161.205 45.1893 162.573 43.644 163.941 42.124C162.674 40.6547 161.256 39.0587 159.685 37.336C158.114 35.5627 156.569 33.8147 155.049 32.092C153.529 30.3693 152.136 28.824 150.869 27.456C149.653 26.0373 148.69 24.9227 147.981 24.112C146.512 22.44 145.296 21.2493 144.333 20.54C143.421 19.8307 142.813 19.4507 142.509 19.4H157.329C156.873 19.3493 156.67 19.6787 156.721 20.388C156.822 21.0973 157.557 22.3387 158.925 24.112C159.482 24.8213 160.141 25.7333 160.901 26.848C161.712 27.912 162.548 29.052 163.409 30.268C164.321 31.484 165.182 32.6493 165.993 33.764C166.804 34.8787 167.488 35.8413 168.045 36.652C168.653 37.412 169.058 37.9187 169.261 38.172H169.413C169.565 37.9187 169.92 37.412 170.477 36.652C171.085 35.892 171.794 34.98 172.605 33.916C173.466 32.8013 174.328 31.6613 175.189 30.496C176.101 29.28 176.962 28.1147 177.773 27C178.634 25.8347 179.369 24.8213 179.977 23.96C181.142 22.288 181.776 21.1227 181.877 20.464C182.029 19.7547 181.928 19.4 181.573 19.4H195.785C195.582 19.4 195.05 19.7547 194.189 20.464C193.328 21.1227 192.162 22.2627 190.693 23.884C189.325 25.404 187.957 26.924 186.589 28.444C185.272 29.964 183.954 31.484 182.637 33.004C181.32 34.524 179.977 36.044 178.609 37.564C177.292 39.084 175.949 40.604 174.581 42.124C175.848 43.644 177.241 45.2907 178.761 47.064C180.281 48.8373 181.801 50.5853 183.321 52.308C184.841 54.0307 186.209 55.6013 187.425 57.02C188.692 58.4387 189.68 59.528 190.389 60.288C191.858 61.8587 193.049 63.024 193.961 63.784C194.924 64.4933 195.557 64.8987 195.861 65H181.877C182.282 64.9493 182.409 64.5693 182.257 63.86C182.156 63.1507 181.497 61.96 180.281 60.288C179.774 59.5787 179.09 58.692 178.229 57.628C177.368 56.564 176.456 55.4493 175.493 54.284C174.581 53.068 173.669 51.928 172.757 50.864C171.896 49.8 171.161 48.888 170.553 48.128C169.945 47.3173 169.54 46.7853 169.337 46.532H169.185C169.033 46.7347 168.653 47.216 168.045 47.976C167.488 48.736 166.778 49.648 165.917 50.712C165.106 51.776 164.245 52.916 163.333 54.132C162.421 55.2973 161.534 56.4373 160.673 57.552C159.812 58.616 159.052 59.5787 158.393 60.44C157.177 62.0107 156.518 63.1507 156.417 63.86C156.316 64.5693 156.442 64.9493 156.797 65H142.509Z" fill="#D7F367"/>
</g>
<defs>
<clipPath id="clip0_145_306">
<rect width="473" height="84" fill="white"/>
</clipPath>
</defs>
</svg>
