<svg width="473" height="84" viewBox="0 0 473 84" fill="none" xmlns="http://www.w3.org/2000/svg">
<path d="M5.175 17.25H7.383C15.111 17.25 21.344 19.803 26.082 24.909C30.82 29.969 33.189 36.064 33.189 43.194C33.189 50.278 30.82 56.35 26.082 61.41C21.39 66.47 15.157 69 7.383 69H5.175V17.25ZM7.935 19.32H7.383V66.861H7.935C14.651 66.861 20.148 64.538 24.426 59.892C28.75 55.246 30.912 49.68 30.912 43.194C30.912 36.662 28.75 31.05 24.426 26.358C20.148 21.666 14.651 19.32 7.935 19.32ZM58.7443 69.828H58.1233C53.7533 69.828 49.9353 68.195 46.6693 64.929C43.4493 61.617 41.8393 57.776 41.8393 53.406C41.8393 49.036 43.4493 45.264 46.6693 42.09C49.8893 38.87 53.8683 37.26 58.6063 37.26C63.3443 37.26 67.4153 39.146 70.8193 42.918L49.1533 64.308C52.1433 66.7 55.0183 67.896 57.7783 67.896C60.5383 67.896 62.9993 67.275 65.1613 66.033C67.3693 64.745 69.1863 63.043 70.6123 60.927V64.446C67.3463 68.034 63.3903 69.828 58.7443 69.828ZM57.9853 39.192C54.3513 39.192 51.1083 40.618 48.2563 43.47C45.4503 46.276 44.0473 49.519 44.0473 53.199C44.0473 56.879 45.2663 60.099 47.7043 62.859L67.7833 42.918C64.9313 40.434 61.6653 39.192 57.9853 39.192ZM86.9044 39.054C85.7084 39.054 84.6504 39.445 83.7304 40.227C82.8104 41.009 82.3504 41.975 82.3504 43.125C82.3504 44.275 82.8564 45.333 83.8684 46.299C84.9264 47.265 86.1684 48.162 87.5944 48.99C89.0664 49.772 90.5384 50.623 92.0104 51.543C93.4824 52.463 94.7244 53.636 95.7364 55.062C96.7944 56.488 97.3234 58.121 97.3234 59.961C97.3234 62.675 96.2884 64.998 94.2184 66.93C92.1944 68.816 89.7334 69.759 86.8354 69.759C84.9954 69.759 83.2704 69.368 81.6604 68.586C80.0964 67.758 78.9464 66.677 78.2104 65.343V62.031C79.9584 65.895 82.7644 67.827 86.6284 67.827C89.0204 67.827 91.0214 67.091 92.6314 65.619C94.2874 64.147 95.1154 62.514 95.1154 60.72C95.1154 58.88 94.5864 57.339 93.5284 56.097C92.5164 54.855 91.2744 53.797 89.8024 52.923C88.3304 52.049 86.8584 51.198 85.3864 50.37C83.9604 49.496 82.7184 48.461 81.6604 47.265C80.6484 46.023 80.1424 44.597 80.1424 42.987C80.1424 41.331 80.7864 39.951 82.0744 38.847C83.4084 37.697 85.1104 37.122 87.1804 37.122C89.2504 37.122 91.0214 37.927 92.4934 39.537V42.366C91.0214 40.158 89.1584 39.054 86.9044 39.054ZM109.726 38.019V69H107.518V38.019H109.726ZM108.622 30.429C107.288 30.429 106.621 29.808 106.621 28.566C106.621 27.324 107.288 26.703 108.622 26.703C109.956 26.703 110.623 27.324 110.623 28.566C110.623 29.808 109.956 30.429 108.622 30.429ZM150.487 37.95H152.695V66.102C152.695 71.438 151.223 75.647 148.279 78.729C145.335 81.811 141.471 83.352 136.687 83.352C134.065 83.352 131.512 82.754 129.028 81.558C126.544 80.362 124.612 78.798 123.232 76.866V73.692C124.428 75.9 126.291 77.74 128.821 79.212C131.397 80.684 134.019 81.42 136.687 81.42C140.735 81.42 144.047 80.04 146.623 77.28C149.199 74.566 150.487 70.84 150.487 66.102V61.479C149.245 64.009 147.29 66.033 144.622 67.551C141.954 69.069 139.194 69.828 136.342 69.828C131.834 69.828 127.97 68.241 124.75 65.067C121.53 61.847 119.92 58.006 119.92 53.544C119.92 49.082 121.53 45.264 124.75 42.09C127.97 38.87 131.834 37.26 136.342 37.26C139.332 37.26 142.115 38.019 144.691 39.537C147.313 41.009 149.245 43.056 150.487 45.678V37.95ZM122.128 53.544C122.128 57.454 123.531 60.835 126.337 63.687C129.189 66.493 132.547 67.896 136.411 67.896C140.321 67.896 143.656 66.493 146.416 63.687C149.176 60.835 150.556 57.454 150.556 53.544C150.556 49.634 149.176 46.276 146.416 43.47C143.656 40.618 140.321 39.192 136.411 39.192C132.547 39.192 129.189 40.618 126.337 43.47C123.531 46.276 122.128 49.634 122.128 53.544ZM165.964 69H163.756V37.95H165.964V44.229C168.31 39.537 172.312 37.191 177.97 37.191C181.834 37.191 185.077 38.525 187.699 41.193C190.321 43.861 191.632 47.104 191.632 50.922V69H189.424V50.922C189.424 47.748 188.297 44.988 186.043 42.642C183.835 40.296 181.144 39.123 177.97 39.123C174.796 39.123 171.99 40.296 169.552 42.642C167.16 44.988 165.964 47.748 165.964 50.922V69Z" fill="#1E1E1E"/>
</svg>
