<svg width="473" height="84" viewBox="0 0 473 84" fill="none" xmlns="http://www.w3.org/2000/svg">
<path d="M60.836 52.6C60.836 55.0567 60.233 57.3123 59.027 59.367C57.821 61.377 56.1907 62.985 54.136 64.191C52.126 65.397 49.8927 66 47.436 66H15.678V59.3H47.436C49.2673 59.3 50.8307 58.6523 52.126 57.357C53.466 56.017 54.136 54.4313 54.136 52.6C54.136 50.7687 53.466 49.2053 52.126 47.91C50.8307 46.57 49.2673 45.9 47.436 45.9H15.678V39.2H40.736C42.5673 39.2 44.1307 38.5523 45.426 37.257C46.766 35.917 47.436 34.3313 47.436 32.5C47.436 30.6687 46.766 29.1053 45.426 27.81C44.1307 26.47 42.5673 25.8 40.736 25.8H12.328V66H5.628V19.1H40.736C43.1927 19.1 45.426 19.703 47.436 20.909C49.4907 22.115 51.121 23.7453 52.327 25.8C53.533 27.81 54.136 30.0433 54.136 32.5C54.136 33.8847 53.935 35.2247 53.533 36.52C53.131 37.7707 52.5727 38.932 51.858 40.004C54.4933 40.8973 56.6373 42.5053 58.29 44.828C59.9873 47.106 60.836 49.6967 60.836 52.6ZM113.391 66H88.2662C85.7202 66 83.3306 65.531 81.0972 64.593C78.9086 63.6103 76.9656 62.2703 75.2682 60.573C73.6156 58.8757 72.3202 56.9327 71.3822 54.744C70.4442 52.5107 69.9752 50.121 69.9752 47.575V29.15H76.6752V47.575C76.6752 49.719 77.1889 51.6843 78.2162 53.471C79.2882 55.213 80.6952 56.62 82.4372 57.692C84.1792 58.7193 86.1222 59.2553 88.2662 59.3H106.691V29.15H113.391V66ZM164.191 54.275C164.191 56.4637 163.655 58.4513 162.583 60.238C161.555 61.98 160.148 63.387 158.362 64.459C156.62 65.4863 154.654 66 152.466 66H123.991V59.3H152.466C153.85 59.3 155.034 58.8087 156.017 57.826C156.999 56.8433 157.491 55.6597 157.491 54.275C157.491 52.8903 156.999 51.7067 156.017 50.724C155.034 49.7413 153.85 49.25 152.466 49.25H134.041C132.209 49.25 130.512 48.8033 128.949 47.91C127.43 47.0167 126.224 45.8107 125.331 44.292C124.437 42.7287 123.991 41.0313 123.991 39.2C123.991 37.324 124.437 35.6267 125.331 34.108C126.224 32.5893 127.43 31.3833 128.949 30.49C130.512 29.5967 132.209 29.15 134.041 29.15H160.841V35.85H134.041C133.103 35.85 132.299 36.185 131.629 36.855C131.003 37.4803 130.691 38.262 130.691 39.2C130.691 40.138 131.003 40.942 131.629 41.612C132.299 42.2373 133.103 42.55 134.041 42.55H152.466C154.654 42.55 156.62 43.086 158.362 44.158C160.148 45.1853 161.555 46.5923 162.583 48.379C163.655 50.121 164.191 52.0863 164.191 54.275ZM182.131 20.775C182.131 22.1597 181.639 23.3433 180.657 24.326C179.674 25.3087 178.49 25.8 177.106 25.8C175.721 25.8 174.537 25.3087 173.555 24.326C172.572 23.3433 172.081 22.1597 172.081 20.775C172.081 19.3903 172.572 18.2067 173.555 17.224C174.537 16.2413 175.721 15.75 177.106 15.75C178.49 15.75 179.674 16.2413 180.657 17.224C181.639 18.2067 182.131 19.3903 182.131 20.775ZM180.456 66H173.756V29.15H180.456V66ZM199.493 66H192.793V29.15H217.918C220.464 29.15 222.831 29.6413 225.02 30.624C227.253 31.562 229.196 32.8797 230.849 34.577C232.546 36.2743 233.864 38.2397 234.802 40.473C235.74 42.6617 236.209 45.029 236.209 47.575V66H229.509V47.575C229.509 45.431 228.995 43.488 227.968 41.746C226.941 39.9593 225.534 38.53 223.747 37.458C222.005 36.386 220.062 35.85 217.918 35.85H199.493V66ZM290.828 40.875C290.828 43.019 290.292 44.9843 289.22 46.771C288.192 48.5577 286.785 49.987 284.999 51.059C283.257 52.0863 281.291 52.6 279.103 52.6H253.442C254.38 54.5653 255.764 56.1733 257.596 57.424C259.472 58.6747 261.571 59.3 263.894 59.3H285.803V66H263.894C261.348 66 258.958 65.531 256.725 64.593C254.536 63.6103 252.593 62.2703 250.896 60.573C249.243 58.8757 247.948 56.9327 247.01 54.744C246.072 52.5107 245.603 50.121 245.603 47.575C245.603 45.029 246.072 42.6617 247.01 40.473C247.948 38.2397 249.243 36.2743 250.896 34.577C252.593 32.8797 254.536 31.562 256.725 30.624C258.958 29.6413 261.348 29.15 263.894 29.15H279.103C281.291 29.15 283.257 29.686 284.999 30.758C286.785 31.7853 288.192 33.1923 289.22 34.979C290.292 36.721 290.828 38.6863 290.828 40.875ZM279.103 45.9C280.487 45.9 281.671 45.4087 282.654 44.426C283.636 43.4433 284.128 42.2597 284.128 40.875C284.128 39.4903 283.636 38.3067 282.654 37.324C281.671 36.3413 280.487 35.85 279.103 35.85H263.894C261.928 35.85 260.119 36.2967 258.467 37.19C256.859 38.0833 255.519 39.2893 254.447 40.808C253.375 42.3267 252.705 44.024 252.437 45.9H279.103ZM338.55 54.275C338.55 56.4637 338.014 58.4513 336.942 60.238C335.915 61.98 334.508 63.387 332.721 64.459C330.979 65.4863 329.014 66 326.825 66H298.35V59.3H326.825C328.21 59.3 329.394 58.8087 330.376 57.826C331.359 56.8433 331.85 55.6597 331.85 54.275C331.85 52.8903 331.359 51.7067 330.376 50.724C329.394 49.7413 328.21 49.25 326.825 49.25H308.4C306.569 49.25 304.872 48.8033 303.308 47.91C301.79 47.0167 300.584 45.8107 299.69 44.292C298.797 42.7287 298.35 41.0313 298.35 39.2C298.35 37.324 298.797 35.6267 299.69 34.108C300.584 32.5893 301.79 31.3833 303.308 30.49C304.872 29.5967 306.569 29.15 308.4 29.15H335.2V35.85H308.4C307.462 35.85 306.658 36.185 305.988 36.855C305.363 37.4803 305.05 38.262 305.05 39.2C305.05 40.138 305.363 40.942 305.988 41.612C306.658 42.2373 307.462 42.55 308.4 42.55H326.825C329.014 42.55 330.979 43.086 332.721 44.158C334.508 45.1853 335.915 46.5923 336.942 48.379C338.014 50.121 338.55 52.0863 338.55 54.275ZM386.573 54.275C386.573 56.4637 386.037 58.4513 384.965 60.238C383.938 61.98 382.531 63.387 380.744 64.459C379.002 65.4863 377.037 66 374.848 66H346.373V59.3H374.848C376.233 59.3 377.417 58.8087 378.399 57.826C379.382 56.8433 379.873 55.6597 379.873 54.275C379.873 52.8903 379.382 51.7067 378.399 50.724C377.417 49.7413 376.233 49.25 374.848 49.25H356.423C354.592 49.25 352.895 48.8033 351.331 47.91C349.813 47.0167 348.607 45.8107 347.713 44.292C346.82 42.7287 346.373 41.0313 346.373 39.2C346.373 37.324 346.82 35.6267 347.713 34.108C348.607 32.5893 349.813 31.3833 351.331 30.49C352.895 29.5967 354.592 29.15 356.423 29.15H383.223V35.85H356.423C355.485 35.85 354.681 36.185 354.011 36.855C353.386 37.4803 353.073 38.262 353.073 39.2C353.073 40.138 353.386 40.942 354.011 41.612C354.681 42.2373 355.485 42.55 356.423 42.55H374.848C377.037 42.55 379.002 43.086 380.744 44.158C382.531 45.1853 383.938 46.5923 384.965 48.379C386.037 50.121 386.573 52.0863 386.573 54.275Z" fill="#1E1E1E"/>
</svg>
