<svg width="24" height="24" viewBox="0 0 24 24" fill="none" xmlns="http://www.w3.org/2000/svg">
<g clip-path="url(#clip0_159_626)">
<path fill-rule="evenodd" clip-rule="evenodd" d="M1.18628 8.75381C3.05605 8.79659 5.86665 8.42841 8.23386 7.15673C9.83222 6.29808 11.2392 5.01729 12 3.18429C12.7608 5.01728 14.1678 6.29808 15.7661 7.15673C18.1334 8.4284 20.944 8.79659 22.8137 8.75381L22.7863 7.55412C21.0561 7.59371 18.4668 7.24532 16.334 6.09961C14.2326 4.97072 12.6001 3.09162 12.6001 -9.05454e-05L11.4001 -9.07028e-05L11.3999 -8.68881e-05C11.3999 3.09163 9.76738 4.97072 7.66597 6.09961C5.53324 7.24532 2.94391 7.59371 1.21373 7.55412L1.18628 8.75381Z" fill="white"/>
<path d="M11.9998 0L11.9469 23.9948" stroke="white" stroke-width="1.2"/>
</g>
<defs>
<clipPath id="clip0_159_626">
<rect width="24" height="24" fill="white" transform="translate(24) rotate(90)"/>
</clipPath>
</defs>
</svg>
