<svg width="141" height="141" viewBox="0 0 141 141" fill="none" xmlns="http://www.w3.org/2000/svg">
<path fill-rule="evenodd" clip-rule="evenodd" d="M58.5031 5.0805L65.6986 4.57898L72.8942 4.07746L71.586 37.1775L70.2778 70.2776L64.3904 37.6791L58.5031 5.0805ZM70.2778 70.2776L81.4776 39.1019L92.6794 7.9279L99.1615 11.0913L105.644 14.2548L87.9597 42.2654L70.2778 70.2776ZM70.2778 70.2776L95.5644 48.879L120.853 27.4821L124.885 33.4627L128.917 39.4432L99.5964 54.8596L70.2778 70.2776ZM70.2778 70.2776L102.876 64.3903L135.473 58.5031L135.975 65.6986L136.476 72.8942L103.378 71.5858L70.2778 70.2776ZM70.2778 70.2776L101.452 81.4776L132.627 92.6793L129.464 99.1613L126.301 105.643L98.2882 87.9597L70.2778 70.2776ZM70.2778 70.2776L85.694 99.5964L101.112 128.917L107.093 124.885L113.073 120.853L91.6745 95.5643L70.2778 70.2776ZM70.2778 70.2776L76.1651 102.876L82.0523 135.473L74.8567 135.974L67.6612 136.476L68.9696 103.378L70.2778 70.2776ZM70.2778 70.2776L59.076 101.452L47.8761 132.627L41.3941 129.464L34.912 126.3L52.5939 98.2882L70.2778 70.2776ZM70.2778 70.2776L44.9892 91.6745L19.7026 113.073L15.6706 107.093L11.6385 101.112L40.9572 85.694L70.2778 70.2776ZM70.2778 70.2776L37.6792 76.1649L5.08063 82.0523L4.57911 74.8567L4.07759 67.6612L37.1777 68.9694L70.2778 70.2776ZM70.2778 70.2776L39.1019 59.076L7.92802 47.876L11.0915 41.3939L14.2549 34.9119L42.2654 52.5939L70.2778 70.2776ZM70.2778 70.2776L48.879 44.9892L27.4822 19.7025L33.4628 15.6704L39.4434 11.6384L54.8596 40.9572L70.2778 70.2776Z" fill="#D7F367"/>
</svg>
