<svg width="388" height="90" viewBox="0 0 388 90" fill="none" xmlns="http://www.w3.org/2000/svg">
<path fill-rule="evenodd" clip-rule="evenodd" d="M370 42.0432L370 45.0004L370 47.9575L356.5 46.4789L343 45.0003L343 45.0004L343 45.0004L343 45.0004L343 45.0003L356.5 43.5218L370 42.0432ZM343 45.0003L353.952 36.9694L364.904 28.9393L366.383 31.5002L367.861 34.0611L355.431 39.5303L343 45.0003ZM343 45.0004L341.521 58.5005L340.042 72L343 72L345.957 72L344.478 58.5005L343 45.0004ZM343 45.0004L334.969 55.9522L326.939 66.9048L329.499 68.3834L332.06 69.862L337.53 57.4308L343 45.0004ZM343 45.0004L332.048 53.0305L321.095 61.0614L319.617 58.5005L318.138 55.9396L330.569 50.4696L343 45.0004ZM342.999 45.0003L343 45.0004L329.499 46.4789L316 47.9575L316 45.0004L316 42.0432L329.499 43.5218L342.999 45.0003ZM342.999 45.0003L343 45.0003L343 45.0004L343 45.0001L351.03 34.0478L359.061 23.0959L356.5 21.6173L353.939 20.1387L348.469 32.5692L343 44.9998L344.478 31.5002L345.957 18L343 18L340.042 18L341.521 31.5002L343 45L343 45.0002L337.53 32.5692L332.06 20.1387L329.499 21.6173L326.939 23.0959L334.969 34.0478L343 45.0002L332.048 36.9694L321.095 28.9393L319.617 31.5002L318.138 34.0611L330.569 39.5303L342.999 45.0003L342.999 45.0003ZM343 45.0004L343 45.0002L343 45.0001L343 45.0004ZM343 45.0004L343 45.0004L343 45.0004L343 45.0005L343 45.0004ZM343 45.0005L351.031 55.9522L359.061 66.9048L356.5 68.3834L353.939 69.862L348.47 57.4308L343 45.0005ZM343 45.0005L355.431 50.4696L367.861 55.9396L366.383 58.5005L364.904 61.0614L353.952 53.0305L343 45.0005Z" fill="#00CF2E"/>
<rect x="299" y="0.999985" width="88" height="210" rx="44" transform="rotate(90 299 0.999985)" stroke="black" stroke-width="2"/>
<circle cx="343" cy="45" r="44" transform="rotate(90 343 45)" stroke="black" stroke-width="2"/>
<circle cx="255" cy="45" r="44" transform="rotate(90 255 45)" stroke="black" stroke-width="2"/>
<circle cx="45" cy="45" r="44" transform="rotate(90 45 45)" stroke="black" stroke-width="2"/>
<g clip-path="url(#clip0_565_943)">
<path fill-rule="evenodd" clip-rule="evenodd" d="M130.119 60.1137C130.178 57.5429 129.673 53.6767 127.919 50.4132C126.792 48.3154 125.134 46.4505 122.794 45.3636C125.134 44.2767 126.792 42.4118 127.919 40.314C129.673 37.0504 130.178 33.1843 130.119 30.6134L128.119 30.6592C128.173 32.9974 127.701 36.4948 126.157 39.3675C124.642 42.188 122.134 44.3634 118 44.3634L118 46.3634L118 46.3638C122.134 46.3638 124.642 48.5391 126.157 51.3597C127.701 54.2324 128.173 57.7298 128.119 60.068L130.119 60.1137Z" fill="black"/>
<path d="M118 45.0003L181.993 45.0724" stroke="black" stroke-width="2"/>
</g>
<path d="M71.2046 42.3951C71.2046 32.6409 59.677 22 44.6023 22C29.9156 22 18 30.6457 18 42.3951C18 53.2355 27.2886 62.1916 40.357 63.5107C40.7551 63.5435 41.1405 63.6664 41.4842 63.8699C41.8279 64.0734 42.1209 64.3523 42.3411 64.6856C42.6551 65.1796 42.8241 65.7519 42.8288 66.3372C42.7983 67.5398 42.6648 68.7376 42.4298 69.9174C42.3936 70.0773 42.4024 70.2441 42.4553 70.3993C42.5082 70.5545 42.6031 70.692 42.7294 70.7965C42.8557 70.901 43.0086 70.9684 43.1709 70.9913C43.3333 71.0142 43.4988 70.9916 43.6491 70.9261C49.9117 68.155 71.2046 56.7603 71.2046 42.3951Z" fill="#00CF2E"/>
<path d="M34.8481 47.2722H30.8577V37.9614C30.8577 37.6086 30.7176 37.2703 30.4682 37.0208C30.2187 36.7714 29.8804 36.6313 29.5276 36.6313C29.1749 36.6313 28.8365 36.7714 28.5871 37.0208C28.3376 37.2703 28.1975 37.6086 28.1975 37.9614V48.6023C28.1975 48.9551 28.3376 49.2934 28.5871 49.5428C28.8365 49.7923 29.1749 49.9324 29.5276 49.9324H34.8481C35.2009 49.9324 35.5392 49.7923 35.7886 49.5428C36.0381 49.2934 36.1782 48.9551 36.1782 48.6023C36.1782 48.2495 36.0381 47.9112 35.7886 47.6618C35.5392 47.4123 35.2009 47.2722 34.8481 47.2722Z" fill="white"/>
<path d="M38.3951 36.6313C38.0423 36.6313 37.704 36.7714 37.4545 37.0208C37.2051 37.2703 37.0649 37.6086 37.0649 37.9614V48.6023C37.0649 48.9551 37.2051 49.2934 37.4545 49.5428C37.704 49.7923 38.0423 49.9324 38.3951 49.9324C38.7478 49.9324 39.0861 49.7923 39.3356 49.5428C39.585 49.2934 39.7252 48.9551 39.7252 48.6023V37.9614C39.7252 37.6086 39.585 37.2703 39.3356 37.0208C39.0861 36.7714 38.7478 36.6313 38.3951 36.6313Z" fill="white"/>
<path d="M50.8094 36.6313C50.6348 36.6313 50.4618 36.6657 50.3004 36.7325C50.1391 36.7993 49.9924 36.8973 49.8689 37.0208C49.7454 37.1444 49.6474 37.291 49.5806 37.4524C49.5137 37.6137 49.4793 37.7867 49.4793 37.9614V44.612L43.9372 37.1633C43.7697 36.94 43.5362 36.775 43.2697 36.6918C43.0032 36.6085 42.7173 36.6112 42.4525 36.6995C42.1876 36.7878 41.9573 36.9572 41.794 37.1836C41.6308 37.4101 41.543 37.6822 41.543 37.9614V48.6023C41.5995 48.9079 41.7612 49.1841 42.0002 49.3829C42.2391 49.5817 42.5401 49.6906 42.8509 49.6906C43.1617 49.6906 43.4627 49.5817 43.7017 49.3829C43.9406 49.1841 44.1024 48.9079 44.1589 48.6023V41.9517L49.701 49.4004C49.8287 49.5724 49.9963 49.7107 50.1894 49.8034C50.3826 49.8961 50.5954 49.9404 50.8094 49.9324C50.9524 49.9319 51.0945 49.9095 51.2306 49.8659C51.4957 49.7774 51.7261 49.6077 51.8892 49.3809C52.0524 49.1541 52.14 48.8817 52.1396 48.6023V37.9614C52.1396 37.7867 52.1052 37.6137 52.0383 37.4524C51.9715 37.291 51.8735 37.1444 51.75 37.0208C51.6265 36.8973 51.4798 36.7993 51.3185 36.7325C51.1571 36.6657 50.9841 36.6313 50.8094 36.6313Z" fill="white"/>
<path d="M60.5637 44.6119C60.7383 44.6119 60.9113 44.5775 61.0727 44.5107C61.2341 44.4439 61.3807 44.3459 61.5042 44.2224C61.6277 44.0989 61.7257 43.9522 61.7925 43.7908C61.8594 43.6295 61.8938 43.4565 61.8938 43.2818C61.8938 43.1072 61.8594 42.9342 61.7925 42.7728C61.7257 42.6114 61.6277 42.4648 61.5042 42.3413C61.3807 42.2178 61.2341 42.1198 61.0727 42.053C60.9113 41.9861 60.7383 41.9517 60.5637 41.9517H56.5733V39.2915H60.5637C60.9164 39.2915 61.2548 39.1513 61.5042 38.9019C61.7536 38.6525 61.8938 38.3141 61.8938 37.9614C61.8938 37.6086 61.7536 37.2703 61.5042 37.0208C61.2548 36.7714 60.9164 36.6313 60.5637 36.6313H55.2432C54.8904 36.6313 54.5521 36.7714 54.3027 37.0208C54.0532 37.2703 53.9131 37.6086 53.9131 37.9614V48.6023C53.9131 48.9551 54.0532 49.2934 54.3027 49.5428C54.5521 49.7923 54.8904 49.9324 55.2432 49.9324H60.5637C60.9164 49.9324 61.2548 49.7923 61.5042 49.5428C61.7536 49.2934 61.8938 48.9551 61.8938 48.6023C61.8938 48.2495 61.7536 47.9112 61.5042 47.6618C61.2548 47.4123 60.9164 47.2722 60.5637 47.2722H56.5733V44.6119H60.5637Z" fill="white"/>
<path d="M222.623 54.21C221.447 54.21 220.25 54.049 219.032 53.727C217.828 53.391 216.694 52.887 215.63 52.215L217.835 49.212C218.479 49.674 219.256 50.038 220.166 50.304C221.076 50.556 221.86 50.682 222.518 50.682C223.148 50.682 223.631 50.598 223.967 50.43C224.317 50.248 224.492 50.017 224.492 49.737C224.492 49.513 224.408 49.338 224.24 49.212C224.072 49.086 223.841 49.023 223.547 49.023C223.365 49.023 223.155 49.03 222.917 49.044C222.693 49.058 222.511 49.072 222.371 49.086C221.643 49.17 220.894 49.212 220.124 49.212C218.878 49.212 217.863 48.981 217.079 48.519C216.309 48.043 215.924 47.273 215.924 46.209C215.924 44.977 216.505 44.025 217.667 43.353C218.829 42.667 220.537 42.324 222.791 42.324C223.897 42.324 225.01 42.485 226.13 42.807C227.264 43.115 228.265 43.584 229.133 44.214L226.718 46.65C225.92 46.23 225.171 45.936 224.471 45.768C223.785 45.586 223.092 45.495 222.392 45.495C221.902 45.495 221.482 45.593 221.132 45.789C220.782 45.985 220.607 46.209 220.607 46.461C220.607 46.657 220.677 46.811 220.817 46.923C220.971 47.035 221.167 47.091 221.405 47.091C221.643 47.091 221.972 47.07 222.392 47.028C223.414 46.958 224.177 46.923 224.681 46.923C226.137 46.923 227.264 47.168 228.062 47.658C228.86 48.148 229.259 48.897 229.259 49.905C229.259 51.417 228.671 52.516 227.495 53.202C226.319 53.874 224.695 54.21 222.623 54.21ZM239.937 46.293C238.649 46.209 237.473 46.146 236.409 46.104L236.388 48.33C236.388 49.086 236.549 49.681 236.871 50.115C237.207 50.535 237.795 50.745 238.635 50.745C238.957 50.745 239.265 50.717 239.559 50.661C239.503 51.179 239.475 51.704 239.475 52.236C239.475 52.488 239.489 53.062 239.517 53.958C238.901 54.07 238.383 54.14 237.963 54.168C237.543 54.196 236.997 54.21 236.325 54.21C234.687 54.21 233.525 53.818 232.839 53.034C232.167 52.236 231.831 51.13 231.831 49.716L231.852 46.167C231.194 46.195 230.508 46.237 229.794 46.293V42.576C230.522 42.576 231.138 42.345 231.642 41.883C232.146 41.421 232.447 40.868 232.545 40.224H238.257C237.543 41.204 236.752 41.988 235.884 42.576H239.937V46.293ZM254.21 42.534C254.112 44.298 254.063 46.202 254.063 48.246C254.063 50.304 254.112 52.222 254.21 54C253.314 53.958 252.607 53.937 252.089 53.937C251.599 53.937 250.892 53.958 249.968 54L249.359 50.913C249.037 52.033 248.533 52.866 247.847 53.412C247.161 53.944 246.363 54.21 245.453 54.21C244.613 54.21 243.885 54.028 243.269 53.664C242.653 53.286 242.184 52.782 241.862 52.152C241.554 51.522 241.4 50.815 241.4 50.031V47.007C241.4 45.145 241.365 43.654 241.295 42.534H246.02C245.936 44.592 245.894 46.629 245.894 48.645C245.894 49.261 246.041 49.751 246.335 50.115C246.643 50.479 247.028 50.661 247.49 50.661C247.924 50.661 248.302 50.472 248.624 50.094C248.96 49.702 249.163 49.17 249.233 48.498V48.015C249.261 46.923 249.275 46.167 249.275 45.747C249.275 44.781 249.247 43.71 249.191 42.534H254.21ZM269.736 37.662C269.652 40.266 269.61 42.989 269.61 45.831C269.61 48.645 269.652 51.368 269.736 54H264.99L265.053 51.48C264.647 52.418 264.059 53.111 263.289 53.559C262.519 53.993 261.609 54.21 260.559 54.21C259.649 54.21 258.83 53.951 258.102 53.433C257.374 52.915 256.807 52.215 256.401 51.333C255.995 50.437 255.792 49.457 255.792 48.393C255.792 47.343 255.995 46.356 256.401 45.432C256.807 44.494 257.374 43.745 258.102 43.185C258.844 42.611 259.684 42.324 260.622 42.324C261.714 42.324 262.645 42.555 263.415 43.017C264.199 43.465 264.78 44.165 265.158 45.117C265.158 44.319 265.13 43.038 265.074 41.274C265.018 39.566 264.99 38.362 264.99 37.662H269.736ZM262.764 50.682C263.45 50.682 264.01 50.493 264.444 50.115C264.878 49.723 265.095 49.107 265.095 48.267C265.095 47.525 264.878 46.979 264.444 46.629C264.01 46.279 263.464 46.104 262.806 46.104C262.176 46.104 261.644 46.307 261.21 46.713C260.79 47.105 260.58 47.623 260.58 48.267C260.58 48.981 260.776 49.562 261.168 50.01C261.56 50.458 262.092 50.682 262.764 50.682ZM274.343 41.295C273.461 41.295 272.803 41.078 272.369 40.644C271.949 40.21 271.739 39.643 271.739 38.943C271.739 38.257 271.949 37.69 272.369 37.242C272.803 36.794 273.461 36.57 274.343 36.57C275.183 36.57 275.827 36.801 276.275 37.263C276.723 37.711 276.947 38.271 276.947 38.943C276.947 39.643 276.73 40.21 276.296 40.644C275.862 41.078 275.211 41.295 274.343 41.295ZM271.907 54C272.005 51.746 272.054 49.884 272.054 48.414C272.054 46.664 271.998 44.704 271.886 42.534H276.926C276.814 44.62 276.758 46.58 276.758 48.414C276.758 49.954 276.807 51.816 276.905 54H271.907ZM285.696 54.21C283.302 54.21 281.538 53.664 280.404 52.572C279.284 51.466 278.724 50.017 278.724 48.225C278.724 46.475 279.284 45.054 280.404 43.962C281.538 42.87 283.302 42.324 285.696 42.324C287.306 42.324 288.65 42.59 289.728 43.122C290.82 43.64 291.625 44.347 292.143 45.243C292.661 46.125 292.92 47.119 292.92 48.225C292.92 50.031 292.318 51.48 291.114 52.572C289.924 53.664 288.118 54.21 285.696 54.21ZM285.78 50.64C286.69 50.64 287.369 50.423 287.817 49.989C288.265 49.555 288.489 48.974 288.489 48.246C288.489 47.56 288.265 47 287.817 46.566C287.369 46.118 286.69 45.894 285.78 45.894C284.87 45.894 284.205 46.111 283.785 46.545C283.365 46.979 283.155 47.546 283.155 48.246C283.155 48.974 283.365 49.555 283.785 49.989C284.205 50.423 284.87 50.64 285.78 50.64Z" fill="#00CF2E"/>
<defs>
<clipPath id="clip0_565_943">
<rect width="64" height="32" fill="white" transform="translate(118 29)"/>
</clipPath>
</defs>
</svg>
