<svg width="388" height="90" viewBox="0 0 388 90" fill="none" xmlns="http://www.w3.org/2000/svg">
<path fill-rule="evenodd" clip-rule="evenodd" d="M18 47.9568L18 44.9996L18 42.0425L31.5002 43.521L45.0002 44.9996L32.5691 39.5304L20.1387 34.0604L21.6173 31.4994L23.0958 28.9385L34.0477 36.9695L45.0001 44.9995L45.0001 44.9995L45.0003 44.9996L45.0003 44.9996L45.0002 44.9996L31.5002 46.4782L18 47.9568ZM45.0002 44.9996L34.0477 53.0305L23.0958 61.0607L21.6173 58.4998L20.1387 55.9389L32.5691 50.4696L45.0002 44.9996ZM45.0001 44.9995L36.9693 34.0478L28.9391 23.0952L31.5 21.6166L34.0609 20.138L39.5302 32.5692L45.0001 44.9995ZM45.0003 44.9999L45.0004 44.9996L45.0004 44.9998L45.0004 44.9998L45.0004 44.9996L45.0005 44.9997L45.0005 44.9996L45.0005 44.9997L57.4308 50.4696L69.862 55.9389L68.3834 58.4998L66.9048 61.0607L55.9522 53.0305L45.0005 44.9998L53.0305 55.9522L61.0615 66.9041L58.5006 68.3827L55.9396 69.8612L50.4696 57.4308L45.0005 44.9998L45.0004 44.9999L46.479 58.4998L47.9575 72L45.0004 72L42.0432 72L43.5218 58.4998L45.0003 45.0002L39.5305 57.4308L34.0613 69.8612L31.5004 68.3827L28.9395 66.9041L36.9696 55.9522L45.0003 44.9999ZM45.0004 44.9996L46.479 31.4994L47.9575 18L45.0004 18L42.0432 18L43.5218 31.4994L45.0004 44.9996ZM45.0004 44.9996L53.0305 34.0478L61.0614 23.0952L58.5006 21.6166L55.9396 20.138L50.4696 32.5692L45.0004 44.9996ZM45.0004 44.9996L55.9522 36.9695L66.9048 28.9385L68.3834 31.4994L69.862 34.0604L57.4308 39.5304L45.0004 44.9996ZM45.0005 44.9996L58.5006 46.4782L72 47.9568L72 44.9996L72 42.0425L58.5006 43.521L45.0004 44.9996L45.0005 44.9996Z" fill="#253BFF"/>
<rect x="89" y="89" width="88" height="210" rx="44" transform="rotate(-90 89 89)" stroke="black" stroke-width="2"/>
<circle cx="45" cy="45" r="44" transform="rotate(-90 45 45)" stroke="black" stroke-width="2"/>
<circle cx="133" cy="45" r="44" transform="rotate(-90 133 45)" stroke="black" stroke-width="2"/>
<circle cx="343" cy="45" r="44" transform="rotate(-90 343 45)" stroke="black" stroke-width="2"/>
<g clip-path="url(#clip0_565_942)">
<path fill-rule="evenodd" clip-rule="evenodd" d="M257.881 29.8862C257.822 32.457 258.327 36.3232 260.081 39.5867C261.208 41.6846 262.866 43.5494 265.206 44.6363C262.866 45.7233 261.208 47.5881 260.081 49.686C258.327 52.9495 257.822 56.8157 257.881 59.3865L259.881 59.3407C259.827 57.0026 260.299 53.5052 261.843 50.6324C263.358 47.8119 265.866 45.6365 270 45.6365V43.6365L270 43.6362C265.866 43.6362 263.358 41.4608 261.843 38.6403C260.299 35.7675 259.827 32.2701 259.881 29.9319L257.881 29.8862Z" fill="black"/>
<path d="M270 44.9996L206.007 44.9276" stroke="black" stroke-width="2"/>
</g>
<path d="M98.1804 49.0266C101.026 49.007 103.381 48.9579 105.246 48.8794C105.118 49.3799 105.04 49.8607 105.01 50.322C104.981 50.7832 104.966 51.3425 104.966 52H94.5888C94.6673 50.0963 94.7065 48.3152 94.7065 46.6568C94.7065 44.9984 94.6673 43.2173 94.5888 41.3136H98.1804V49.0266ZM108.465 43.0946C107.847 43.0946 107.386 42.9425 107.081 42.6383C106.787 42.3341 106.64 41.9367 106.64 41.446C106.64 40.9652 106.787 40.5678 107.081 40.2537C107.386 39.9397 107.847 39.7827 108.465 39.7827C109.054 39.7827 109.505 39.9446 109.819 40.2685C110.133 40.5825 110.29 40.975 110.29 41.446C110.29 41.9367 110.138 42.3341 109.834 42.6383C109.53 42.9425 109.074 43.0946 108.465 43.0946ZM106.758 52C106.826 50.4201 106.861 49.115 106.861 48.0846C106.861 46.8579 106.821 45.4841 106.743 43.9631H110.276C110.197 45.4252 110.158 46.7991 110.158 48.0846C110.158 49.164 110.192 50.4692 110.261 52H106.758ZM117.424 52C117.483 50.5575 117.513 49.2278 117.513 48.011C117.513 47.5792 117.405 47.2357 117.189 46.9806C116.983 46.7255 116.718 46.5979 116.394 46.5979C116.07 46.5979 115.795 46.7451 115.57 47.0395C115.344 47.3241 115.211 47.7166 115.172 48.2171C115.153 48.9629 115.143 49.4928 115.143 49.8068C115.143 50.4741 115.162 51.2051 115.202 52H111.684C111.762 50.5869 111.801 49.2523 111.801 47.9963C111.801 46.7402 111.762 45.3958 111.684 43.9631C112.331 43.9925 112.827 44.0072 113.17 44.0072C113.533 44.0072 114.029 43.9925 114.657 43.9631L115.084 46.1269C115.31 45.3418 115.663 44.7628 116.144 44.39C116.625 44.0072 117.184 43.8159 117.822 43.8159C118.411 43.8159 118.921 43.9484 119.353 44.2133C119.784 44.4685 120.108 44.8168 120.324 45.2584C120.55 45.7 120.663 46.1956 120.663 46.7451V48.8647C120.663 50.1699 120.687 51.215 120.736 52H117.424ZM132.384 43.9484L128.734 47.275C129.98 49.0414 131.143 50.6164 132.222 52H128.321L127.571 50.793C127.08 49.9785 126.756 49.4486 126.599 49.2033L125.378 50.322V52H121.992C122.071 50.1355 122.11 48.2465 122.11 46.3329C122.11 44.4096 122.071 42.4813 121.992 40.5481H125.378V46.7893C126.329 45.8178 127.227 44.8708 128.071 43.9484H132.384ZM139.656 48.3201H134.857C134.936 48.7519 135.127 49.1051 135.431 49.3799C135.745 49.6449 136.187 49.7773 136.756 49.7773C137.168 49.7773 137.556 49.6988 137.919 49.5418C138.282 49.375 138.571 49.1444 138.787 48.85C139.445 49.1738 140.318 49.5222 141.407 49.8951C141.103 50.582 140.549 51.1315 139.744 51.5437C138.949 51.946 137.909 52.1472 136.624 52.1472C134.955 52.1472 133.719 51.7645 132.914 50.9991C132.119 50.2238 131.722 49.2082 131.722 47.9521C131.722 46.7255 132.119 45.7294 132.914 44.964C133.709 44.1986 134.946 43.8159 136.624 43.8159C137.624 43.8159 138.493 43.9827 139.229 44.3164C139.965 44.65 140.529 45.1161 140.922 45.7147C141.314 46.3035 141.51 46.9806 141.51 47.746C141.51 48.0012 141.501 48.1925 141.481 48.3201H139.656ZM136.83 46.0386C136.339 46.0386 135.937 46.1318 135.623 46.3182C135.309 46.5047 135.088 46.7598 134.96 47.0836H138.434C138.316 46.7696 138.125 46.5194 137.86 46.3329C137.595 46.1367 137.252 46.0386 136.83 46.0386ZM152.235 40.5481C152.176 42.3734 152.147 44.282 152.147 46.2741C152.147 48.2465 152.176 50.1551 152.235 52H148.909L148.953 50.2336C148.668 50.8911 148.256 51.3769 147.716 51.6909C147.177 51.9951 146.539 52.1472 145.803 52.1472C145.165 52.1472 144.591 51.9657 144.081 51.6026C143.57 51.2395 143.173 50.7488 142.888 50.1306C142.604 49.5026 142.461 48.8157 142.461 48.0699C142.461 47.3339 142.604 46.6421 142.888 45.9944C143.173 45.3369 143.57 44.8119 144.081 44.4194C144.601 44.0171 145.19 43.8159 145.847 43.8159C146.612 43.8159 147.265 43.9778 147.805 44.3016C148.354 44.6157 148.761 45.1063 149.026 45.7736C149.026 45.2143 149.007 44.3164 148.968 43.0799C148.928 41.8827 148.909 41.0388 148.909 40.5481H152.235ZM147.348 49.6743C147.829 49.6743 148.222 49.5418 148.526 49.2769C148.83 49.0021 148.982 48.5703 148.982 47.9815C148.982 47.4614 148.83 47.0787 148.526 46.8334C148.222 46.5881 147.839 46.4654 147.378 46.4654C146.936 46.4654 146.563 46.6077 146.259 46.8923C145.965 47.1671 145.818 47.5301 145.818 47.9815C145.818 48.482 145.955 48.8893 146.23 49.2033C146.504 49.5173 146.877 49.6743 147.348 49.6743ZM155.464 43.0946C154.846 43.0946 154.385 42.9425 154.081 42.6383C153.786 42.3341 153.639 41.9367 153.639 41.446C153.639 40.9652 153.786 40.5678 154.081 40.2537C154.385 39.9397 154.846 39.7827 155.464 39.7827C156.053 39.7827 156.505 39.9446 156.819 40.2685C157.133 40.5825 157.29 40.975 157.29 41.446C157.29 41.9367 157.138 42.3341 156.833 42.6383C156.529 42.9425 156.073 43.0946 155.464 43.0946ZM153.757 52C153.826 50.4201 153.86 49.115 153.86 48.0846C153.86 46.8579 153.821 45.4841 153.742 43.9631H157.275C157.196 45.4252 157.157 46.7991 157.157 48.0846C157.157 49.164 157.192 50.4692 157.26 52H153.757ZM164.424 52C164.483 50.5575 164.512 49.2278 164.512 48.011C164.512 47.5792 164.404 47.2357 164.188 46.9806C163.982 46.7255 163.717 46.5979 163.393 46.5979C163.069 46.5979 162.795 46.7451 162.569 47.0395C162.343 47.3241 162.211 47.7166 162.172 48.2171C162.152 48.9629 162.142 49.4928 162.142 49.8068C162.142 50.4741 162.162 51.2051 162.201 52H158.683C158.761 50.5869 158.801 49.2523 158.801 47.9963C158.801 46.7402 158.761 45.3958 158.683 43.9631C159.331 43.9925 159.826 44.0072 160.17 44.0072C160.533 44.0072 161.028 43.9925 161.656 43.9631L162.083 46.1269C162.309 45.3418 162.662 44.7628 163.143 44.39C163.624 44.0072 164.183 43.8159 164.821 43.8159C165.41 43.8159 165.92 43.9484 166.352 44.2133C166.784 44.4685 167.108 44.8168 167.323 45.2584C167.549 45.7 167.662 46.1956 167.662 46.7451V48.8647C167.662 50.1699 167.686 51.215 167.736 52H164.424Z" fill="#253BFF"/>
<path fill-rule="evenodd" clip-rule="evenodd" d="M373 45C373 61.5685 359.569 75 343 75C326.431 75 313 61.5685 313 45C313 28.4315 326.431 15 343 15C359.569 15 373 28.4315 373 45ZM333 38.7C334.27 38.7 335.3 39.7297 335.3 41V55.5C335.3 56.7703 334.27 57.8 333 57.8C331.73 57.8 330.7 56.7703 330.7 55.5V41C330.7 39.7297 331.73 38.7 333 38.7ZM334.722 36.5452C335.576 35.6052 335.507 34.1506 334.567 33.2961C333.627 32.4417 332.173 32.5109 331.318 33.4508L331.298 33.4728C330.444 34.4128 330.513 35.8674 331.453 36.7219C332.393 37.5763 333.847 37.5071 334.702 36.5672L334.722 36.5452ZM343.3 41C343.3 39.7297 342.27 38.7 341 38.7C339.73 38.7 338.7 39.7297 338.7 41V48.5V55C338.7 56.2703 339.73 57.3 341 57.3C342.27 57.3 343.3 56.2703 343.3 55V48.5C343.3 47.3028 343.75 46.5456 344.347 46.0482C344.997 45.5067 345.952 45.175 347 45.175C348.048 45.175 349.003 45.5067 349.653 46.0482C350.25 46.5456 350.7 47.3028 350.7 48.5V55C350.7 56.2703 351.73 57.3 353 57.3C354.27 57.3 355.3 56.2703 355.3 55V48.5C355.3 45.9472 354.25 43.8919 352.597 42.5143C350.997 41.1808 348.952 40.575 347 40.575C345.758 40.575 344.479 40.8202 343.3 41.342V41Z" fill="#253BFF"/>
<defs>
<clipPath id="clip0_565_942">
<rect width="64" height="32" fill="white" transform="translate(270 61) rotate(180)"/>
</clipPath>
</defs>
</svg>
