<svg width="261" height="310" viewBox="0 0 261 310" fill="none" xmlns="http://www.w3.org/2000/svg">
<g clip-path="url(#clip0_177_1279)">
<path d="M258.162 176.312C234.308 177.003 210.624 179.407 187.111 183.469C186.039 183.654 185.464 183.469 185.054 182.399C183.286 177.795 181.424 173.225 179.642 168.625C177.625 163.424 174.57 159.014 169.816 156.011C168.486 155.172 168.365 154.337 168.526 152.924C169.516 144.301 170.775 135.684 171.196 127.029C171.656 117.573 171.59 108.064 171.209 98.6019C170.905 91.0865 169.981 83.5752 168.956 76.1153C167.986 69.0608 165.342 62.5059 161.708 56.1921C164.718 54.0939 166.327 51.1825 166.918 47.8506C167.603 44.0043 168.248 40.0833 168.243 36.1964C168.233 27.8463 164.504 21.3639 157.402 16.9306C152.678 13.9808 147.523 12.5891 141.945 12.8026C141.309 12.826 140.554 12.8538 140.048 12.5507C137.941 11.2956 135.927 9.88475 133.846 8.58272C120.125 0.00427806 105.463 -2.29028 89.9358 2.365C78.3183 5.84846 70.1302 13.825 63.9013 23.8805C50.5309 45.4664 47.9079 68.4739 55.4812 92.6766C55.8493 93.8506 55.8706 94.8068 55.3664 95.9296C53.4943 100.102 52.6327 104.506 52.3987 109.074C52.0094 116.664 51.3946 124.243 51.0883 131.836C50.8521 137.731 49.4268 143.725 52.1413 149.535C50.9394 150.038 49.8544 150.534 48.7397 150.958C34.044 156.555 23.9901 166.689 18.559 181.558C11.3367 201.332 5.69494 221.539 1.44876 242.152C1.09774 243.851 0.955211 245.631 0.351044 247.232C-0.550951 249.622 0.276587 251.763 2.75495 252.482C3.65481 252.743 4.59723 252.858 5.54603 253.046C5.54603 253.554 5.54603 253.972 5.54603 254.388C5.53113 260.788 5.31627 267.193 5.55454 273.584C5.80982 280.431 8.03715 286.677 12.1897 292.218C16.5253 298.004 22.1223 300.835 29.3744 300C31.789 299.723 34.1865 299.285 36.718 298.903C36.5394 300.137 36.2819 301.253 36.2394 302.378C36.199 303.443 35.8288 304.948 37.5541 304.995C37.9753 305.005 38.2816 304.918 38.5071 304.764C50.7245 305.291 63.095 303.464 75.1124 305.71C79.1693 306.467 83.1304 307.682 87.1915 308.427C92.6481 309.428 98.2197 309.567 103.764 309.705C115.483 309.996 127.222 310.286 138.916 309.451C147.946 308.807 156.93 307.49 165.769 305.518L165.954 304.995C166.129 305.705 166.31 306.414 166.495 307.121C166.622 307.605 167.539 307.88 168.092 308.254C168.446 307.684 169.062 307.131 169.099 306.544C169.173 305.304 168.943 304.047 168.837 302.773C170.067 302.613 171.26 302.521 172.43 302.297C177.931 301.244 182.065 297.855 186.045 294.209C188.736 291.746 190.057 288.666 190.081 285.046C190.119 279.089 190.091 273.129 190.091 267.007C196.646 266.254 202.962 265.526 209.28 264.8C218.955 263.688 228.628 262.564 238.303 261.475C243.62 260.877 247 258.011 248.472 252.879C248.821 251.667 249.098 250.427 249.308 249.18C251.565 235.812 253.827 222.444 256.039 209.067C257.681 199.138 259.268 189.197 260.853 179.259C261.27 176.64 260.874 176.233 258.156 176.31L258.162 176.312Z" fill="white"/>
<path d="M161.706 56.1878C165.34 62.5037 167.982 69.0587 168.954 76.111C169.981 83.571 170.903 91.0822 171.207 98.5977C171.59 108.06 171.653 117.569 171.196 127.025C170.777 135.68 169.518 144.299 168.526 152.92C168.365 154.333 168.486 155.168 169.815 156.006C174.57 159.01 177.625 163.419 179.642 168.621C181.424 173.221 183.284 177.789 185.054 182.395C185.464 183.462 186.039 183.648 187.111 183.464C210.626 179.402 234.31 176.999 258.162 176.307C260.881 176.228 261.276 176.636 260.86 179.257C259.275 189.197 257.688 199.136 256.045 209.065C253.833 222.442 251.572 235.81 249.314 249.178C249.104 250.423 248.825 251.663 248.478 252.877C247.006 258.011 243.626 260.875 238.31 261.473C228.632 262.561 218.959 263.686 209.286 264.798C202.97 265.524 196.654 266.252 190.1 267.005C190.1 273.127 190.127 279.084 190.089 285.044C190.066 288.664 188.745 291.744 186.053 294.207C182.071 297.851 177.938 301.24 172.438 302.295C171.268 302.519 170.075 302.61 168.845 302.771C168.952 304.045 169.181 305.302 169.107 306.542C169.071 307.131 168.454 307.684 168.101 308.252C167.548 307.88 166.631 307.605 166.503 307.118C165.831 304.57 165.214 301.987 164.842 299.379C163.453 289.648 163.353 279.895 164.763 269.861C162.861 270.049 161.049 270.292 159.23 270.393C155.579 270.596 151.884 270.44 148.276 270.931C139.86 272.075 132.768 268.26 125.43 265.261C121.593 263.693 117.755 262.132 113.911 260.583C113.588 260.452 113.126 260.265 112.888 260.395C110.599 261.654 108.337 262.967 106.08 264.284C105.014 264.905 104.025 265.68 102.91 266.186C101.625 266.771 100.16 266.975 98.9152 267.622C81.8922 276.442 64.9032 285.332 47.878 294.145C45.4848 295.383 42.9639 296.399 40.4387 297.347C39.2516 297.793 38.8347 298.388 38.9985 299.603C39.1282 300.557 39.1346 301.53 39.1346 302.495C39.1346 303.648 39.1793 305.035 37.5646 304.993C35.8394 304.948 36.2095 303.441 36.2499 302.376C36.2925 301.251 36.5478 300.134 36.7286 298.901C34.1992 299.283 31.8017 299.72 29.385 299.998C22.1307 300.832 16.5358 298.002 12.1982 292.216C8.04557 286.674 5.81824 280.427 5.56296 273.582C5.3247 267.191 5.53956 260.785 5.55445 254.386C5.55445 253.968 5.55445 253.552 5.55445 253.044C4.60565 252.858 3.66324 252.743 2.76337 252.48C0.28501 251.761 -0.542528 249.62 0.359467 247.229C0.963634 245.626 1.10829 243.848 1.45718 242.149C5.70124 221.537 11.343 201.328 18.5674 181.556C23.9985 166.685 34.0524 156.553 48.7481 150.956C49.8607 150.531 50.9478 150.038 52.1497 149.533C49.4352 143.72 50.8606 137.729 51.0967 131.834C51.4009 124.241 52.0157 116.662 52.4071 109.072C52.6412 104.504 53.5027 100.098 55.3748 95.9274C55.879 94.8068 55.8577 93.8485 55.4897 92.6745C47.9142 68.4717 50.5372 45.4643 63.9097 23.8783C70.1365 13.825 78.3246 5.84632 89.9442 2.36286C105.463 -2.29028 120.125 0.00427314 133.844 8.58058C135.925 9.88047 137.939 11.2914 140.045 12.5486C140.552 12.8495 141.307 12.8239 141.943 12.8004C147.521 12.5891 152.675 13.9787 157.4 16.9285C164.503 21.3618 168.231 27.8442 168.241 36.1942C168.245 40.0811 167.601 44.0021 166.916 47.8485C166.322 51.1804 164.716 54.0918 161.706 56.19V56.1878ZM4.97581 244.967C7.55628 245.428 10.0198 245.938 12.5066 246.299C22.0967 247.69 31.5762 249.541 40.7238 252.85C42.3661 253.443 44.1339 253.838 44.5296 256.218C45.0891 255.612 45.3741 255.054 45.489 254.463C45.5784 254.004 45.3975 253.501 45.4401 253.025C46.0485 246.173 46.4123 239.287 47.3781 232.487C48.1907 226.775 48.2524 221.355 45.2678 216.222C44.9891 215.744 44.8955 215.155 44.7168 214.619L45.2082 214.32C46.4974 215.906 47.7844 217.492 49.0034 218.99C49.5522 217.588 50.1096 216.166 50.667 214.745L51.2945 214.758C51.5732 215.936 52.0093 217.104 52.1093 218.297C52.8858 227.554 51.954 236.743 50.8414 245.917C50.4968 248.766 49.9905 251.599 49.5437 254.529C63.6566 250.741 77.563 247.003 91.4737 243.283C92.8799 242.907 94.0521 242.397 95.0562 241.159C96.8538 238.946 99.0301 238.768 101.349 240.22C101.572 240.359 101.919 240.452 102.159 240.386C105.748 239.411 109.395 238.591 112.898 237.364C119.695 234.986 126.392 232.324 133.17 229.891C135.129 229.189 137.205 228.655 139.267 228.457C140.464 228.341 141.977 228.732 142.936 229.449C145.083 231.054 146.995 232.982 148.95 234.835C149.718 235.565 151.305 236.416 150.25 237.522C149.187 238.636 148.187 237.101 147.338 236.388C145.628 234.954 143.783 233.618 142.343 231.938C140.656 229.968 138.816 230.493 136.92 231.067C129.857 233.21 122.812 235.411 115.766 237.607C115.347 237.737 114.949 237.991 114.598 238.263C113.945 238.768 113.413 239.612 112.69 239.819C108.018 241.157 103.332 242.457 98.6025 243.562C96.773 243.989 96.1156 244.958 96.0433 246.664C95.854 251.099 96.9729 255.27 98.6684 259.298C99.0769 260.269 99.7853 261.157 100.515 261.934C101.404 262.882 102.415 263.118 103.729 262.384C106.878 260.628 110.109 259.018 113.341 257.417C113.922 257.129 114.66 257.093 115.33 257.08C116.051 257.067 116.857 257.462 117.483 257.253C119.348 256.628 121.331 256.07 122.929 254.982C126.666 252.433 130.313 252.615 134.142 254.574C135.852 255.449 137.576 256.369 139.397 256.924C140.313 257.204 141.858 257.084 142.419 256.485C143.36 255.479 142.664 254.015 141.69 253.317C139.913 252.043 138.037 250.719 135.997 250.058C133.336 249.195 130.466 248.993 127.705 248.414C127.222 248.314 126.832 247.772 126.398 247.434C126.86 247.165 127.328 246.651 127.779 246.666C133.28 246.845 138.499 247.919 142.788 251.746C143.109 252.032 143.541 252.314 143.949 252.356C145.17 252.489 146.432 252.367 147.627 252.602C148.897 252.849 149.401 252.645 149.676 251.232C153.426 232.032 158.551 213.197 164.518 194.574C166.184 189.375 169.209 186.356 174.621 185.669C176.919 185.377 179.18 184.811 181.673 184.327C179.142 178.288 176.787 172.429 174.228 166.662C172.787 163.417 170.413 160.845 167.48 158.698C167.314 159.074 167.169 159.336 167.078 159.616C166.318 161.934 165.478 162.508 162.982 162.401C160.31 162.286 159.659 161.727 158.977 159.215C158.553 157.65 158.117 156.07 157.492 154.581C155.777 150.495 151.656 150.553 148.28 149.093C147.797 151.129 148.344 153.402 145.923 154.265C145.762 154.322 145.732 154.698 145.596 154.892C144.97 155.776 144.464 156.807 143.668 157.496C140.371 160.346 139.496 163.953 140.001 168.111C140.067 168.657 139.762 169.622 139.39 169.763C138.854 169.968 137.967 169.787 137.465 169.434C136.24 168.572 135.046 167.612 134.031 166.512C132.993 165.39 132.261 165.629 131.387 166.613C130.449 167.667 129.451 168.666 128.479 169.688C128.315 169.573 128.151 169.458 127.99 169.343C129.317 167.473 130.545 165.518 132.04 163.795C132.402 163.379 133.727 163.513 134.461 163.789C135.352 164.122 136.086 164.875 136.556 165.208C137.507 162.886 138.184 160.51 139.401 158.459C140.805 156.098 142.707 154.038 144.355 151.821C145.6 150.147 145.345 148.374 143.836 146.971C143.379 146.544 142.87 145.895 142.843 145.328C142.722 142.709 141.669 140.636 139.637 139.027C139.586 138.986 139.641 138.809 139.656 138.493C140.416 138.638 141.143 138.777 142.117 138.963C141.688 134.512 141.271 130.171 140.886 126.175C137.116 126.589 133.376 127.368 129.645 127.326C123.407 127.253 117.672 125.353 113.109 120.815C112.369 120.079 111.981 118.982 111.43 118.053C111.569 117.831 111.705 117.612 111.843 117.39C112.749 117.543 113.719 117.541 114.551 117.878C116.413 118.638 118.166 119.663 120.031 120.41C124.565 122.222 129.287 122.973 134.167 122.67C138.084 122.427 141.028 120.348 144.072 118.023C149.965 113.524 153.845 107.776 156.054 100.809C158.309 93.6969 158.013 86.4055 157.387 79.0928C156.837 72.6596 156.386 66.2199 155.905 59.7802C155.875 59.3767 155.907 58.9392 156.039 58.5614C156.215 58.0512 156.517 57.5816 156.764 57.095C156.107 56.9349 155.449 56.6446 154.79 56.6339C151.746 56.5848 148.699 56.6126 145.706 56.6126C145.432 54.8004 145.306 53.4152 144.974 52.0811C144.864 51.635 144.232 51.3191 143.838 50.9413C143.57 51.3405 143.139 51.7097 143.062 52.1409C142.845 53.3682 142.775 54.6233 142.671 55.635C138.669 55.635 134.774 55.635 130.876 55.635C128.186 55.635 126.374 54.4056 125.439 51.9466C125.403 51.8527 125.294 51.7887 125.188 51.6756C124.941 52.444 124.626 53.1718 124.482 53.9338C124.133 55.7567 123.201 56.2924 121.272 56.3714C114.972 56.6297 108.682 57.1569 102.402 57.7204C100.27 57.9125 100.094 57.9701 99.6725 55.7994C99.5704 55.2657 99.5258 54.7215 99.4088 54.1921C98.7216 51.063 98.0217 47.936 97.2857 44.6254C94.6924 47.4728 92.3566 49.9701 90.1186 52.5528C89.6719 53.0694 89.3549 53.9338 89.4038 54.6062C89.7315 59.1612 88.889 63.4536 87.1403 67.667C86.1767 69.9872 84.7832 72.5165 87.0872 74.9562C87.1616 75.0352 87.2105 75.191 87.1914 75.2956C87.0595 76.032 86.9042 76.7641 86.7574 77.4984C86.0767 77.3191 85.1811 77.3533 84.7577 76.9221C83.3579 75.492 81.6667 74.8858 79.7691 74.6958C74.2295 74.143 69.9663 77.524 70.3386 82.5464C70.5109 84.8709 71.315 87.285 72.3893 89.3703C73.9784 92.4568 76.5228 92.8474 79.4691 90.9584C79.8733 90.7001 80.2924 90.444 80.7392 90.2818C82.5453 89.6243 83.8004 90.047 84.1982 91.8805C84.4833 93.1996 84.0536 94.6766 83.9429 96.0832C83.6387 96.1281 83.3345 96.1729 83.0303 96.2177C92.0907 103.195 97.292 111.885 95.4604 123.761C95.888 123.362 95.9561 122.847 96.2305 122.683C97.0814 122.175 98.026 121.426 98.9046 121.462C100.213 121.518 100.762 122.707 100.634 123.989C100.551 124.818 100.379 125.693 100.007 126.423C98.8939 128.604 97.6643 130.724 96.3752 133.059C100.479 136.86 105.031 140.465 110.024 143.535C112.526 145.072 115.006 146.711 117.227 148.619C119.987 150.988 120.995 154.147 120.093 157.78C119.672 159.475 119.178 161.15 118.77 162.847C118.34 164.636 118.423 166.371 119.861 167.714C121.114 168.884 122.465 169.949 123.888 171.159C124.124 167.232 125.85 164.233 128.596 162.053C132.914 158.628 135.414 154.015 137.735 149.225C137.958 148.764 137.952 148.102 137.837 147.582C137.118 144.359 136.167 141.178 135.633 137.927C135.252 135.618 135.306 133.204 136.586 130.98C136.78 131.157 136.91 131.219 136.933 131.308C138.205 135.94 139.516 140.563 140.696 145.221C140.928 146.139 140.847 147.24 140.577 148.158C140.267 149.212 139.494 150.12 139.08 151.153C137.301 155.599 135.423 159.966 131.606 163.127C129.413 164.943 127.983 167.251 127.077 169.957C126.745 170.95 126.007 171.804 125.399 172.811C125.941 173.571 126.705 174.512 127.332 175.537C129.192 178.566 130.566 181.769 130.109 185.434C130.017 186.162 129.406 186.826 129.034 187.52C128.634 186.882 127.947 186.271 127.881 185.599C127.303 179.622 124.303 175.097 119.78 171.398C115.445 167.853 114.892 165.614 116.547 160.147C117.119 158.258 117.321 156.258 117.693 154.31C117.476 154.237 117.261 154.162 117.044 154.09C115.132 156.527 113.143 158.911 111.326 161.417C108.865 164.811 106.533 168.303 104.146 171.75C103.351 172.901 102.268 172.982 101.391 172.079C100.234 170.882 99.0769 169.577 98.3238 168.111C95.9284 163.458 93.7266 158.702 91.4312 153.996C91.1142 153.345 90.6909 152.747 90.1718 151.885C89.9293 152.775 89.7953 153.3 89.6421 153.819C88.6508 157.161 87.6701 160.508 86.6553 163.844C86.2915 165.037 85.4193 165.584 84.1812 165.49C82.9324 165.396 81.9964 164.869 81.6773 163.552C81.5646 163.082 81.471 162.606 81.3284 162.147C80.6881 160.083 80.0308 158.026 79.2309 155.49C78.5288 157.027 78.197 158.088 77.5992 158.965C77.1142 159.673 76.2079 160.717 75.6718 160.617C74.9251 160.478 74.1146 159.522 73.7423 158.724C72.7191 156.525 71.4746 156.045 69.4089 157.394C66.8603 159.057 64.2054 160.476 61.1037 160.608C60.389 160.638 59.4742 160.256 58.987 159.744C58.6701 159.409 58.7424 158.374 59.0232 157.866C59.5806 156.858 59.3359 156.314 58.4169 155.836C57.9404 155.586 57.3724 155.362 57.066 154.956C55.0089 152.243 52.7496 153.035 50.2011 154.226C43.1766 157.509 36.4542 161.159 31.3975 167.293C27.281 172.29 24.4006 177.964 22.1733 183.989C16.5677 199.155 12.3194 214.728 8.42637 230.406C7.22442 235.244 6.12458 240.111 4.97794 244.956L4.97581 244.967ZM148.378 267.752C152.903 267.095 157.047 266.393 161.217 265.904C173.268 264.491 185.33 263.155 197.39 261.806C210.348 260.354 223.314 258.978 236.259 257.43C238.401 257.174 240.645 256.534 242.509 255.479C244.719 254.228 245.175 251.59 245.64 249.268C246.719 243.891 247.647 238.485 248.583 233.08C250.714 220.798 252.803 208.508 254.931 196.224C255.903 190.604 256.922 184.99 257.934 179.289C257.503 179.247 257.209 179.178 256.922 179.197C245.041 179.966 233.104 180.263 221.291 181.635C205.727 183.443 190.264 186.115 174.751 188.378C170.881 188.941 168.467 190.928 167.431 194.805C166.327 198.933 164.94 202.986 163.693 207.076C158.564 223.893 154.577 241.003 150.72 258.145C150.012 261.293 149.195 264.416 148.378 267.755V267.752ZM40.0345 257.227C29.017 252.946 17.9867 250.674 6.87553 248.395C6.82448 248.745 6.73725 249.033 6.74364 249.321C6.94786 256.862 7.01381 264.41 7.42439 271.94C7.73073 277.582 9.02841 283.052 12.0939 287.912C17.7739 296.92 22.7966 298.973 32.4845 297.157C38.1114 296.102 43.2447 293.769 48.2695 291.17C64.4926 282.775 80.6881 274.327 96.8921 265.895C97.3495 265.656 97.7835 265.37 98.1579 265.146C93.0076 259.343 92.7672 252.327 92.7991 245.234C89.4911 246.032 86.3383 246.736 83.2175 247.558C72.0383 250.508 60.8676 253.496 49.6948 256.476C42.9171 258.284 36.1032 259.968 29.3871 261.989C27.0789 262.683 25.0261 264.231 22.4179 265.62C27.4236 260.602 33.6354 259.229 40.0324 257.227H40.0345ZM166.707 269.607C166.195 278.45 166.435 287.048 167.563 295.616C167.916 298.301 168.969 299.012 171.558 298.22C176.785 296.619 180.565 293.063 183.747 288.798C184.258 288.113 184.475 287.148 184.649 286.277C185.862 280.265 187.03 274.245 188.2 268.224C188.251 267.962 188.206 267.68 188.206 267.225C180.993 268.023 173.913 268.807 166.703 269.605L166.707 269.607ZM94.1202 134.608C93.3969 137.996 92.9948 141.076 92.0481 143.979C91.0121 147.155 91.5078 149.656 93.2799 152.525C95.9539 156.854 97.9366 161.609 100.262 166.16C100.787 167.189 101.511 168.117 102.017 168.896C106.844 163.187 111.53 157.641 116.532 151.725C115.015 150.54 113.371 149.014 111.505 147.842C105.391 144.006 99.313 140.141 94.1202 134.61V134.608ZM117.43 259.18C121.11 260.463 125.594 261.97 130.036 263.592C135.625 265.631 141.196 267.686 147.421 267.547C147.944 263.317 148.465 259.108 148.982 254.941C147.285 254.354 145.849 253.859 144.321 253.332C145.089 258.89 143.011 260.563 137.895 258.613C135.886 257.846 134.002 256.756 132.038 255.861C130.043 254.954 128.051 254.785 125.95 255.712C122.903 257.052 119.784 258.231 117.43 259.18ZM77.7396 24.5806C76.8376 24.4952 76.1058 24.1921 75.7271 24.4376C74.9932 24.9157 74.2869 25.6073 73.8721 26.3757C72.1574 29.5411 70.5258 32.7535 68.9302 35.9829C68.2942 37.2721 67.7538 38.6254 67.3411 40.0021C67.2199 40.4077 67.6794 40.9904 67.873 41.492C68.2644 41.2081 68.809 41.0075 69.0175 40.6233C69.477 39.7823 69.7684 38.8517 70.1237 37.9552C71.8532 33.5881 73.4147 29.127 76.9312 25.7631C77.1354 25.5667 77.2609 25.285 77.7353 24.5784L77.7396 24.5806ZM140.675 34.8196C139.058 32.1665 137.563 29.4408 135.78 26.9221C135.023 25.8506 133.714 25.1227 132.544 24.4269C132.174 24.207 131.442 24.5934 130.876 24.7044C131.151 25.1526 131.317 25.7908 131.715 26.0149C133.944 27.2764 135.497 29.1291 136.629 31.3746C137.303 32.7108 137.863 34.1067 138.573 35.4194C138.746 35.7353 139.32 35.9957 139.696 35.9787C139.952 35.968 140.186 35.428 140.673 34.8196H140.675ZM147.64 29.7951C147.504 29.4813 147.44 29.2401 147.308 29.048C145.211 25.9744 142.739 23.3063 139.177 21.9445C138.726 21.7716 138.08 22.1174 137.524 22.222C137.837 22.7044 138.05 23.3148 138.477 23.6457C140.169 24.952 141.994 26.0897 143.636 27.4536C144.494 28.1644 145.025 29.2572 145.796 30.0918C146.064 30.3821 146.61 30.5229 147.027 30.5187C147.238 30.5187 147.444 30.0427 147.642 29.7951H147.64ZM72.1872 107.968C71.2342 105.799 70.3513 103.708 69.3642 101.667C69.2515 101.437 68.509 101.36 68.1346 101.471C67.941 101.526 67.7347 102.22 67.841 102.51C68.5686 104.474 69.343 106.425 70.1939 108.337C70.33 108.64 70.9385 108.886 71.3193 108.873C71.5809 108.864 71.8256 108.367 72.1851 107.97L72.1872 107.968ZM5.74591 251.955C5.87355 250.57 5.97992 249.394 6.08629 248.245C4.80562 247.75 1.86988 248.459 2.11027 248.956C2.57404 249.915 3.54623 250.645 4.36952 251.4C4.65033 251.658 5.11622 251.712 5.74591 251.955Z" fill="#1E1E1E"/>
<path d="M111.475 268.162C111.29 268.935 111.237 269.772 110.899 270.467C106.848 278.818 102.434 286.952 96.4539 294.12C96.2986 294.305 96.1689 294.564 95.971 294.647C95.4668 294.856 94.9308 294.982 94.4053 295.142C94.3032 294.553 93.9266 293.819 94.1458 293.398C95.3754 291.057 96.6497 288.728 98.092 286.512C101.536 281.219 105.059 275.977 108.601 270.747C109.29 269.729 110.214 268.869 111.028 267.938C111.177 268.013 111.326 268.088 111.475 268.162Z" fill="black"/>
<path d="M54.8983 168.655C55.9556 172.088 57.1171 175.492 58.051 178.958C60.506 188.073 61.944 197.351 62.1695 206.803C62.1759 207.044 62.278 207.332 62.1802 207.518C61.9121 208.034 61.5611 208.508 61.2442 208.997C60.8676 208.561 60.2443 208.171 60.1571 207.684C59.5784 204.42 59.1296 201.136 58.6105 197.861C57.2192 189.052 55.8109 180.248 54.4175 171.441C54.2813 170.583 54.1941 169.716 54.0835 168.854C54.3537 168.788 54.626 168.721 54.8961 168.657L54.8983 168.655Z" fill="black"/>
<path d="M130.358 113.654C127.037 113.473 124.286 112.186 122.191 109.594C121.233 108.41 121.325 107.223 122.474 106.25C123.612 105.285 124.667 105.62 125.622 106.664C129.026 110.378 132.234 110.438 136.044 106.963C136.759 106.309 137.459 104.726 138.584 105.834C139.067 106.309 138.807 108.038 138.344 108.905C136.663 112.043 133.774 113.362 130.36 113.656L130.358 113.654Z" fill="black"/>
<path d="M70.2876 173.394C70.5024 173.767 70.7726 174.12 70.9236 174.517C73.7828 182.066 74.6593 189.802 73.0361 197.763C73.0127 197.88 73.0276 198.03 72.9616 198.113C72.5808 198.591 72.1788 199.052 71.7852 199.52C71.4108 198.986 70.7407 198.472 70.7088 197.917C70.4577 193.708 70.3301 189.49 70.1663 185.274C70.0472 182.203 69.9238 179.133 69.8174 176.062C69.7876 175.202 69.8132 174.342 69.8132 173.481L70.2876 173.392V173.394Z" fill="black"/>
<path d="M131.668 98.4845C130.206 98.4504 128.041 97.3191 126.052 95.8143C125.088 95.0843 124.979 94.079 125.747 93.1249C126.481 92.2156 127.317 92.2946 128.281 92.92C129.577 93.7631 130.891 94.7172 132.338 95.1377C133.246 95.4002 134.848 95.1099 135.352 94.4568C135.991 93.6308 136.216 92.0619 135.903 91.0352C135.569 89.936 134.374 89.1121 133.608 88.1281C133.246 87.6628 133.008 87.1014 132.712 86.5827C133.361 86.4461 134.061 86.0811 134.65 86.2113C137.727 86.8965 139.554 89.7738 139.126 93.063C138.707 96.2967 136.084 98.5464 131.668 98.4845Z" fill="black"/>
<path d="M102.159 72.8389C102.408 72.2754 102.557 71.6329 102.923 71.1633C106.259 66.9072 110.586 64.4952 116.028 64.2839C116.653 64.2604 117.451 64.3671 117.885 64.7428C118.408 65.1975 118.955 66.0363 118.891 66.6489C118.829 67.2487 118.093 67.8783 117.508 68.2882C117.11 68.5678 116.462 68.5849 115.934 68.5571C111.335 68.3159 107.337 69.936 103.629 72.4888C103.298 72.7172 102.932 72.8944 102.581 73.095C102.44 73.0096 102.3 72.9264 102.159 72.841V72.8389Z" fill="black"/>
<path d="M122.51 239.02C124.29 238.45 126.037 237.712 127.858 237.345C131.496 236.613 135.159 235.957 138.841 235.501C143.379 234.937 148.389 237.62 151.129 241.953C150.686 242.026 150.27 242.233 150.001 242.111C148.917 241.618 147.687 241.223 146.851 240.433C143.564 237.326 139.677 237.161 135.574 237.801C131.728 238.401 127.883 239.025 124.037 239.626C123.595 239.695 123.142 239.693 122.695 239.723C122.633 239.49 122.571 239.255 122.51 239.022V239.02Z" fill="black"/>
<path d="M135.882 65.4002C135.884 64.0683 136.88 63.0245 138.233 63.2935C141.937 64.0256 145.574 64.9968 148.457 67.6841C148.719 67.9295 149.038 68.1707 149.172 68.4845C149.501 69.2551 149.738 70.064 150.01 70.8559C149.233 70.7385 148.431 70.715 147.687 70.4888C144.5 69.5219 141.339 68.4717 138.152 67.5069C137.014 67.1611 135.957 66.8346 135.882 65.4023V65.4002Z" fill="black"/>
<path d="M109.49 79.8335C109.614 78.7599 109.707 77.5624 109.901 76.3799C110.15 74.8517 111.15 74.111 112.647 74.0598C114.192 74.0085 114.945 75.0672 114.826 76.3479C114.636 78.397 114.207 80.4504 113.592 82.412C113.398 83.0331 112.118 83.8719 111.632 83.7118C110.839 83.4493 110.177 82.5165 109.677 81.7289C109.395 81.2828 109.548 80.5614 109.494 79.8356L109.49 79.8335Z" fill="black"/>
<path d="M75.7782 80.2881C78.6182 78.2156 82.1985 78.8709 84.0004 81.9018C84.9386 83.477 84.6492 85.3404 83.3303 86.2412C82.0156 87.1377 80.2605 86.6382 79.1479 85.0544C78.0587 83.5048 76.961 81.9594 75.7803 80.286L75.7782 80.2881Z" fill="black"/>
<path d="M145.983 77.8911C145.613 79.1419 145.398 80.4674 144.838 81.6243C144.049 83.2529 142.06 83.3468 141.069 81.8549C139.969 80.2006 139.369 78.3543 140.335 76.4504C140.981 75.1782 141.822 73.8677 143.602 74.175C145.026 74.4205 145.891 75.9338 145.983 77.8933V77.8911Z" fill="black"/>
<path d="M126.588 245.118C131.223 244.222 135.842 243.236 140.499 242.474C142.386 242.164 143.883 243.274 145.277 244.559C146.434 245.629 147.853 246.41 149.144 247.338C149.406 247.526 149.608 247.797 149.836 248.03C149.542 248.288 149.168 248.82 148.965 248.76C147.798 248.423 146.23 248.28 145.604 247.456C142.786 243.746 139.209 243.883 135.229 244.677C132.423 245.236 129.532 245.362 126.677 245.68C126.647 245.492 126.618 245.306 126.588 245.118Z" fill="black"/>
<path d="M111.605 166.453C112.292 167.626 112.996 168.792 113.662 169.977C114.6 171.648 115.966 172.668 117.853 173.104C118.819 173.326 119.819 173.71 120.612 174.286C121.565 174.978 121.927 175.987 121.163 176.82C119.117 175.895 117.159 175.142 115.343 174.132C114.521 173.676 113.802 172.805 113.351 171.955C112.449 170.256 111.767 168.442 110.992 166.677C111.196 166.602 111.401 166.527 111.603 166.453H111.605Z" fill="black"/>
<path d="M216.177 217.249C216.143 217.069 216.068 216.905 216.041 216.85C216 216.766 215.96 216.692 215.915 216.613C215.605 216.081 215.241 215.622 214.798 215.204C214.686 215.097 214.562 214.995 214.435 214.896C214.356 214.837 214.281 214.783 214.205 214.73L214.103 214.66C213.905 214.514 213.698 214.382 213.501 214.254L213.42 214.203C212.511 213.629 211.59 213.21 210.678 212.952C210.712 212.884 210.75 212.82 210.784 212.76C210.839 212.668 210.882 212.608 210.886 212.602L210.956 212.504L211.035 212.094C211.058 211.983 211.084 211.872 211.071 211.757C211.071 211.52 211.001 211.311 210.871 211.142C210.663 210.875 210.327 210.764 209.952 210.839C209.727 210.871 209.527 210.956 209.429 211.003C209.34 211.046 209.267 211.089 209.223 211.116C209.146 211.165 209.082 211.227 209.027 211.302C208.997 211.345 208.937 211.432 208.861 211.554C208.74 211.75 208.614 211.989 208.516 212.205C208.455 212.344 208.404 212.474 208.361 212.589C207.957 212.572 207.529 212.57 207.059 212.585L206.823 212.596C206.638 212.604 206.453 212.613 206.272 212.628L205.874 212.655C205.729 212.668 205.583 212.687 205.419 212.715C204.861 212.813 204.325 212.958 203.785 213.155C203.474 213.268 203.217 213.381 202.972 213.507C202.698 213.652 202.407 213.823 202.126 214.09C201.858 214.348 201.651 214.668 201.496 215.072C201.371 215.402 201.307 215.72 201.26 215.987C201.241 216.096 201.224 216.203 201.209 216.307L201.149 216.726C201.109 217.185 201.234 217.635 201.505 217.998L201.534 218.034C201.639 218.152 201.787 218.22 201.841 218.235C201.887 218.252 201.934 218.265 201.981 218.273C202.002 218.282 202.026 218.292 202.051 218.303C202.081 218.316 202.115 218.331 202.149 218.346C201.59 219.795 201.494 221.394 201.853 223.212C202.173 224.826 202.987 226.427 204.204 227.842C205.281 229.093 206.553 230.088 207.765 230.975C207.884 231.063 208.025 231.106 208.165 231.106C208.323 231.106 208.478 231.052 208.606 230.943C208.703 230.86 208.818 230.771 208.948 230.675C210.282 229.686 211.348 228.455 212.38 227.261C212.431 227.202 212.484 227.144 212.537 227.086C213.488 226.079 214.045 224.864 214.105 223.665C214.115 223.443 214.209 222.995 214.307 222.521C214.486 221.665 214.615 220.978 214.635 220.45C214.7 220.457 214.764 220.459 214.824 220.455C215.051 220.442 215.266 220.365 215.437 220.235C215.607 220.107 215.736 219.936 215.817 219.733C215.853 219.65 215.873 219.571 215.888 219.509L215.975 219.136C216.002 219.003 216.03 218.871 216.056 218.734C216.113 218.429 216.153 218.179 216.187 217.912C216.209 217.716 216.224 217.498 216.173 217.242L216.177 217.249ZM213.373 217.989C212.831 217.705 212.301 217.488 211.801 217.343C210.676 217.01 209.529 216.924 208.557 216.884C208.18 216.869 207.804 216.86 207.431 216.852L205.54 216.807H205.523H205.495C205.436 216.807 204.04 216.86 203.517 216.89C203.383 216.899 203.253 216.884 203.136 216.85C203.106 216.841 203.068 216.826 203.03 216.811L203.062 216.604C203.077 216.504 203.092 216.403 203.109 216.303C203.181 215.861 203.287 215.571 203.432 215.439C203.479 215.394 203.591 215.3 203.842 215.17C204.008 215.082 204.2 214.999 204.434 214.916C204.855 214.76 205.31 214.638 205.742 214.561C205.846 214.544 205.949 214.529 206.036 214.521L206.414 214.493C206.578 214.48 206.742 214.472 206.906 214.465L207.136 214.455C207.661 214.44 208.129 214.446 208.561 214.474C209.035 214.512 209.493 214.583 209.92 214.685C210.741 214.884 211.586 215.253 212.424 215.782L212.516 215.842C212.692 215.955 212.858 216.064 213.02 216.181L213.139 216.265C213.196 216.305 213.256 216.346 213.309 216.388C213.386 216.446 213.458 216.508 213.528 216.574C213.822 216.85 214.096 217.195 214.303 217.55C214.32 217.58 214.337 217.609 214.347 217.633C214.347 217.648 214.345 217.669 214.341 217.699C214.313 217.91 214.275 218.152 214.228 218.395C214.228 218.397 214.228 218.401 214.228 218.403C213.977 218.297 213.716 218.164 213.441 218.023L213.377 217.991L213.373 217.989Z" fill="#D7F367"/>
</g>
<defs>
<clipPath id="clip0_177_1279">
<rect width="261" height="310" fill="white"/>
</clipPath>
</defs>
</svg>
