<svg width="400" height="287" viewBox="0 0 400 287" fill="none" xmlns="http://www.w3.org/2000/svg">
<path fill-rule="evenodd" clip-rule="evenodd" d="M0 0H200H400V199V200V286H200H0V0Z" fill="#353535"/>
<path d="M322.02 166.06C322.482 166.262 322.82 166.568 322.993 167.01C323.175 167.431 323.165 167.872 322.963 168.334C322.761 168.795 322.443 169.102 322.001 169.274C321.546 169.416 321.082 169.396 320.643 169.204C320.203 169.011 319.897 168.693 319.714 168.273C319.519 167.82 319.539 167.357 319.732 166.918C319.934 166.456 320.251 166.15 320.706 166.009C321.149 165.836 321.581 165.867 322.02 166.06ZM318.861 170.1L321.191 171.121L315.73 183.585C314.786 185.739 313.14 186.328 310.854 185.326L309.776 184.854L310.614 182.942L311.494 183.327C312.373 183.712 313.024 183.421 313.439 182.476L318.861 170.1ZM334.862 171.582C337.236 172.622 338.789 174.22 339.49 176.387C340.164 178.438 339.966 180.683 338.907 183.102C337.876 185.454 336.4 187.087 334.471 188.023C334.705 189.043 334.952 190.094 335.157 191.18L333.021 191.869C332.803 190.751 332.588 189.688 332.354 188.668C330.881 188.861 329.342 188.606 327.715 187.893C325.319 186.843 323.775 185.223 323.086 183.087C322.422 181.015 322.632 178.801 323.673 176.427C324.723 174.031 326.208 172.375 328.182 171.459C330.238 170.473 332.466 170.532 334.862 171.582ZM333.937 173.692C332.266 172.96 330.729 172.941 329.304 173.68C327.953 174.372 326.878 175.63 326.069 177.477C325.269 179.301 325.073 180.945 325.481 182.407C325.922 183.911 326.969 185.05 328.64 185.783C329.739 186.264 330.79 186.436 331.761 186.312C331.404 184.976 331.007 183.728 330.594 182.577L332.576 181.821C333.001 183.003 333.398 184.251 333.785 185.521C334.887 184.799 335.785 183.647 336.488 182.042C337.317 180.152 337.5 178.476 337.093 177.014C336.673 175.52 335.608 174.424 333.937 173.692ZM343.984 181.108L346.314 182.129L343.28 189.053C342.856 190.02 342.746 190.81 342.971 191.433C343.174 192.046 343.728 192.577 344.629 192.972C345.244 193.241 345.91 193.218 346.649 192.966C347.398 192.692 348.07 192.174 348.634 191.425L351.678 184.479L354.008 185.5L349.028 196.865L346.698 195.844L347.373 194.305C345.866 195.112 344.409 195.208 342.98 194.581C340.233 193.378 339.544 191.242 340.883 188.186L343.984 181.108ZM362.939 189.046C364.786 189.855 365.945 191.097 366.353 192.796C366.732 194.324 366.5 196.109 365.636 198.141L357.019 194.365C356.625 195.503 356.535 196.485 356.803 197.31C357.08 198.113 357.671 198.738 358.594 199.143C359.407 199.499 360.153 199.59 360.823 199.438C361.353 199.304 361.904 198.943 362.501 198.418L364.831 199.439C364.105 200.379 363.205 201.058 362.105 201.415C360.74 201.839 359.295 201.73 357.778 201.065C356.107 200.333 354.997 199.218 354.483 197.761C353.909 196.2 354.027 194.496 354.846 192.627C355.587 190.934 356.687 189.739 358.199 189.039C359.677 188.298 361.268 188.314 362.939 189.046ZM362.167 190.987C361.288 190.602 360.5 190.545 359.742 190.842C359.037 191.136 358.389 191.716 357.833 192.626L363.966 195.313C364.613 193.238 364.014 191.797 362.167 190.987ZM377.128 195.263C377.699 195.513 378.166 195.823 378.475 196.194L377.454 198.524C376.96 198.098 376.439 197.791 375.912 197.56C375.208 197.252 374.446 197.258 373.646 197.589C372.782 197.944 372.14 198.633 371.707 199.622L369.068 205.645L366.738 204.624L371.717 193.259L374.047 194.28L373.296 195.995C373.852 195.504 374.427 195.206 375.002 195.091C375.722 194.883 376.424 194.955 377.128 195.263ZM380.006 196.891L382.534 197.999L382.024 207.654L388.645 200.676L391.195 201.793L378.131 214.804L375.647 213.716L379.648 209.967L380.006 196.891Z" fill="white"/>
<path d="M324.12 36.528C326.112 36.528 327.768 37.032 329.064 38.088C330.312 39.096 331.08 40.488 331.344 42.216H328.8C328.512 41.064 327.96 40.2 327.144 39.648C326.328 39.096 325.32 38.832 324.072 38.832C322.224 38.832 320.832 39.456 319.896 40.728C319.008 41.88 318.576 43.464 318.576 45.456C318.576 47.52 319.008 49.104 319.872 50.232C320.784 51.432 322.2 52.032 324.12 52.032C325.368 52.032 326.424 51.72 327.24 51.096C328.104 50.424 328.704 49.416 329.04 48.072H331.584C331.2 50.064 330.312 51.624 328.896 52.752C327.576 53.808 325.992 54.336 324.144 54.336C321.336 54.336 319.224 53.424 317.808 51.648C316.56 50.112 315.96 48.048 315.96 45.456C315.96 42.912 316.584 40.848 317.88 39.24C319.32 37.416 321.384 36.528 324.12 36.528ZM341.675 36.528C343.667 36.528 345.227 36.936 346.355 37.8C347.555 38.688 348.227 40.056 348.395 41.928H345.803C345.563 40.824 345.131 40.008 344.459 39.528C343.787 39.024 342.827 38.784 341.531 38.784C340.403 38.784 339.539 38.952 338.939 39.288C338.195 39.672 337.835 40.296 337.835 41.16C337.835 41.928 338.243 42.528 339.107 42.984C339.491 43.2 340.475 43.56 342.083 44.04C344.387 44.76 345.899 45.312 346.571 45.72C348.035 46.608 348.779 47.832 348.779 49.416C348.779 50.952 348.179 52.152 346.979 53.04C345.779 53.904 344.099 54.336 341.939 54.336C339.851 54.336 338.219 53.904 337.043 53.088C335.627 52.08 334.859 50.496 334.715 48.336H337.307C337.499 49.68 337.979 50.664 338.747 51.24C339.443 51.768 340.499 52.032 341.939 52.032C343.235 52.032 344.267 51.792 345.035 51.36C345.803 50.928 346.187 50.328 346.187 49.56C346.187 48.6 345.635 47.856 344.555 47.304C344.171 47.112 343.043 46.728 341.147 46.152C339.035 45.48 337.739 45.024 337.211 44.736C335.891 43.944 335.243 42.792 335.243 41.304C335.243 39.792 335.867 38.616 337.139 37.752C338.339 36.936 339.851 36.528 341.675 36.528ZM358.654 36.528C360.646 36.528 362.206 36.936 363.334 37.8C364.534 38.688 365.206 40.056 365.374 41.928H362.782C362.542 40.824 362.11 40.008 361.438 39.528C360.766 39.024 359.806 38.784 358.51 38.784C357.382 38.784 356.518 38.952 355.918 39.288C355.174 39.672 354.814 40.296 354.814 41.16C354.814 41.928 355.222 42.528 356.086 42.984C356.47 43.2 357.454 43.56 359.062 44.04C361.366 44.76 362.878 45.312 363.55 45.72C365.014 46.608 365.758 47.832 365.758 49.416C365.758 50.952 365.158 52.152 363.958 53.04C362.758 53.904 361.078 54.336 358.918 54.336C356.83 54.336 355.198 53.904 354.022 53.088C352.606 52.08 351.838 50.496 351.694 48.336H354.286C354.478 49.68 354.958 50.664 355.726 51.24C356.422 51.768 357.478 52.032 358.918 52.032C360.214 52.032 361.246 51.792 362.014 51.36C362.782 50.928 363.166 50.328 363.166 49.56C363.166 48.6 362.614 47.856 361.534 47.304C361.15 47.112 360.022 46.728 358.126 46.152C356.014 45.48 354.718 45.024 354.19 44.736C352.87 43.944 352.222 42.792 352.222 41.304C352.222 39.792 352.846 38.616 354.118 37.752C355.318 36.936 356.83 36.528 358.654 36.528Z" fill="white"/>
<path d="M207.92 101.723L210.349 100.752L214.658 111.539C215.371 113.322 215.526 114.811 215.146 115.996C214.673 117.271 213.532 118.295 211.704 119.025C210.122 119.657 208.74 119.692 207.591 119.144C206.388 118.59 205.484 117.556 204.86 115.996L204.647 115.461L207.076 114.491L207.281 115.003C208.038 116.898 209.245 117.527 210.894 116.868C211.83 116.494 212.383 115.937 212.593 115.233C212.781 114.538 212.665 113.602 212.193 112.421L207.92 101.723ZM221.411 101.063C223.105 100.386 224.522 100.311 225.662 100.838C226.647 101.297 227.431 102.225 227.992 103.629L230.93 110.984L228.746 111.856L228.096 110.229C227.882 110.987 227.511 111.677 226.976 112.279C226.361 112.938 225.55 113.495 224.524 113.904C223.321 114.385 222.26 114.447 221.351 114.112C220.375 113.804 219.707 113.167 219.324 112.208C218.808 110.916 218.92 109.708 219.669 108.607C220.338 107.565 221.542 106.696 223.218 105.975L225.776 104.875L225.589 104.407C224.948 102.803 223.759 102.348 222.02 103.042C221.285 103.336 220.736 103.71 220.398 104.155C219.987 104.681 219.84 105.283 219.964 105.982L217.544 106.717C217.291 105.371 217.541 104.185 218.29 103.214C218.923 102.341 219.984 101.633 221.411 101.063ZM226.462 106.592L224.059 107.629C221.915 108.537 221.148 109.722 221.718 111.149C221.896 111.594 222.217 111.88 222.711 112.018C223.184 112.165 223.736 112.126 224.338 111.885C225.341 111.485 226.063 110.834 226.536 109.948C227.009 109.061 227.085 108.152 226.729 107.26L226.462 106.592ZM229.143 98.3361L231.706 97.3122L238.031 104.736L237.501 94.9975L240.064 93.9736L240.387 107.206L238.025 108.149L229.143 98.3361ZM247.918 90.4743C249.612 89.7977 251.029 89.7226 252.17 90.249C253.155 90.7085 253.939 91.6359 254.499 93.04L257.437 100.395L255.253 101.267L254.603 99.6404C254.389 100.398 254.019 101.089 253.484 101.69C252.868 102.349 252.057 102.906 251.032 103.315C249.828 103.796 248.768 103.858 247.859 103.523C246.883 103.216 246.214 102.578 245.832 101.62C245.315 100.327 245.427 99.1191 246.176 98.0187C246.845 96.9761 248.049 96.1076 249.725 95.3864L252.284 94.2868L252.097 93.8188C251.456 92.2141 250.266 91.7589 248.528 92.4534C247.792 92.7472 247.244 93.1213 246.905 93.5668C246.495 94.0925 246.347 94.6941 246.472 95.3938L244.052 96.1281C243.798 94.782 244.048 93.5967 244.797 92.6255C245.431 91.7522 246.492 91.0441 247.918 90.4743ZM252.969 96.003L250.567 97.0403C248.423 97.9484 247.656 99.1336 248.225 100.56C248.403 101.006 248.724 101.291 249.219 101.429C249.691 101.577 250.244 101.537 250.846 101.297C251.849 100.896 252.571 100.246 253.044 99.3589C253.516 98.4722 253.593 97.5631 253.237 96.6716L252.969 96.003ZM260.792 80.2403C262.642 79.5014 264.242 79.3016 265.61 79.6855C267.054 80.065 268.186 81.0861 269.036 82.7622L266.629 83.7237C265.997 82.7875 265.293 82.19 264.491 81.9935C263.68 81.7748 262.699 81.908 261.496 82.3888C260.448 82.8072 259.708 83.2837 259.275 83.8183C258.727 84.4509 258.624 85.1639 258.945 85.9663C259.23 86.6795 259.831 87.0853 260.802 87.1883C261.239 87.2464 262.287 87.2157 263.958 87.065C266.365 86.8789 267.973 86.8306 268.749 86.9602C270.438 87.2418 271.583 88.1025 272.17 89.5735C272.74 90.9999 272.628 92.3368 271.843 93.6066C271.049 94.8541 269.649 95.8785 267.644 96.6798C265.705 97.4543 264.029 97.6586 262.634 97.337C260.945 96.9262 259.644 95.7401 258.709 93.7877L261.116 92.8262C261.793 94.003 262.604 94.7388 263.531 94.9888C264.373 95.2209 265.452 95.0743 266.789 94.5402C267.992 94.0594 268.862 93.4537 269.415 92.7676C269.968 92.0816 270.102 91.3819 269.817 90.6687C269.461 89.7772 268.672 89.2911 267.464 89.1791C267.036 89.1432 265.847 89.2051 263.872 89.3735C261.662 89.5329 260.289 89.5902 259.692 89.5186C258.172 89.2728 257.143 88.4434 256.591 87.0615C256.03 85.6574 256.173 84.3339 257.034 83.0596C257.846 81.8567 259.099 80.9169 260.792 80.2403ZM277.645 78.5995C279.116 78.0119 280.431 77.8744 281.59 78.1869C282.766 78.544 283.773 79.3823 284.565 80.7197L282.225 81.6545C281.758 80.9368 281.214 80.4819 280.581 80.3212C279.94 80.1382 279.222 80.218 278.42 80.5386C277.439 80.9303 276.824 81.5896 276.56 82.5477C276.266 83.4923 276.408 84.6244 276.924 85.9171C277.441 87.2098 278.118 88.1282 278.969 88.6411C279.766 89.1495 280.675 89.2257 281.701 88.8162C283.461 88.1128 284.086 86.8296 283.614 85.0021L285.954 84.0673C286.301 85.712 286.162 87.1113 285.574 88.2252C284.976 89.3168 283.924 90.1765 282.453 90.7641C280.692 91.4674 279.101 91.431 277.657 90.6638C276.254 89.9322 275.216 88.6928 274.504 86.9098C273.809 85.1714 273.708 83.558 274.199 82.0697C274.721 80.4655 275.862 79.3118 277.645 78.5995ZM291.633 73.0119C292.213 72.7804 292.761 72.6648 293.242 72.7051L294.186 75.0676C293.535 75.1208 292.951 75.2765 292.417 75.4901C291.703 75.775 291.173 76.323 290.847 77.125C290.495 77.9895 290.534 78.9298 290.935 79.9328L293.374 86.0396L291.012 86.9833L286.409 75.4606L288.771 74.5169L289.466 76.2553C289.506 75.5155 289.698 74.8961 290.019 74.4061C290.376 73.7466 290.92 73.2968 291.633 73.0119ZM295.867 66.3326C296.335 66.1457 296.79 66.1191 297.227 66.3065C297.654 66.4716 297.962 66.7882 298.149 67.2562C298.336 67.7243 298.309 68.1744 298.121 68.611C297.925 69.0254 297.586 69.3417 297.14 69.5198C296.672 69.7067 296.231 69.7021 295.803 69.537C295.367 69.3496 295.051 69.0107 294.872 68.565C294.686 68.0969 294.69 67.6557 294.886 67.2413C295.074 66.8047 295.399 66.5196 295.867 66.3326ZM296.529 71.418L298.892 70.4743L303.494 81.997L301.132 82.9407L296.529 71.418ZM309.075 66.0448C310.768 65.3681 312.324 65.4446 313.785 66.2564C315.122 67.0147 316.137 68.263 316.85 70.046C317.526 71.7399 317.641 73.3221 317.217 74.7837C316.762 76.3611 315.687 77.4882 314.038 78.147C312.612 78.7168 311.186 78.5111 309.715 77.5478L312.155 83.6546L309.792 84.5983L303.427 68.6627L305.633 67.7813L306.185 69.1631C306.533 67.7059 307.514 66.668 309.075 66.0448ZM309.484 68.104C308.458 68.5135 307.816 69.2352 307.589 70.2824C307.383 71.1915 307.521 72.2478 307.993 73.429L308.073 73.6296C308.562 74.8554 309.253 75.7426 310.18 76.2511C310.99 76.7283 311.846 76.8001 312.738 76.4439C313.897 75.981 314.592 75.2638 314.847 74.2834C315.052 73.3744 314.928 72.2869 314.42 71.0165C313.913 69.7461 313.276 68.8634 312.545 68.3282C311.65 67.7039 310.643 67.641 309.484 68.104ZM320.097 57.6878L321.583 61.4098L324.213 60.3592L324.997 62.3206L322.367 63.3711L325.038 70.0574C325.162 70.3694 325.318 70.5656 325.514 70.6682C325.702 70.7485 325.938 70.7575 326.227 70.6418L327.743 70.0364L328.526 71.9977L326.632 72.7544C325.651 73.1462 324.809 73.1725 324.159 72.8379C323.517 72.5257 323.04 71.9149 322.675 71.0011L320.004 64.3148L317.865 65.1695L317.081 63.2082L319.221 62.3535L318.126 59.6121L320.097 57.6878Z" fill="white"/>
<path d="M212.213 181.942L214.754 181.321L216.47 188.338L225.189 186.206L223.473 179.189L226.014 178.567L230.085 195.213L227.543 195.834L225.719 188.374L217 190.506L218.824 197.966L216.283 198.588L212.213 181.942ZM229.404 177.738L243.042 174.403L243.572 176.571L238.024 177.928L241.564 192.405L239.047 193.021L235.506 178.544L229.934 179.906L229.404 177.738ZM246.451 173.569L249.458 172.834L258.524 184.749L258.594 184.732L261.115 169.983L264.122 169.248L268.193 185.893L265.652 186.515L262.744 174.625L262.651 174.648L260.453 187.786L258.261 188.322L250.248 177.681L250.155 177.704L253.063 189.593L250.522 190.215L246.451 173.569ZM268.795 168.105L271.313 167.489L274.853 181.967L284.015 179.726L284.545 181.894L272.866 184.751L268.795 168.105Z" fill="white"/>
<path d="M335.292 245.944L342.644 247.806C344.319 248.231 345.574 248.945 346.357 249.96C347.168 251.057 347.38 252.373 346.979 253.955C346.755 254.839 346.328 255.548 345.692 256.105C344.968 256.714 344.123 257.02 343.157 257.022L343.145 257.069C344.551 257.772 345.118 258.955 344.892 260.631L344.499 263.354C344.333 264.401 344.452 265.298 344.857 266.044L342.112 265.349C341.846 264.737 341.802 263.933 341.945 262.979L342.26 260.855C342.402 259.901 342.265 259.173 341.883 258.631C341.477 258.082 340.803 257.713 339.849 257.472L335.359 256.334L333.62 263.198L331.084 262.555L335.292 245.944ZM337.28 248.75L335.907 254.171L340.397 255.308C341.514 255.591 342.416 255.547 343.092 255.223C343.745 254.894 344.195 254.29 344.419 253.406C344.655 252.475 344.547 251.73 344.141 251.181C343.695 250.598 342.91 250.176 341.747 249.882L337.28 248.75ZM351.284 249.995L354.146 250.72L354.103 264.475L354.196 264.498L360.87 252.423L363.522 253.095L363.642 266.891L363.735 266.915L370.245 254.798L373.107 255.523L364.106 270.92L361.408 270.237L361.281 256.563L361.188 256.54L354.568 268.504L351.846 267.815L351.284 249.995ZM376.253 256.32L382.302 257.853C384.978 258.53 386.813 259.788 387.826 261.654C388.775 263.38 388.914 265.569 388.248 268.198C387.588 270.803 386.4 272.656 384.709 273.763C382.936 274.898 380.723 275.13 378.048 274.452L372.045 272.932L376.253 256.32ZM378.241 259.126L375.129 271.41L378.131 272.171C380.224 272.701 381.913 272.584 383.143 271.831C384.351 271.073 385.228 269.661 385.759 267.567C386.301 265.427 386.201 263.767 385.518 262.554C384.794 261.306 383.383 260.429 381.289 259.898L378.241 259.126Z" fill="white"/>
<path d="M198.856 259.305L201.597 258.591L209.894 271.111L209.964 271.093L211.072 256.121L213.812 255.407L212.189 273.538L209.123 274.337L198.856 259.305ZM218.404 253.962C218.891 253.835 219.346 253.865 219.756 254.106C220.159 254.323 220.425 254.675 220.552 255.163C220.679 255.651 220.596 256.094 220.356 256.504C220.109 256.891 219.734 257.162 219.269 257.283C218.782 257.41 218.344 257.351 217.941 257.134C217.531 256.893 217.259 256.517 217.138 256.053C217.011 255.565 217.071 255.128 217.317 254.741C217.557 254.332 217.916 254.089 218.404 253.962ZM218.426 259.09L220.888 258.449L224.017 270.456L221.555 271.097L218.426 259.09ZM232.975 250.065L235.437 249.423L239.844 266.331L237.545 266.93L237.169 265.49C236.636 266.869 235.539 267.8 233.913 268.224C232.148 268.684 230.592 268.42 229.266 267.426C228.034 266.507 227.177 265.118 226.698 263.284C226.238 261.519 226.298 259.94 226.925 258.537C227.573 257.029 228.78 256.045 230.498 255.597C231.962 255.215 233.374 255.591 234.719 256.754L232.975 250.065ZM231.576 257.449C230.369 257.763 229.566 258.394 229.203 259.382C228.874 260.212 228.885 261.3 229.23 262.624C229.575 263.948 230.073 264.909 230.755 265.525C231.536 266.239 232.557 266.444 233.765 266.129C234.833 265.851 235.531 265.198 235.917 264.204C236.228 263.305 236.229 262.263 235.914 261.055L235.86 260.846C235.521 259.546 234.923 258.585 234.114 257.953C233.316 257.367 232.482 257.213 231.576 257.449ZM245.888 251.586C247.839 251.077 249.518 251.334 250.891 252.415C252.135 253.38 253.058 254.925 253.638 257.056L244.534 259.429C244.93 260.566 245.468 261.393 246.189 261.874C246.904 262.333 247.755 262.458 248.73 262.204C249.589 261.98 250.232 261.59 250.663 261.055C250.996 260.621 251.205 259.996 251.349 259.215L253.811 258.573C253.822 259.761 253.536 260.852 252.894 261.813C252.085 262.991 250.882 263.801 249.28 264.219C247.515 264.679 245.953 264.49 244.647 263.665C243.229 262.795 242.266 261.384 241.752 259.41C241.286 257.621 241.409 256.002 242.163 254.516C242.864 253.019 244.123 252.046 245.888 251.586ZM246.484 253.588C245.555 253.83 244.902 254.273 244.49 254.976C244.118 255.643 243.97 256.5 244.097 257.558L250.576 255.87C249.799 253.84 248.435 253.079 246.484 253.588ZM260.832 247.691C262.643 247.219 264.264 247.441 265.67 248.364C267.047 249.27 267.998 250.635 268.476 252.469C268.948 254.281 268.807 255.93 268.042 257.369C267.242 258.867 265.942 259.876 264.131 260.348C262.319 260.82 260.693 260.574 259.263 259.657C257.892 258.774 256.965 257.404 256.492 255.593C256.014 253.758 256.155 252.109 256.938 250.64C257.715 249.148 259.02 248.163 260.832 247.691ZM261.358 249.711C260.22 250.008 259.453 250.679 259.062 251.748C258.704 252.66 258.709 253.725 259.024 254.933C259.339 256.14 259.848 257.049 260.605 257.67C261.462 258.39 262.466 258.624 263.604 258.327C264.742 258.031 265.503 257.336 265.924 256.284C266.275 255.349 266.3 254.301 265.991 253.117C265.676 251.909 265.137 250.983 264.38 250.362C263.494 249.626 262.496 249.415 261.358 249.711ZM278.807 238.467L290.721 235.362L291.284 237.522L281.901 239.967L283.16 244.798L291.986 242.498L292.549 244.657L283.723 246.958L285.097 252.229L294.875 249.681L295.438 251.841L283.129 255.049L278.807 238.467ZM303.401 231.71L305.863 231.068L310.269 247.975L307.97 248.575L307.595 247.135C307.061 248.514 305.965 249.445 304.339 249.868C302.574 250.328 301.017 250.064 299.692 249.071C298.46 248.152 297.602 246.763 297.124 244.928C296.664 243.163 296.724 241.585 297.35 240.182C297.999 238.673 299.205 237.689 300.924 237.241C302.387 236.86 303.8 237.236 305.144 238.398L303.401 231.71ZM302.002 239.093C300.794 239.408 299.991 240.039 299.629 241.026C299.299 241.856 299.31 242.945 299.655 244.269C300 245.592 300.499 246.554 301.18 247.17C301.962 247.884 302.982 248.089 304.19 247.774C305.258 247.496 305.956 246.843 306.342 245.849C306.653 244.95 306.654 243.908 306.34 242.7L306.285 242.491C305.946 241.19 305.349 240.23 304.539 239.598C303.742 239.012 302.908 238.857 302.002 239.093ZM311.801 229.62C312.289 229.493 312.743 229.523 313.153 229.763C313.557 229.981 313.822 230.333 313.949 230.821C314.077 231.308 313.994 231.752 313.753 232.162C313.507 232.548 313.131 232.82 312.667 232.941C312.179 233.068 311.742 233.008 311.338 232.791C310.928 232.551 310.656 232.175 310.535 231.71C310.408 231.223 310.468 230.786 310.714 230.399C310.955 229.989 311.313 229.747 311.801 229.62ZM311.823 234.748L314.285 234.106L317.414 246.113L314.953 246.755L311.823 234.748ZM321.646 228.046L322.657 231.924L325.397 231.21L325.93 233.254L323.189 233.968L325.005 240.935C325.09 241.26 325.22 241.474 325.402 241.601C325.578 241.704 325.811 241.742 326.113 241.663L327.692 241.252L328.225 243.296L326.251 243.81C325.229 244.076 324.39 243.997 323.786 243.584C323.188 243.195 322.792 242.529 322.544 241.577L320.728 234.61L318.498 235.191L317.966 233.147L320.195 232.566L319.451 229.709L321.646 228.046ZM334.216 228.564C336.027 228.092 337.648 228.315 339.054 229.238C340.431 230.144 341.382 231.508 341.86 233.343C342.332 235.154 342.191 236.803 341.426 238.243C340.626 239.741 339.326 240.749 337.514 241.222C335.703 241.694 334.076 241.448 332.647 240.531C331.276 239.648 330.348 238.278 329.876 236.466C329.398 234.632 329.539 232.983 330.322 231.514C331.098 230.022 332.404 229.037 334.216 228.564ZM334.742 230.585C333.604 230.882 332.837 231.553 332.446 232.622C332.088 233.534 332.093 234.599 332.408 235.807C332.722 237.014 333.232 237.923 333.989 238.544C334.846 239.263 335.85 239.498 336.988 239.201C338.126 238.905 338.887 238.21 339.308 237.158C339.659 236.223 339.684 235.175 339.375 233.991C339.06 232.783 338.521 231.857 337.764 231.236C336.878 230.5 335.88 230.288 334.742 230.585ZM349.513 224.577C350.117 224.42 350.675 224.374 351.148 224.474L351.789 226.936C351.137 226.907 350.538 226.989 349.981 227.134C349.238 227.328 348.643 227.805 348.22 228.56C347.762 229.374 347.684 230.312 347.956 231.357L349.615 237.721L347.153 238.362L344.024 226.355L346.486 225.714L346.958 227.525C347.09 226.796 347.358 226.206 347.738 225.759C348.174 225.15 348.77 224.771 349.513 224.577Z" fill="white"/>
<path d="M241.735 118.364C243.45 118.58 244.756 119.155 245.699 120.12C246.595 121.079 246.975 122.288 246.793 123.741C246.559 125.598 245.448 126.741 243.513 127.126C244.474 127.562 245.176 128.134 245.622 128.819C246.113 129.533 246.294 130.403 246.168 131.403C245.971 132.974 245.262 134.192 244.065 135.057C242.796 135.914 241.23 136.249 239.42 136.022C237.682 135.803 236.334 135.174 235.397 134.161C234.332 133.012 233.847 131.475 233.944 129.552L236.563 129.881C236.467 131.03 236.714 131.956 237.35 132.665C237.898 133.315 238.671 133.702 239.671 133.828C240.767 133.965 241.69 133.743 242.434 133.207C243.078 132.708 243.474 132.056 243.582 131.199C243.707 130.199 243.491 129.421 242.931 128.867C242.42 128.319 241.592 127.974 240.473 127.833L239.235 127.677L239.48 125.725L240.695 125.877C241.742 126.009 242.558 125.87 243.139 125.483C243.72 125.096 244.089 124.465 244.197 123.608C244.305 122.751 244.123 122.075 243.704 121.563C243.24 121.021 242.481 120.708 241.481 120.582C240.457 120.453 239.614 120.614 238.977 121.066C238.34 121.518 237.884 122.259 237.657 123.294L235.109 122.974C235.464 121.302 236.248 120.07 237.487 119.258C238.654 118.437 240.068 118.155 241.735 118.364ZM251.757 119.962L257.948 120.74C260.687 121.084 262.663 122.107 263.897 123.834C265.051 125.43 265.457 127.586 265.119 130.277C264.784 132.944 263.833 134.929 262.291 136.234C260.67 137.579 258.503 138.081 255.764 137.736L249.621 136.965L251.757 119.962ZM254.074 122.503L252.495 135.076L255.566 135.462C257.71 135.731 259.371 135.408 260.5 134.51C261.605 133.608 262.302 132.1 262.571 129.956C262.847 127.766 262.544 126.131 261.717 125.011C260.846 123.862 259.337 123.164 257.194 122.895L254.074 122.503ZM279.613 123.462L285.805 124.24C288.543 124.584 290.519 125.607 291.753 127.334C292.907 128.93 293.314 131.086 292.976 133.777C292.641 136.444 291.69 138.429 290.147 139.734C288.527 141.079 286.359 141.581 283.621 141.237L277.477 140.465L279.613 123.462ZM281.931 126.003L280.351 138.576L283.423 138.962C285.566 139.231 287.227 138.908 288.356 138.01C289.461 137.108 290.158 135.6 290.428 133.456C290.703 131.266 290.4 129.631 289.573 128.511C288.702 127.362 287.193 126.664 285.05 126.395L281.931 126.003ZM302.54 130.769C304.541 131.021 306.005 131.882 306.879 133.395C307.676 134.753 307.96 136.53 307.709 138.724L298.374 137.551C298.32 138.754 298.513 139.721 299.004 140.436C299.497 141.127 300.241 141.559 301.241 141.685C302.122 141.795 302.864 141.671 303.462 141.335C303.933 141.055 304.359 140.553 304.782 139.88L307.306 140.197C306.877 141.304 306.206 142.212 305.253 142.866C304.065 143.66 302.648 143.966 301.005 143.759C299.195 143.532 297.814 142.778 296.907 141.527C295.914 140.193 295.543 138.526 295.797 136.502C296.027 134.668 296.743 133.21 297.994 132.109C299.2 130.979 300.73 130.542 302.54 130.769ZM302.351 132.85C301.399 132.731 300.628 132.9 299.984 133.399C299.392 133.881 298.936 134.622 298.661 135.652L305.305 136.487C305.336 134.314 304.352 133.102 302.351 132.85ZM316.791 132.56C319.982 132.961 321.583 134.468 321.542 137.1L319.089 136.792C318.983 136.101 318.754 135.613 318.382 135.3C317.989 134.96 317.34 134.734 316.483 134.626C315.721 134.53 315.138 134.553 314.727 134.744C314.244 134.925 313.982 135.279 313.922 135.755C313.869 136.184 314.157 136.583 314.785 136.976C315.19 137.221 315.969 137.561 317.169 138.026C318.532 138.536 319.529 139.072 320.142 139.585C321.04 140.326 321.432 141.246 321.295 142.342C320.969 144.937 318.97 146.017 315.327 145.559C311.946 145.134 310.318 143.454 310.392 140.561L312.868 140.872C312.906 141.723 313.141 142.357 313.528 142.745C313.918 143.108 314.563 143.359 315.516 143.478C317.469 143.724 318.541 143.278 318.678 142.182C318.753 141.587 318.432 141.063 317.759 140.64C317.402 140.401 316.599 140.059 315.373 139.614C313.962 139.098 312.983 138.613 312.459 138.16C311.581 137.445 311.21 136.551 311.342 135.504C311.482 134.384 312.045 133.56 313.052 133.058C314.061 132.532 315.315 132.375 316.791 132.56ZM328.359 129.345C328.859 129.408 329.27 129.605 329.561 129.98C329.856 130.331 329.971 130.757 329.909 131.257C329.846 131.757 329.604 132.138 329.229 132.43C328.857 132.697 328.407 132.81 327.931 132.75C327.431 132.687 327.047 132.47 326.753 132.118C326.461 131.743 326.348 131.294 326.408 130.817C326.471 130.317 326.689 129.933 327.061 129.666C327.436 129.374 327.859 129.282 328.359 129.345ZM326.477 134.116L329.002 134.433L327.455 146.744L324.931 146.427L326.477 134.116ZM339.009 135.352C340.628 135.555 341.786 136.354 342.523 137.801L342.729 136.158L345.253 136.475L343.808 147.976C343.318 151.882 341.143 153.592 337.333 153.113C335.619 152.898 334.351 152.4 333.527 151.643C332.706 150.863 332.284 149.794 332.216 148.407L334.74 148.724C334.794 149.456 335.013 150.016 335.451 150.385C335.867 150.728 336.585 150.987 337.585 151.113C339.728 151.382 340.946 150.35 341.236 148.04L341.476 146.135C340.4 147.379 339.075 147.914 337.456 147.71C335.789 147.501 334.504 146.759 333.62 145.511C332.713 144.26 332.398 142.721 332.632 140.864C332.865 139.006 333.551 137.593 334.742 136.581C335.913 135.543 337.342 135.142 339.009 135.352ZM339.132 137.447C338.061 137.313 337.183 137.565 336.515 138.255C335.806 138.892 335.392 139.88 335.227 141.19C335.078 142.38 335.196 143.363 335.586 144.113C336.032 144.992 336.859 145.531 338.097 145.687C339.169 145.821 340.047 145.569 340.756 144.932C341.42 144.266 341.856 143.305 342.014 142.042C342.176 140.757 341.995 139.694 341.516 138.884C340.993 138.044 340.204 137.582 339.132 137.447ZM355.812 137.463C358.86 137.846 360.198 139.707 359.773 143.089L358.819 150.685L356.295 150.368L357.222 142.986C357.486 140.89 356.641 139.72 354.736 139.48C354.022 139.391 353.349 139.548 352.759 140.006C352.116 140.506 351.66 141.247 351.439 142.235L350.508 149.641L347.984 149.324L349.531 137.012L352.055 137.33L351.864 138.854C352.418 138.294 353.022 137.911 353.68 137.679C354.341 137.423 355.05 137.367 355.812 137.463Z" fill="white"/>
<path d="M350.719 94.0494C352.707 94.1674 354.33 94.7685 355.562 95.8994C356.748 96.9795 357.432 98.4145 357.593 100.155L355.054 100.005C354.834 98.8375 354.334 97.9423 353.553 97.343C352.771 96.7436 351.78 96.4204 350.534 96.3465C348.689 96.2371 347.263 96.7777 346.253 97.992C345.299 99.0894 344.774 100.645 344.656 102.634C344.534 104.694 344.871 106.301 345.667 107.478C346.506 108.73 347.884 109.413 349.801 109.526C351.047 109.6 352.119 109.351 352.971 108.777C353.873 108.157 354.532 107.186 354.947 105.864L357.486 106.015C356.985 107.981 356.006 109.486 354.526 110.528C353.146 111.504 351.533 111.937 349.688 111.828C346.885 111.661 344.831 110.626 343.523 108.769C342.368 107.162 341.891 105.066 342.044 102.479C342.195 99.9392 342.94 97.9157 344.329 96.3873C345.874 94.6517 347.987 93.8875 350.719 94.0494ZM362.281 95.0717L364.868 95.2252L363.854 112.331L361.267 112.178L362.281 95.0717ZM375.716 95.5319C377.705 95.6498 379.238 96.1494 380.313 97.0787C381.458 98.0362 382.048 99.4416 382.105 101.32L379.517 101.167C379.343 100.051 378.96 99.2104 378.318 98.6914C377.677 98.1485 376.733 97.8521 375.439 97.7754C374.313 97.7086 373.44 97.8252 372.822 98.1251C372.056 98.4643 371.66 99.0659 371.609 99.9284C371.563 100.695 371.935 101.318 372.771 101.825C373.141 102.063 374.102 102.481 375.679 103.055C377.936 103.91 379.413 104.551 380.059 104.998C381.468 105.971 382.139 107.237 382.045 108.818C381.954 110.351 381.284 111.514 380.033 112.329C378.784 113.12 377.082 113.452 374.926 113.324C372.841 113.201 371.238 112.673 370.112 111.789C368.758 110.699 368.085 109.072 368.069 106.907L370.657 107.061C370.769 108.414 371.19 109.424 371.922 110.045C372.586 110.613 373.624 110.939 375.062 111.024C376.356 111.101 377.4 110.923 378.192 110.537C378.984 110.151 379.403 109.575 379.449 108.808C379.506 107.85 378.999 107.074 377.953 106.459C377.581 106.245 376.478 105.795 374.619 105.108C372.551 104.312 371.284 103.78 370.774 103.461C369.503 102.592 368.925 101.404 369.013 99.9187C369.102 98.4094 369.795 97.2724 371.116 96.4852C372.362 95.7417 373.895 95.4239 375.716 95.5319Z" fill="white"/>
<path d="M218.231 34.9821L220.831 35.2659L219.675 45.859C219.509 47.386 219.72 48.5437 220.355 49.3615C220.991 50.1792 222.07 50.6833 223.621 50.8525C225.148 51.0191 226.311 50.7597 227.107 50.0982C227.88 49.4341 228.36 48.3518 228.527 46.8248L229.683 36.2317L232.283 36.5155L231.133 47.0609C230.891 49.2797 230.085 50.906 228.741 51.9423C227.399 52.9547 225.616 53.3637 223.374 53.119C221.107 52.8717 219.452 52.1117 218.384 50.8363C217.273 49.508 216.838 47.7464 217.08 45.5275L218.231 34.9821ZM237.091 37.0401L239.668 37.3212L237.809 54.3561L235.232 54.075L237.091 37.0401ZM252.134 36.1224L254.329 36.3619L243.608 57.4031L241.389 57.161L252.134 36.1224ZM257.847 39.3048L260.447 39.5886L259.291 50.1817C259.125 51.7086 259.337 52.8664 259.972 53.6841C260.607 54.5019 261.686 55.0059 263.237 55.1752C264.764 55.3418 265.927 55.0824 266.724 54.4209C267.496 53.7568 267.976 52.6745 268.143 51.1475L269.299 40.5544L271.899 40.8382L270.749 51.3836C270.507 53.6024 269.701 55.2287 268.357 56.265C267.015 57.2774 265.233 57.6864 262.99 57.4417C260.723 57.1944 259.068 56.4344 258 55.159C256.89 53.8307 256.454 52.0691 256.696 49.8502L257.847 39.3048ZM275.514 41.2326L278.687 41.5788L282.167 48.1873L286.99 42.4848L290.163 42.831L283.491 50.4322L288.71 59.9102L285.537 59.5639L281.717 52.3148L276.423 58.5695L273.25 58.2232L280.342 50.0885L275.514 41.2326Z" fill="white"/>
<path d="M98.533 252.45C100.457 251.935 102.187 251.993 103.712 252.678C105.179 253.329 106.28 254.475 106.982 256.076L104.525 256.734C103.949 255.696 103.192 255.004 102.261 254.682C101.33 254.36 100.288 254.365 99.0826 254.688C97.2975 255.166 96.1143 256.129 95.5392 257.6C94.9794 258.942 94.9719 260.584 95.4872 262.508C96.0211 264.502 96.8481 265.92 97.9745 266.787C99.1659 267.71 100.689 267.923 102.544 267.426C103.749 267.104 104.688 266.529 105.315 265.715C105.976 264.843 106.295 263.714 106.272 262.329L108.729 261.67C108.873 263.694 108.419 265.431 107.343 266.886C106.341 268.248 104.948 269.168 103.163 269.646C100.45 270.372 98.1743 270.038 96.3471 268.688C94.7442 267.527 93.6307 265.689 92.9602 263.185C92.3021 260.728 92.371 258.573 93.2069 256.684C94.1261 254.55 95.8901 253.158 98.533 252.45ZM116.203 252.613C118.011 252.128 119.633 252.34 121.046 253.254C122.429 254.151 123.389 255.509 123.879 257.34C124.364 259.148 124.234 260.798 123.478 262.243C122.688 263.746 121.395 264.763 119.587 265.248C117.778 265.732 116.15 265.497 114.715 264.589C113.338 263.716 112.401 262.352 111.917 260.543C111.426 258.712 111.556 257.062 112.329 255.588C113.096 254.091 114.395 253.097 116.203 252.613ZM116.743 254.63C115.607 254.934 114.844 255.61 114.46 256.682C114.109 257.596 114.121 258.661 114.444 259.867C114.767 261.072 115.282 261.978 116.044 262.594C116.905 263.307 117.911 263.535 119.047 263.231C120.183 262.926 120.939 262.227 121.353 261.172C121.698 260.235 121.715 259.187 121.399 258.004C121.076 256.799 120.531 255.876 119.769 255.26C118.878 254.53 117.879 254.325 116.743 254.63ZM131.659 248.474C133.421 248.002 134.876 248.333 135.978 249.479C136.312 248.594 136.749 247.906 137.271 247.443C137.747 246.993 138.382 246.673 139.193 246.456C140.422 246.127 141.548 246.248 142.583 246.865C143.588 247.466 144.291 248.42 144.651 249.765L146.756 257.624L144.298 258.282L142.305 250.84C142.045 249.867 141.644 249.204 141.108 248.875C140.567 248.523 139.815 248.501 138.888 248.749C138.193 248.935 137.705 249.339 137.377 249.974C137.05 250.608 137.011 251.388 137.247 252.269L139.221 259.642L136.764 260.3L134.777 252.881C134.268 250.98 133.185 250.276 131.562 250.711C130.774 250.922 130.206 251.397 129.903 252.124C129.549 252.84 129.509 253.621 129.733 254.456L131.663 261.666L129.206 262.324L125.996 250.338L128.454 249.68L128.808 251.001C129.483 249.628 130.453 248.797 131.659 248.474ZM153.38 242.657C155.142 242.185 156.597 242.516 157.699 243.662C158.034 242.777 158.471 242.089 158.993 241.626C159.468 241.176 160.103 240.856 160.915 240.639C162.144 240.31 163.269 240.431 164.304 241.048C165.31 241.649 166.012 242.603 166.373 243.948L168.477 251.807L166.02 252.465L164.027 245.023C163.766 244.05 163.365 243.387 162.83 243.058C162.288 242.706 161.537 242.684 160.61 242.932C159.914 243.118 159.426 243.522 159.099 244.157C158.772 244.791 158.733 245.572 158.968 246.453L160.943 253.825L158.485 254.483L156.499 247.064C155.99 245.163 154.907 244.459 153.284 244.894C152.496 245.105 151.927 245.58 151.625 246.307C151.27 247.023 151.231 247.804 151.454 248.639L153.385 255.849L150.928 256.507L147.718 244.521L150.175 243.863L150.529 245.184C151.205 243.811 152.175 242.98 153.38 242.657ZM174.43 237.02C176.377 236.499 178.058 236.744 179.438 237.816C180.688 238.773 181.622 240.312 182.216 242.438L173.128 244.872C173.532 246.006 174.075 246.83 174.799 247.307C175.517 247.76 176.369 247.88 177.343 247.619C178.2 247.39 178.84 246.995 179.268 246.458C179.598 246.021 179.803 245.395 179.941 244.613L182.399 243.955C182.418 245.142 182.14 246.235 181.504 247.201C180.703 248.384 179.505 249.202 177.906 249.63C176.144 250.102 174.581 249.924 173.269 249.108C171.846 248.247 170.873 246.842 170.346 244.872C169.868 243.087 169.98 241.466 170.724 239.975C171.415 238.473 172.668 237.492 174.43 237.02ZM175.039 239.018C174.112 239.267 173.462 239.714 173.054 240.42C172.687 241.089 172.544 241.947 172.678 243.005L179.146 241.273C178.356 239.248 176.987 238.497 175.039 239.018ZM189.393 233.013C189.996 232.851 190.554 232.801 191.027 232.898L191.685 235.356C191.033 235.332 190.435 235.417 189.878 235.566C189.136 235.765 188.545 236.246 188.127 237.004C187.674 237.821 187.603 238.76 187.882 239.803L189.583 246.155L187.126 246.813L183.916 234.827L186.374 234.169L186.858 235.978C186.985 235.248 187.249 234.655 187.626 234.207C188.058 233.594 188.651 233.211 189.393 233.013ZM199.178 230.392C200.708 229.983 202.03 230.001 203.144 230.449C204.27 230.942 205.17 231.893 205.799 233.315L203.365 233.967C202.986 233.199 202.5 232.683 201.89 232.449C201.275 232.191 200.553 232.186 199.718 232.409C198.698 232.683 198.009 233.265 197.635 234.185C197.23 235.088 197.238 236.229 197.598 237.574C197.958 238.918 198.522 239.91 199.306 240.52C200.038 241.119 200.932 241.302 201.998 241.017C203.83 240.526 204.601 239.326 204.349 237.455L206.783 236.803C206.933 238.477 206.63 239.851 205.914 240.887C205.192 241.901 204.045 242.63 202.515 243.04C200.684 243.53 199.108 243.306 197.765 242.374C196.458 241.482 195.574 240.128 195.077 238.274C194.593 236.465 194.682 234.851 195.346 233.431C196.054 231.9 197.323 230.889 199.178 230.392ZM208.705 223.046C209.192 222.916 209.646 222.943 210.058 223.181C210.463 223.395 210.731 223.746 210.861 224.233C210.991 224.719 210.912 225.163 210.674 225.575C210.43 225.963 210.056 226.237 209.593 226.361C209.106 226.492 208.668 226.435 208.263 226.22C207.851 225.983 207.577 225.609 207.453 225.145C207.323 224.658 207.38 224.221 207.623 223.833C207.861 223.421 208.218 223.176 208.705 223.046ZM208.761 228.174L211.219 227.516L214.428 239.502L211.971 240.16L208.761 228.174ZM221.251 224.482C223.013 224.01 224.429 224.102 225.499 224.76C226.423 225.333 227.092 226.346 227.483 227.807L229.532 235.457L227.26 236.065L226.807 234.373C226.504 235.1 226.055 235.742 225.453 236.276C224.764 236.858 223.892 237.315 222.826 237.601C221.574 237.936 220.513 237.872 219.65 237.432C218.718 237.011 218.129 236.299 217.863 235.302C217.502 233.958 217.756 232.772 218.63 231.767C219.418 230.811 220.716 230.091 222.465 229.573L225.136 228.783L225.005 228.296C224.558 226.627 223.431 226.034 221.622 226.519C220.857 226.724 220.269 227.03 219.879 227.433C219.41 227.906 219.193 228.486 219.234 229.196L216.743 229.639C216.651 228.272 217.039 227.125 217.898 226.249C218.63 225.457 219.767 224.879 221.251 224.482ZM225.614 230.568L223.105 231.314C220.869 231.963 219.967 233.049 220.365 234.533C220.489 234.997 220.774 235.318 221.248 235.514C221.7 235.716 222.254 235.741 222.88 235.574C223.923 235.294 224.717 234.734 225.291 233.909C225.865 233.085 226.048 232.191 225.8 231.264L225.614 230.568ZM229.494 217.379L231.952 216.721L236.471 233.599L234.014 234.257L229.494 217.379ZM245.833 213.352L251.86 211.738C254.526 211.024 256.742 211.225 258.536 212.36C260.207 213.403 261.396 215.246 262.098 217.866C262.793 220.462 262.661 222.659 261.725 224.451C260.731 226.307 258.913 227.589 256.247 228.303L250.265 229.905L245.833 213.352ZM248.937 214.831L252.215 227.072L255.206 226.271C257.292 225.712 258.709 224.786 259.415 223.529C260.099 222.277 260.176 220.617 259.617 218.53C259.046 216.397 258.15 214.998 256.962 214.272C255.721 213.536 254.06 213.459 251.974 214.018L248.937 214.831ZM269.823 211.474C271.77 210.953 273.451 211.198 274.831 212.27C276.081 213.227 277.015 214.766 277.609 216.892L268.521 219.326C268.925 220.46 269.468 221.284 270.192 221.761C270.91 222.215 271.762 222.334 272.736 222.073C273.593 221.844 274.233 221.449 274.661 220.912C274.991 220.476 275.196 219.849 275.334 219.067L277.792 218.409C277.811 219.596 277.533 220.689 276.897 221.655C276.096 222.838 274.899 223.656 273.299 224.084C271.537 224.556 269.974 224.378 268.662 223.562C267.239 222.701 266.266 221.296 265.739 219.326C265.261 217.541 265.373 215.92 266.117 214.429C266.808 212.928 268.061 211.946 269.823 211.474ZM270.432 213.473C269.505 213.721 268.855 214.168 268.447 214.874C268.08 215.544 267.937 216.402 268.071 217.459L274.539 215.727C273.749 213.702 272.38 212.951 270.432 213.473ZM283.697 207.759C286.803 206.927 288.854 207.719 289.809 210.172L287.421 210.811C287.062 210.212 286.666 209.846 286.203 209.696C285.711 209.53 285.025 209.565 284.19 209.788C283.449 209.987 282.917 210.229 282.608 210.56C282.23 210.91 282.12 211.336 282.245 211.8C282.356 212.217 282.774 212.478 283.504 212.606C283.971 212.679 284.821 212.7 286.107 212.679C287.562 212.637 288.688 212.758 289.449 213.001C290.56 213.35 291.271 214.054 291.556 215.12C292.233 217.647 290.789 219.4 287.242 220.35C283.95 221.232 281.81 220.289 280.787 217.582L283.198 216.936C283.554 217.71 284.011 218.209 284.515 218.422C285.013 218.612 285.705 218.6 286.633 218.352C288.534 217.843 289.358 217.026 289.073 215.959C288.918 215.38 288.423 215.015 287.64 214.877C287.22 214.791 286.346 214.776 285.043 214.827C283.542 214.881 282.452 214.801 281.796 214.579C280.714 214.247 280.033 213.56 279.759 212.54C279.468 211.45 279.678 210.475 280.421 209.63C281.158 208.762 282.259 208.144 283.697 207.759ZM293.198 200.419C293.685 200.289 294.14 200.316 294.551 200.554C294.956 200.768 295.224 201.119 295.354 201.606C295.485 202.093 295.405 202.536 295.167 202.948C294.923 203.336 294.55 203.61 294.086 203.734C293.599 203.865 293.162 203.808 292.756 203.593C292.345 203.356 292.071 202.982 291.947 202.518C291.816 202.032 291.873 201.594 292.117 201.206C292.354 200.794 292.711 200.55 293.198 200.419ZM293.255 205.547L295.712 204.889L298.922 216.875L296.464 217.533L293.255 205.547ZM305.327 201.966C306.903 201.544 308.276 201.847 309.505 202.91L309.077 201.31L311.534 200.652L314.533 211.849C315.551 215.651 314.182 218.055 310.473 219.049C308.804 219.496 307.442 219.513 306.393 219.122C305.338 218.709 304.544 217.878 303.959 216.619L306.416 215.961C306.741 216.619 307.156 217.055 307.701 217.232C308.215 217.392 308.978 217.362 309.951 217.101C312.038 216.542 312.777 215.127 312.175 212.878L311.678 211.024C311.151 212.581 310.125 213.576 308.549 213.998C306.926 214.433 305.456 214.23 304.167 213.408C302.855 212.591 301.983 211.284 301.499 209.476C301.015 207.668 301.117 206.1 301.839 204.714C302.532 203.311 303.704 202.401 305.327 201.966ZM306.232 203.861C305.188 204.14 304.47 204.705 304.112 205.596C303.696 206.453 303.685 207.524 304.026 208.799C304.337 209.959 304.817 210.824 305.46 211.372C306.205 212.017 307.174 212.205 308.38 211.882C309.423 211.603 310.141 211.038 310.558 210.181C310.922 209.313 310.962 208.259 310.633 207.03C310.298 205.778 309.73 204.862 308.981 204.292C308.179 203.712 307.275 203.581 306.232 203.861ZM321.686 197.586C324.653 196.791 326.595 198.01 327.476 201.302L329.457 208.698L326.999 209.356L325.075 202.169C324.528 200.129 323.305 199.363 321.45 199.86C320.754 200.046 320.191 200.446 319.817 201.092C319.41 201.798 319.267 202.656 319.435 203.654L321.366 210.864L318.908 211.522L315.699 199.537L318.156 198.879L318.553 200.362C318.856 199.635 319.271 199.052 319.793 198.589C320.309 198.103 320.944 197.784 321.686 197.586Z" fill="white"/>
</svg>
