<svg width="132" height="132" viewBox="0 0 132 132" fill="none" xmlns="http://www.w3.org/2000/svg">
<path fill-rule="evenodd" clip-rule="evenodd" d="M58.6451 0L65.858 0L73.071 0L69.4645 32.929L65.858 65.858L62.2516 32.929L58.6451 0ZM65.858 65.858L79.1984 35.5365L92.5406 5.21678L98.7871 8.82327L105.033 12.4298L85.4449 39.143L65.858 65.858ZM65.858 65.858L92.5713 46.2694L119.286 26.6826L122.893 32.929L126.499 39.1754L96.1778 52.5158L65.858 65.858ZM65.858 65.858L98.7871 62.2516L131.714 58.6451V65.858V73.071L98.7871 69.4645L65.858 65.858ZM65.858 65.858L96.1778 79.1984L126.499 92.5406L122.893 98.7871L119.286 105.033L92.5713 85.4449L65.858 65.858ZM65.858 65.858L79.1984 96.1777L92.5406 126.499L98.7871 122.893L105.033 119.286L85.4449 92.5713L65.858 65.858ZM65.858 65.858L69.4645 98.7871L73.071 131.714H65.858H58.6451L62.2516 98.7871L65.858 65.858ZM65.858 65.858L52.5158 96.1777L39.1754 126.499L32.929 122.893L26.6826 119.286L46.2694 92.5713L65.858 65.858ZM65.858 65.858L39.143 85.4449L12.4298 105.033L8.82327 98.7871L5.21678 92.5406L35.5365 79.1984L65.858 65.858ZM65.858 65.858L32.929 69.4645L0 73.071L0 65.858L0 58.6451L32.929 62.2516L65.858 65.858ZM65.858 65.858L35.5365 52.5158L5.21678 39.1754L8.82327 32.929L12.4298 26.6826L39.143 46.2694L65.858 65.858ZM65.858 65.858L46.2694 39.143L26.6826 12.4298L32.929 8.82327L39.1754 5.21678L52.5158 35.5365L65.858 65.858Z" fill="black"/>
</svg>
