<svg width="2309" height="93" viewBox="0 0 2309 93" fill="none" xmlns="http://www.w3.org/2000/svg">
<path d="M18.1933 61.0597H17.1933V62.0666L18.2002 62.0597L18.1933 61.0597ZM48.9426 60.4191L49.9116 60.6661L50.2437 59.3634L48.9005 59.42L48.9426 60.4191ZM47.9176 66.697L46.9196 66.6333L46.9196 66.6333L47.9176 66.697ZM47.7254 74V75H48.7254V74H47.7254ZM2.56244 74L1.56329 73.9588L1.52035 75H2.56244V74ZM2.56244 27.4917V26.4917H1.52035L1.56329 27.5329L2.56244 27.4917ZM18.1933 27.4917H19.1933V26.4917H18.1933V27.4917ZM18.2002 62.0597C30.5917 61.9742 40.8542 61.7605 48.9847 61.4182L48.9005 59.42C40.8022 59.7609 30.5652 59.9743 18.1864 60.0597L18.2002 62.0597ZM47.9736 60.1721C47.4048 62.4033 47.0521 64.5575 46.9196 66.6333L48.9156 66.7607C49.0393 64.8221 49.37 62.791 49.9116 60.6661L47.9736 60.1721ZM46.9196 66.6333C46.7897 68.6686 46.7254 71.1254 46.7254 74H48.7254C48.7254 71.1518 48.7892 68.74 48.9156 66.7607L46.9196 66.6333ZM47.7254 73H2.56244V75H47.7254V73ZM3.56159 74.0412C3.90373 65.7442 4.07493 57.979 4.07493 50.7459H2.07493C2.07493 57.9478 1.90446 65.6853 1.56329 73.9588L3.56159 74.0412ZM4.07493 50.7459C4.07493 43.5127 3.90373 35.7475 3.56159 27.4505L1.56329 27.5329C1.90446 35.8064 2.07493 43.5439 2.07493 50.7459H4.07493ZM2.56244 28.4917H18.1933V26.4917H2.56244V28.4917ZM17.1933 27.4917V61.0597H19.1933V27.4917H17.1933ZM78.294 57.9848V56.9848H77.0958L77.3102 58.1636L78.294 57.9848ZM80.7924 62.5971L80.1221 63.3392L80.1346 63.3506L80.1475 63.3614L80.7924 62.5971ZM91.6187 63.3018L92.0156 64.2197L92.026 64.2152L92.0362 64.2105L91.6187 63.3018ZM95.3983 60.2909L95.8402 59.3939L95.0878 59.0233L94.5919 59.6996L95.3983 60.2909ZM106.801 64.8393L107.716 65.2442L108.157 64.2466L107.125 63.8932L106.801 64.8393ZM99.5623 72.0141L100.014 72.9063L100.018 72.9042L99.5623 72.0141ZM69.838 69.6439L69.1397 70.3598L69.1488 70.3684L69.838 69.6439ZM69.838 43.3788L70.5316 44.0992L70.5316 44.0992L69.838 43.3788ZM97.3201 40.5602L96.9073 41.4709L96.9073 41.4709L97.3201 40.5602ZM104.687 46.646L103.851 47.1943L103.855 47.2007L104.687 46.646ZM107.121 57.9848V58.9848H107.979L108.11 58.1368L107.121 57.9848ZM81.6252 49.2725L82.1357 50.1323L82.1357 50.1323L81.6252 49.2725ZM78.7425 52.6036L77.812 52.2371L77.2737 53.6036H78.7425V52.6036ZM93.8609 52.6036V53.6036H95.3039L94.7972 52.2525L93.8609 52.6036ZM91.3625 49.3365L90.7672 50.1401L90.777 50.1473L90.787 50.1543L91.3625 49.3365ZM99.1779 56.9848H78.294V58.9848H99.1779V56.9848ZM77.3102 58.1636C77.6883 60.2436 78.6224 61.9847 80.1221 63.3392L81.4627 61.855C80.3145 60.818 79.583 59.4841 79.2779 57.8059L77.3102 58.1636ZM80.1475 63.3614C81.7534 64.7163 83.9353 65.3268 86.5579 65.3268V63.3268C84.2265 63.3268 82.5647 62.7841 81.4373 61.8329L80.1475 63.3614ZM86.5579 65.3268C88.4823 65.3268 90.3049 64.9594 92.0156 64.2197L91.2218 62.384C89.7722 63.0108 88.2209 63.3268 86.5579 63.3268V65.3268ZM92.0362 64.2105C93.7559 63.4204 95.1553 62.3133 96.2047 60.8823L94.5919 59.6996C93.7622 60.831 92.6419 61.7312 91.2012 62.3931L92.0362 64.2105ZM94.9565 61.188C97.8712 62.6237 101.716 64.1555 106.477 65.7854L107.125 63.8932C102.405 62.2773 98.6482 60.7769 95.8402 59.3939L94.9565 61.188ZM105.887 64.4344C104.673 67.1741 102.448 69.4127 99.1064 71.1241L100.018 72.9042C103.681 71.0281 106.281 68.4835 107.716 65.2442L105.887 64.4344ZM99.1107 71.1219C95.8395 72.7777 91.4837 73.6406 85.9813 73.6406V75.6406C91.6683 75.6406 96.3665 74.7525 100.014 72.9063L99.1107 71.1219ZM85.9813 73.6406C78.8514 73.6406 73.7685 72.0024 70.5272 68.9193L69.1488 70.3684C72.9115 73.9476 78.5908 75.6406 85.9813 75.6406V73.6406ZM70.5362 68.928C67.2959 65.7677 65.649 61.6189 65.649 56.3832H63.649C63.649 62.0806 65.4614 66.7722 69.1398 70.3597L70.5362 68.928ZM65.649 56.3832C65.649 51.2832 67.2909 47.2198 70.5316 44.0992L69.1443 42.6585C65.4665 46.2002 63.649 50.8065 63.649 56.3832H65.649ZM70.5316 44.0992C73.7275 41.0217 78.8055 39.3821 85.9813 39.3821V37.3821C78.5513 37.3821 72.8671 39.0737 69.1443 42.6585L70.5316 44.0992ZM85.9813 39.3821C90.2282 39.3821 93.861 40.09 96.9073 41.4709L97.733 39.6494C94.3732 38.1263 90.4468 37.3821 85.9813 37.3821V39.3821ZM96.9073 41.4709C99.9606 42.8551 102.26 44.7674 103.851 47.1943L105.523 46.0976C103.698 43.3142 101.086 41.1693 97.733 39.6494L96.9073 41.4709ZM103.855 47.2007C105.445 49.5853 106.25 52.3358 106.25 55.4864H108.25C108.25 51.9747 107.346 48.8315 105.519 46.0913L103.855 47.2007ZM106.25 55.4864C106.25 56.5849 106.207 57.3555 106.133 57.8327L108.11 58.1368C108.207 57.5036 108.25 56.6086 108.25 55.4864H106.25ZM107.121 56.9848H99.1779V58.9848H107.121V56.9848ZM86.8782 47.0553C84.6228 47.0553 82.6801 47.4831 81.1147 48.4126L82.1357 50.1323C83.3036 49.4389 84.8629 49.0553 86.8782 49.0553V47.0553ZM81.1147 48.4126C79.5673 49.3314 78.4528 50.6106 77.812 52.2371L79.6729 52.9702C80.1425 51.778 80.9498 50.8364 82.1357 50.1323L81.1147 48.4126ZM78.7425 53.6036H93.8609V51.6036H78.7425V53.6036ZM94.7972 52.2525C94.2167 50.7046 93.2616 49.4501 91.938 48.5187L90.787 50.1543C91.7696 50.8458 92.48 51.7694 92.9245 52.9548L94.7972 52.2525ZM91.9577 48.533C90.5895 47.5195 88.8687 47.0553 86.8782 47.0553V49.0553C88.5606 49.0553 89.8292 49.4453 90.7672 50.1401L91.9577 48.533ZM153.22 50.4896L153.155 51.4875L154.22 51.557V50.4896H153.22ZM142.458 49.9131L142.498 48.9138L141.468 48.8732L141.458 49.9036L142.458 49.9131ZM142.394 56.7035L141.394 56.6941V56.7035H142.394ZM143.867 62.1487L143.064 62.7446L143.075 62.7592L143.087 62.7734L143.867 62.1487ZM152.067 63.8143L153.061 63.9218L153.207 62.5793L151.88 62.832L152.067 63.8143ZM151.939 73.8719L152.118 74.8557L152.966 74.7017L152.939 73.8406L151.939 73.8719ZM131.568 71.0532L130.803 71.6973L130.809 71.7046L130.815 71.7117L131.568 71.0532ZM128.493 60.9316L127.493 60.9256V60.9316H128.493ZM128.557 50.1053L129.557 50.1112L129.563 49.0615L128.514 49.1062L128.557 50.1053ZM122.279 50.4896H121.279V51.5711L122.357 51.4866L122.279 50.4896ZM122.279 39.1508V38.1508H121.279V39.1508H122.279ZM127.916 37.0368L128.592 37.774L128.592 37.774L127.916 37.0368ZM130.671 31.976V30.976H129.812L129.682 31.8256L130.671 31.976ZM148.095 31.976L148.904 32.5649L150.061 30.976H148.095V31.976ZM140.857 39.1508L140.296 38.3229L137.597 40.1508H140.857V39.1508ZM153.22 39.1508H154.22V38.1508H153.22V39.1508ZM153.285 49.4917C149.35 49.235 145.753 49.0424 142.498 48.9138L142.419 50.9123C145.654 51.04 149.233 51.2317 153.155 51.4875L153.285 49.4917ZM141.458 49.9036L141.394 56.6941L143.394 56.713L143.458 49.9225L141.458 49.9036ZM141.394 56.7035C141.394 59.1409 141.912 61.1916 143.064 62.7446L144.671 61.5529C143.858 60.458 143.394 58.8786 143.394 56.7035H141.394ZM143.087 62.7734C144.388 64.3997 146.554 65.0705 149.249 65.0705V63.0705C146.818 63.0705 145.397 62.4602 144.648 61.524L143.087 62.7734ZM149.249 65.0705C150.289 65.0705 151.291 64.9801 152.254 64.7966L151.88 62.832C151.049 62.9902 150.173 63.0705 149.249 63.0705V65.0705ZM151.073 63.7068C150.898 65.3234 150.811 66.9608 150.811 68.6189H152.811C152.811 67.0311 152.895 65.4655 153.061 63.9218L151.073 63.7068ZM150.811 68.6189C150.811 69.4064 150.854 71.1744 150.94 73.9031L152.939 73.8406C152.853 71.1028 152.811 69.3688 152.811 68.6189H150.811ZM151.76 72.888C149.902 73.2258 148.362 73.4327 147.132 73.5147L147.265 75.5103C148.597 75.4215 150.218 75.2012 152.118 74.8557L151.76 72.888ZM147.132 73.5147C145.882 73.598 144.241 73.6406 142.202 73.6406V75.6406C144.263 75.6406 145.953 75.5978 147.265 75.5103L147.132 73.5147ZM142.202 73.6406C137.33 73.6406 134.137 72.4709 132.32 70.3947L130.815 71.7117C133.184 74.4187 137.08 75.6406 142.202 75.6406V73.6406ZM132.333 70.4091C130.481 68.2102 129.493 65.0932 129.493 60.9316H127.493C127.493 65.3968 128.555 69.0275 130.803 71.6973L132.333 70.4091ZM129.493 60.9375L129.557 50.1112L127.557 50.0993L127.493 60.9256L129.493 60.9375ZM128.514 49.1062C126.494 49.1921 124.39 49.321 122.201 49.4927L122.357 51.4866C124.524 51.3166 126.605 51.1892 128.599 51.1043L128.514 49.1062ZM123.279 50.4896V39.1508H121.279V50.4896H123.279ZM122.279 40.1508C124.732 40.1508 126.857 39.364 128.592 37.774L127.241 36.2997C125.9 37.5283 124.267 38.1508 122.279 38.1508V40.1508ZM128.592 37.774C130.289 36.2187 131.324 34.3283 131.66 32.1264L129.682 31.8256C129.419 33.5528 128.619 35.0362 127.241 36.2997L128.592 37.774ZM130.671 32.976H148.095V30.976H130.671V32.976ZM147.287 31.3871C145.167 34.2976 142.834 36.6033 140.296 38.3229L141.417 39.9787C144.175 38.111 146.668 35.6334 148.904 32.5649L147.287 31.3871ZM140.857 40.1508H153.22V38.1508H140.857V40.1508ZM152.22 39.1508V50.4896H154.22V39.1508H152.22ZM179.274 73.1672L179.005 74.1305L179.018 74.134L179.274 73.1672ZM168.896 68.5548L168.09 67.963L167.455 68.8275L168.362 69.4003L168.896 68.5548ZM175.622 59.3941L176.205 58.5816L175.401 58.0051L174.816 58.8022L175.622 59.3941ZM182.733 62.7253L182.452 63.6851L182.459 63.6871L182.466 63.689L182.733 62.7253ZM194.328 63.1096L194.775 64.0041L194.782 64.0005L194.789 63.9968L194.328 63.1096ZM191.125 58.8816L191.066 57.8833L191.063 57.8836L191.125 58.8816ZM189.459 59.0097L189.36 58.0147L189.352 58.0154L189.345 58.0163L189.459 59.0097ZM173.316 57.2801L172.79 58.1307L172.799 58.1362L172.808 58.1416L173.316 57.2801ZM175.11 41.5211L175.61 42.3868L175.618 42.3822L175.11 41.5211ZM200.926 39.8555L200.65 40.8166L200.657 40.8186L200.664 40.8205L200.926 39.8555ZM210.087 44.1476L210.797 44.8516L211.618 44.0234L210.674 43.3383L210.087 44.1476ZM202.72 51.5787L202.254 52.4636L202.909 52.8082L203.43 52.2827L202.72 51.5787ZM195.865 48.8881L195.609 49.8547L195.621 49.8577L195.632 49.8605L195.865 48.8881ZM185.68 48.9522L185.191 48.0796L185.191 48.0796L185.68 48.9522ZM184.719 52.4114L184.094 53.1923L184.112 53.2067L184.131 53.2202L184.719 52.4114ZM189.523 52.7318L189.455 51.7341L189.439 51.7352L189.424 51.7367L189.523 52.7318ZM206.82 54.6536L207.343 53.8014L207.343 53.8014L206.82 54.6536ZM205.09 71.5657L205.586 72.434L205.594 72.4295L205.09 71.5657ZM190.228 73.6406C186.733 73.6406 183.167 73.1622 179.529 72.2004L179.018 74.134C182.811 75.1367 186.548 75.6406 190.228 75.6406V73.6406ZM179.542 72.204C175.964 71.2053 172.594 69.7077 169.43 67.7093L168.362 69.4003C171.689 71.5018 175.238 73.0791 179.005 74.1304L179.542 72.204ZM169.702 69.1467L176.428 59.9859L174.816 58.8022L168.09 67.963L169.702 69.1467ZM175.039 60.2066C177.112 61.6933 179.589 62.848 182.452 63.6851L183.014 61.7654C180.325 60.9796 178.062 59.9136 176.205 58.5816L175.039 60.2066ZM182.466 63.689C185.295 64.4723 187.781 64.8784 189.908 64.8784V62.8784C188.02 62.8784 185.723 62.5157 183 61.7615L182.466 63.689ZM189.908 64.8784C191.893 64.8784 193.548 64.6179 194.775 64.0041L193.881 62.2152C193.058 62.6264 191.766 62.8784 189.908 62.8784V64.8784ZM194.789 63.9968C196.034 63.3496 196.93 62.3692 196.93 60.9956H194.93C194.93 61.3303 194.757 61.7593 193.867 62.2224L194.789 63.9968ZM196.93 60.9956C196.93 60.022 196.544 59.1815 195.761 58.5941L194.561 60.1941C194.803 60.3754 194.93 60.6026 194.93 60.9956H196.93ZM195.761 58.5941C195.018 58.037 194.076 57.8175 193.047 57.8175V59.8175C193.812 59.8175 194.279 59.9824 194.561 60.1941L195.761 58.5941ZM193.047 57.8175C192.467 57.8175 191.806 57.8398 191.066 57.8833L191.184 59.8799C191.896 59.838 192.516 59.8175 193.047 59.8175V57.8175ZM191.063 57.8836C190.373 57.9266 189.804 57.9702 189.36 58.0147L189.559 60.0048C189.969 59.9638 190.51 59.922 191.187 59.8797L191.063 57.8836ZM189.345 58.0163C187.164 58.268 184.917 58.3941 182.605 58.3941V60.3941C184.99 60.3941 187.313 60.264 189.574 60.0031L189.345 58.0163ZM182.605 58.3941C178.919 58.3941 176.015 57.7098 173.824 56.4185L172.808 58.1416C175.4 59.6691 178.689 60.3941 182.605 60.3941V58.3941ZM173.842 56.4295C171.844 55.1942 170.793 53.2039 170.793 50.2334H168.793C168.793 53.7544 170.091 56.4618 172.79 58.1307L173.842 56.4295ZM170.793 50.2334C170.793 46.8694 172.341 44.2774 175.61 42.3867L174.609 40.6554C170.789 42.8646 168.793 46.0809 168.793 50.2334H170.793ZM175.618 42.3822C178.938 40.4225 183.937 39.3821 190.741 39.3821V37.3821C183.792 37.3821 178.371 38.4343 174.601 40.6599L175.618 42.3822ZM190.741 39.3821C194.016 39.3821 197.318 39.8587 200.65 40.8166L201.203 38.8944C197.701 37.8877 194.213 37.3821 190.741 37.3821V39.3821ZM200.664 40.8205C204.018 41.7314 206.959 43.1128 209.5 44.9569L210.674 43.3383C207.919 41.3387 204.753 39.8587 201.188 38.8905L200.664 40.8205ZM209.377 43.4435L202.01 50.8746L203.43 52.2827L210.797 44.8516L209.377 43.4435ZM203.186 50.6937C200.696 49.3831 198.332 48.4517 196.099 47.9157L195.632 49.8605C197.669 50.3494 199.876 51.2118 202.254 52.4636L203.186 50.6937ZM196.122 47.9215C193.947 47.3444 191.747 47.0553 189.523 47.0553V49.0553C191.571 49.0553 193.599 49.3213 195.609 49.8547L196.122 47.9215ZM189.523 47.0553C187.895 47.0553 186.438 47.3815 185.191 48.0796L186.168 49.8247C187.057 49.327 188.162 49.0553 189.523 49.0553V47.0553ZM185.191 48.0796C184.007 48.7428 183.078 49.6897 183.078 51.0021H185.078C185.078 50.777 185.217 50.3573 186.168 49.8247L185.191 48.0796ZM183.078 51.0021C183.078 51.8714 183.406 52.6415 184.094 53.1923L185.344 51.6306C185.178 51.498 185.078 51.3286 185.078 51.0021H183.078ZM184.131 53.2202C184.81 53.7143 185.629 53.9239 186.513 53.9239V51.9239C185.944 51.9239 185.567 51.792 185.307 51.6027L184.131 53.2202ZM186.513 53.9239C187.288 53.9239 188.33 53.8561 189.623 53.7268L189.424 51.7367C188.155 51.8636 187.189 51.9239 186.513 51.9239V53.9239ZM189.592 53.7294C192.705 53.5162 195.004 53.4114 196.506 53.4114V51.4114C194.933 51.4114 192.577 51.5202 189.455 51.7341L189.592 53.7294ZM196.506 53.4114C200.857 53.4114 204.084 54.1472 206.297 55.5058L207.343 53.8014C204.687 52.1704 201.038 51.4114 196.506 51.4114V53.4114ZM206.297 55.5058C208.408 56.8025 209.471 58.7488 209.471 61.5081H211.471C211.471 58.1176 210.1 55.4942 207.343 53.8014L206.297 55.5058ZM209.471 61.5081C209.471 65.8123 207.828 68.8111 204.586 70.7019L205.594 72.4295C209.528 70.1349 211.471 66.4287 211.471 61.5081H209.471ZM204.594 70.6974C201.217 72.627 196.459 73.6406 190.228 73.6406V75.6406C196.638 75.6406 201.788 74.6042 205.586 72.4339L204.594 70.6974ZM279.156 47.4788V46.4788H278.156V47.4788H279.156ZM306.51 47.4788H307.51V46.4788H306.51V47.4788ZM306.51 74V75H307.51V74H306.51ZM295.236 74L294.243 74.1178L294.347 75H295.236V74ZM293.89 62.6612L294.883 62.5434L292.937 62.3601L293.89 62.6612ZM287.036 71.6938L287.549 72.5523L287.549 72.5523L287.036 71.6938ZM263.461 71.7579L262.962 72.6241L262.966 72.6268L263.461 71.7579ZM255.582 63.494L254.696 63.958L254.7 63.9662L255.582 63.494ZM259.618 32.8088L260.315 33.5259L260.315 33.5259L259.618 32.8088ZM295.492 28.837L295.098 29.7562L295.101 29.7576L295.492 28.837ZM306.254 37.1649L306.709 38.0554L307.79 37.503L307.041 36.5479L306.254 37.1649ZM294.979 43.0585L294.513 42.1738L294.502 42.1798L294.491 42.186L294.979 43.0585ZM293.378 43.9554L292.671 44.6625L293.206 45.1978L293.866 44.8279L293.378 43.9554ZM287.548 40.2399L287.189 41.1732L287.197 41.1762L287.205 41.1791L287.548 40.2399ZM271.341 42.2258L272.069 42.9107L272.076 42.9034L271.341 42.2258ZM271.533 58.4332L270.833 59.1474L270.84 59.1543L271.533 58.4332ZM287.036 60.7394L286.746 59.7821L286.74 59.7841L287.036 60.7394ZM291.648 57.8566L292.389 58.5282L293.904 56.8566H291.648V57.8566ZM279.156 57.8566H278.156V58.8566H279.156V57.8566ZM279.156 48.4788H306.51V46.4788H279.156V48.4788ZM305.51 47.4788V74H307.51V47.4788H305.51ZM306.51 73H295.236V75H306.51V73ZM296.229 73.8822L294.883 62.5434L292.897 62.779L294.243 74.1178L296.229 73.8822ZM292.937 62.3601C291.72 66.2116 289.577 69.0106 286.523 70.8353L287.549 72.5523C291.071 70.448 293.498 67.2252 294.844 62.9623L292.937 62.3601ZM286.523 70.8353C283.422 72.6876 279.595 73.6406 274.992 73.6406V75.6406C279.871 75.6406 284.072 74.6291 287.549 72.5523L286.523 70.8353ZM274.992 73.6406C270.833 73.6406 267.163 72.7156 263.956 70.8889L262.966 72.6268C266.507 74.6438 270.525 75.6406 274.992 75.6406V73.6406ZM263.961 70.8917C260.801 69.0685 258.302 66.4549 256.463 63.0218L254.7 63.9662C256.705 67.708 259.459 70.6035 262.962 72.6241L263.961 70.8917ZM256.468 63.03C254.676 59.6096 253.763 55.5889 253.763 50.938H251.763C251.763 55.8537 252.729 60.2036 254.696 63.958L256.468 63.03ZM253.763 50.938C253.763 43.5056 255.977 37.7422 260.315 33.5259L258.921 32.0917C254.119 36.7585 251.763 43.0813 251.763 50.938H253.763ZM260.315 33.5259C264.621 29.3403 271.427 27.1464 280.95 27.1464V25.1464C271.169 25.1464 263.754 27.3942 258.921 32.0917L260.315 33.5259ZM280.95 27.1464C286.352 27.1464 291.06 28.0257 295.098 29.7562L295.886 27.9179C291.553 26.0609 286.567 25.1464 280.95 25.1464V27.1464ZM295.101 29.7576C299.167 31.4826 302.62 34.1513 305.467 37.782L307.041 36.5479C303.994 32.6621 300.272 29.7789 295.882 27.9164L295.101 29.7576ZM305.799 36.2745C303.871 37.26 300.107 39.2274 294.513 42.1738L295.445 43.9433C301.041 40.9961 304.794 39.0344 306.709 38.0554L305.799 36.2745ZM294.491 42.186L292.889 43.0829L293.866 44.8279L295.468 43.9311L294.491 42.186ZM294.085 43.2483C292.316 41.4793 290.248 40.1618 287.891 39.3006L287.205 41.1791C289.29 41.9408 291.108 43.1003 292.671 44.6625L294.085 43.2483ZM287.907 39.3065C285.567 38.4065 283.096 37.9586 280.502 37.9586V39.9586C282.861 39.9586 285.088 40.3649 287.189 41.1732L287.907 39.3065ZM280.502 37.9586C276.233 37.9586 272.866 39.0952 270.605 41.5481L272.076 42.9034C273.83 41.0002 276.57 39.9586 280.502 39.9586V37.9586ZM270.612 41.5408C268.416 43.877 267.33 46.7763 267.33 50.1693H269.33C269.33 47.2417 270.251 44.8453 272.069 42.9107L270.612 41.5408ZM267.33 50.1693C267.33 53.8128 268.478 56.8393 270.833 59.1474L272.233 57.719C270.317 55.8418 269.33 53.359 269.33 50.1693H267.33ZM270.84 59.1543C273.276 61.4948 276.883 62.5722 281.462 62.5722V60.5722C277.159 60.5722 274.146 59.5569 272.226 57.7121L270.84 59.1543ZM281.462 62.5722C283.482 62.5722 285.44 62.2802 287.331 61.6947L286.74 59.7841C285.044 60.3089 283.286 60.5722 281.462 60.5722V62.5722ZM287.325 61.6966C289.328 61.0911 291.024 60.0348 292.389 58.5282L290.907 57.1851C289.795 58.4118 288.416 59.2773 286.746 59.7822L287.325 61.6966ZM291.648 56.8566H279.156V58.8566H291.648V56.8566ZM280.156 57.8566V47.4788H278.156V57.8566H280.156ZM331.042 68.2986L330.363 69.0323L330.366 69.0357L331.042 68.2986ZM330.978 32.5525L330.299 31.8188L330.295 31.8219L330.978 32.5525ZM374.283 32.5525L373.6 33.2832L373.604 33.2863L374.283 32.5525ZM374.347 68.2986L375.026 69.0326L375.026 69.0326L374.347 68.2986ZM362.88 58.8816L363.531 59.6409L363.54 59.6332L362.88 58.8816ZM362.88 41.9695L362.221 42.7211L362.221 42.7211L362.88 41.9695ZM342.445 41.9695L343.105 42.7211L343.105 42.7211L342.445 41.9695ZM342.445 58.8175L343.105 58.0659L343.105 58.0659L342.445 58.8175ZM352.631 73.6406C342.966 73.6406 336.066 71.5471 331.718 67.5614L330.366 69.0357C335.243 73.5061 342.736 75.6406 352.631 75.6406V73.6406ZM331.722 67.5648C327.358 63.5244 325.124 57.8371 325.124 50.3615H323.124C323.124 58.2605 325.502 64.5312 330.363 69.0323L331.722 67.5648ZM325.124 50.3615C325.124 42.9723 327.336 37.3249 331.661 33.2831L330.295 31.8219C325.481 36.3216 323.124 42.5469 323.124 50.3615H325.124ZM331.657 33.2863C336.005 29.261 342.924 27.1464 352.631 27.1464V25.1464C342.692 25.1464 335.176 27.3026 330.299 31.8188L331.657 33.2863ZM352.631 27.1464C362.383 27.1464 369.298 29.262 373.6 33.2831L374.966 31.8219C370.129 27.3016 362.609 25.1464 352.631 25.1464V27.1464ZM373.604 33.2863C377.97 37.3288 380.202 42.9751 380.202 50.3615H382.202C382.202 42.5441 379.822 36.3177 374.963 31.8188L373.604 33.2863ZM380.202 50.3615C380.202 57.885 377.986 63.5698 373.668 67.5646L375.026 69.0326C379.848 64.5713 382.202 58.298 382.202 50.3615H380.202ZM373.668 67.5646C369.366 71.5449 362.429 73.6406 352.631 73.6406V75.6406C362.649 75.6406 370.189 73.5083 375.026 69.0326L373.668 67.5646ZM352.631 62.5722C357.453 62.5722 361.166 61.6682 363.531 59.6409L362.23 58.1224C360.41 59.6825 357.289 60.5722 352.631 60.5722V62.5722ZM363.54 59.6332C365.922 57.5428 367.019 54.3789 367.019 50.3615H365.019C365.019 54.0314 364.024 56.5476 362.221 58.13L363.54 59.6332ZM367.019 50.3615C367.019 46.4212 365.918 43.3043 363.54 41.2179L362.221 42.7211C364.029 44.3076 365.019 46.7853 365.019 50.3615H367.019ZM363.54 41.2179C361.174 39.1417 357.457 38.2149 352.631 38.2149V40.2149C357.285 40.2149 360.401 41.1245 362.221 42.7211L363.54 41.2179ZM352.631 38.2149C347.844 38.2149 344.15 39.1428 341.785 41.2179L343.105 42.7211C344.925 41.1234 348.022 40.2149 352.631 40.2149V38.2149ZM341.785 41.2179C339.408 43.3043 338.306 46.4212 338.306 50.3615H340.306C340.306 46.7853 341.297 44.3076 343.105 42.7211L341.785 41.2179ZM338.306 50.3615C338.306 54.3403 339.406 57.4807 341.785 59.5692L343.105 58.0659C341.299 56.4815 340.306 53.9846 340.306 50.3615H338.306ZM341.785 59.5692C344.15 61.6443 347.844 62.5722 352.631 62.5722V60.5722C348.022 60.5722 344.925 59.6636 343.105 58.0659L341.785 59.5692ZM422.194 43.2507H421.194V43.9708L421.877 44.1991L422.194 43.2507ZM422.194 30.3745L422.534 29.4337L421.194 28.9509V30.3745H422.194ZM455.955 42.5461H456.955V41.8436L456.294 41.6053L455.955 42.5461ZM455.955 59.0097L456.294 59.9505L456.955 59.7122V59.0097H455.955ZM422.194 71.1813H421.194V72.6049L422.534 72.122L422.194 71.1813ZM422.194 58.3051L421.875 57.3575L421.194 57.5869V58.3051H422.194ZM444.616 50.7459L444.935 51.6935L447.758 50.7418L444.933 49.7975L444.616 50.7459ZM423.194 43.2507V30.3745H421.194V43.2507H423.194ZM421.855 31.3152L455.615 43.4868L456.294 41.6053L422.534 29.4337L421.855 31.3152ZM454.955 42.5461V59.0097H456.955V42.5461H454.955ZM455.615 58.069L421.855 70.2406L422.534 72.122L456.294 59.9505L455.615 58.069ZM423.194 71.1813V58.3051H421.194V71.1813H423.194ZM422.514 59.2527L444.935 51.6935L444.296 49.7983L421.875 57.3575L422.514 59.2527ZM444.933 49.7975L422.511 42.3023L421.877 44.1991L444.299 51.6943L444.933 49.7975ZM469.72 43.2507H468.72V43.9708L469.403 44.1991L469.72 43.2507ZM469.72 30.3745L470.059 29.4337L468.72 28.9509V30.3745H469.72ZM503.48 42.5461H504.48V41.8436L503.819 41.6053L503.48 42.5461ZM503.48 59.0097L503.819 59.9505L504.48 59.7122V59.0097H503.48ZM469.72 71.1813H468.72V72.6049L470.059 72.122L469.72 71.1813ZM469.72 58.3051L469.4 57.3575L468.72 57.5869V58.3051H469.72ZM492.141 50.7459L492.46 51.6935L495.283 50.7418L492.458 49.7975L492.141 50.7459ZM470.72 43.2507V30.3745H468.72V43.2507H470.72ZM469.38 31.3152L503.141 43.4868L503.819 41.6053L470.059 29.4337L469.38 31.3152ZM502.48 42.5461V59.0097H504.48V42.5461H502.48ZM503.141 58.069L469.38 70.2406L470.059 72.122L503.819 59.9505L503.141 58.069ZM470.72 71.1813V58.3051H468.72V71.1813H470.72ZM470.039 59.2527L492.46 51.6935L491.822 49.7983L469.4 57.3575L470.039 59.2527ZM492.458 49.7975L470.037 42.3023L469.403 44.1991L491.824 51.6943L492.458 49.7975ZM517.245 43.2507H516.245V43.9708L516.928 44.1991L517.245 43.2507ZM517.245 30.3745L517.584 29.4337L516.245 28.9509V30.3745H517.245ZM551.005 42.5461H552.005V41.8436L551.344 41.6053L551.005 42.5461ZM551.005 59.0097L551.344 59.9505L552.005 59.7122V59.0097H551.005ZM517.245 71.1813H516.245V72.6049L517.584 72.122L517.245 71.1813ZM517.245 58.3051L516.925 57.3575L516.245 57.5869V58.3051H517.245ZM539.666 50.7459L539.986 51.6935L542.808 50.7418L539.983 49.7975L539.666 50.7459ZM518.245 43.2507V30.3745H516.245V43.2507H518.245ZM516.906 31.3152L550.666 43.4868L551.344 41.6053L517.584 29.4337L516.906 31.3152ZM550.005 42.5461V59.0097H552.005V42.5461H550.005ZM550.666 58.069L516.906 70.2406L517.584 72.122L551.344 59.9505L550.666 58.069ZM518.245 71.1813V58.3051H516.245V71.1813H518.245ZM517.564 59.2527L539.986 51.6935L539.347 49.7983L516.925 57.3575L517.564 59.2527ZM539.983 49.7975L517.562 42.3023L516.928 44.1991L539.349 51.6943L539.983 49.7975Z" fill="white"/>
<path d="M603.825 61.0597H602.825V62.0666L603.832 62.0597L603.825 61.0597ZM634.575 60.4191L635.544 60.6661L635.876 59.3634L634.533 59.42L634.575 60.4191ZM633.55 66.697L632.552 66.6333L632.552 66.6333L633.55 66.697ZM633.358 74V75H634.358V74H633.358ZM588.195 74L587.195 73.9588L587.152 75H588.195V74ZM588.195 27.4917V26.4917H587.152L587.195 27.5329L588.195 27.4917ZM603.825 27.4917H604.825V26.4917H603.825V27.4917ZM603.832 62.0597C616.224 61.9742 626.486 61.7605 634.617 61.4182L634.533 59.42C626.434 59.7609 616.197 59.9743 603.819 60.0597L603.832 62.0597ZM633.606 60.1721C633.037 62.4033 632.684 64.5575 632.552 66.6333L634.548 66.7607C634.671 64.8221 635.002 62.791 635.544 60.6661L633.606 60.1721ZM632.552 66.6333C632.422 68.6686 632.358 71.1254 632.358 74H634.358C634.358 71.1518 634.421 68.74 634.548 66.7607L632.552 66.6333ZM633.358 73H588.195V75H633.358V73ZM589.194 74.0412C589.536 65.7442 589.707 57.979 589.707 50.7459H587.707C587.707 57.9478 587.537 65.6853 587.195 73.9588L589.194 74.0412ZM589.707 50.7459C589.707 43.5127 589.536 35.7475 589.194 27.4505L587.195 27.5329C587.537 35.8064 587.707 43.5439 587.707 50.7459H589.707ZM588.195 28.4917H603.825V26.4917H588.195V28.4917ZM602.825 27.4917V61.0597H604.825V27.4917H602.825ZM663.926 57.9848V56.9848H662.728L662.942 58.1636L663.926 57.9848ZM666.424 62.5971L665.754 63.3392L665.767 63.3506L665.78 63.3614L666.424 62.5971ZM677.251 63.3018L677.648 64.2197L677.658 64.2152L677.668 64.2105L677.251 63.3018ZM681.03 60.2909L681.472 59.3939L680.72 59.0233L680.224 59.6996L681.03 60.2909ZM692.433 64.8393L693.348 65.2442L693.789 64.2466L692.757 63.8932L692.433 64.8393ZM685.194 72.0141L685.646 72.9063L685.65 72.9042L685.194 72.0141ZM655.47 69.6439L654.772 70.3598L654.781 70.3684L655.47 69.6439ZM655.47 43.3788L656.164 44.0992L656.164 44.0992L655.47 43.3788ZM682.952 40.5602L682.539 41.4709L682.539 41.4709L682.952 40.5602ZM690.319 46.646L689.483 47.1943L689.487 47.2007L690.319 46.646ZM692.754 57.9848V58.9848H693.611L693.742 58.1368L692.754 57.9848ZM667.257 49.2725L667.768 50.1323L667.768 50.1323L667.257 49.2725ZM664.375 52.6036L663.444 52.2371L662.906 53.6036H664.375V52.6036ZM679.493 52.6036V53.6036H680.936L680.429 52.2525L679.493 52.6036ZM676.995 49.3365L676.399 50.1401L676.409 50.1473L676.419 50.1543L676.995 49.3365ZM684.81 56.9848H663.926V58.9848H684.81V56.9848ZM662.942 58.1636C663.32 60.2436 664.255 61.9847 665.754 63.3392L667.095 61.855C665.947 60.818 665.215 59.4841 664.91 57.8059L662.942 58.1636ZM665.78 63.3614C667.385 64.7163 669.567 65.3268 672.19 65.3268V63.3268C669.859 63.3268 668.197 62.7841 667.069 61.8329L665.78 63.3614ZM672.19 65.3268C674.114 65.3268 675.937 64.9594 677.648 64.2197L676.854 62.384C675.404 63.0108 673.853 63.3268 672.19 63.3268V65.3268ZM677.668 64.2105C679.388 63.4204 680.787 62.3133 681.837 60.8823L680.224 59.6996C679.394 60.831 678.274 61.7312 676.833 62.3931L677.668 64.2105ZM680.589 61.188C683.503 62.6237 687.348 64.1555 692.109 65.7854L692.757 63.8932C688.037 62.2773 684.28 60.7769 681.472 59.3939L680.589 61.188ZM691.519 64.4344C690.306 67.1741 688.08 69.4127 684.738 71.1241L685.65 72.9042C689.313 71.0281 691.913 68.4835 693.348 65.2442L691.519 64.4344ZM684.743 71.1219C681.472 72.7777 677.116 73.6406 671.613 73.6406V75.6406C677.3 75.6406 681.999 74.7525 685.646 72.9063L684.743 71.1219ZM671.613 73.6406C664.483 73.6406 659.401 72.0024 656.159 68.9193L654.781 70.3684C658.544 73.9476 664.223 75.6406 671.613 75.6406V73.6406ZM656.168 68.928C652.928 65.7677 651.281 61.6189 651.281 56.3832H649.281C649.281 62.0806 651.094 66.7722 654.772 70.3597L656.168 68.928ZM651.281 56.3832C651.281 51.2832 652.923 47.2198 656.164 44.0992L654.776 42.6585C651.099 46.2002 649.281 50.8065 649.281 56.3832H651.281ZM656.164 44.0992C659.36 41.0217 664.438 39.3821 671.613 39.3821V37.3821C664.183 37.3821 658.499 39.0737 654.776 42.6585L656.164 44.0992ZM671.613 39.3821C675.86 39.3821 679.493 40.09 682.539 41.4709L683.365 39.6494C680.005 38.1263 676.079 37.3821 671.613 37.3821V39.3821ZM682.539 41.4709C685.593 42.8551 687.892 44.7674 689.483 47.1943L691.155 46.0976C689.33 43.3142 686.718 41.1693 683.365 39.6494L682.539 41.4709ZM689.487 47.2007C691.077 49.5853 691.882 52.3358 691.882 55.4864H693.882C693.882 51.9747 692.978 48.8315 691.151 46.0913L689.487 47.2007ZM691.882 55.4864C691.882 56.5849 691.839 57.3555 691.765 57.8327L693.742 58.1368C693.839 57.5036 693.882 56.6086 693.882 55.4864H691.882ZM692.754 56.9848H684.81V58.9848H692.754V56.9848ZM672.51 47.0553C670.255 47.0553 668.312 47.4831 666.747 48.4126L667.768 50.1323C668.936 49.4389 670.495 49.0553 672.51 49.0553V47.0553ZM666.747 48.4126C665.199 49.3314 664.085 50.6106 663.444 52.2371L665.305 52.9702C665.775 51.778 666.582 50.8364 667.768 50.1323L666.747 48.4126ZM664.375 53.6036H679.493V51.6036H664.375V53.6036ZM680.429 52.2525C679.849 50.7046 678.894 49.4501 677.57 48.5187L676.419 50.1543C677.402 50.8458 678.112 51.7694 678.557 52.9548L680.429 52.2525ZM677.59 48.533C676.222 47.5195 674.501 47.0553 672.51 47.0553V49.0553C674.193 49.0553 675.461 49.4453 676.399 50.1401L677.59 48.533ZM738.852 50.4896L738.787 51.4875L739.852 51.557V50.4896H738.852ZM728.09 49.9131L728.13 48.9138L727.1 48.8732L727.09 49.9036L728.09 49.9131ZM728.026 56.7035L727.026 56.6941V56.7035H728.026ZM729.5 62.1487L728.696 62.7446L728.707 62.7592L728.719 62.7734L729.5 62.1487ZM737.699 63.8143L738.694 63.9218L738.839 62.5793L737.512 62.832L737.699 63.8143ZM737.571 73.8719L737.75 74.8557L738.598 74.7017L738.571 73.8406L737.571 73.8719ZM717.2 71.0532L716.435 71.6973L716.441 71.7046L716.447 71.7117L717.2 71.0532ZM714.125 60.9316L713.125 60.9256V60.9316H714.125ZM714.189 50.1053L715.189 50.1112L715.195 49.0615L714.146 49.1062L714.189 50.1053ZM707.911 50.4896H706.911V51.5711L707.989 51.4866L707.911 50.4896ZM707.911 39.1508V38.1508H706.911V39.1508H707.911ZM713.548 37.0368L714.224 37.774L714.224 37.774L713.548 37.0368ZM716.303 31.976V30.976H715.444L715.314 31.8256L716.303 31.976ZM733.728 31.976L734.536 32.5649L735.693 30.976H733.728V31.976ZM726.489 39.1508L725.928 38.3229L723.229 40.1508H726.489V39.1508ZM738.852 39.1508H739.852V38.1508H738.852V39.1508ZM738.918 49.4917C734.982 49.235 731.386 49.0424 728.13 48.9138L728.051 50.9123C731.286 51.04 734.865 51.2317 738.787 51.4875L738.918 49.4917ZM727.09 49.9036L727.026 56.6941L729.026 56.713L729.09 49.9225L727.09 49.9036ZM727.026 56.7035C727.026 59.1409 727.544 61.1916 728.696 62.7446L730.303 61.5529C729.49 60.458 729.026 58.8786 729.026 56.7035H727.026ZM728.719 62.7734C730.02 64.3997 732.186 65.0705 734.881 65.0705V63.0705C732.45 63.0705 731.029 62.4602 730.28 61.524L728.719 62.7734ZM734.881 65.0705C735.921 65.0705 736.923 64.9801 737.886 64.7966L737.512 62.832C736.682 62.9902 735.805 63.0705 734.881 63.0705V65.0705ZM736.705 63.7068C736.53 65.3234 736.443 66.9608 736.443 68.6189H738.443C738.443 67.0311 738.527 65.4655 738.694 63.9218L736.705 63.7068ZM736.443 68.6189C736.443 69.4064 736.486 71.1744 736.572 73.9031L738.571 73.8406C738.485 71.1028 738.443 69.3688 738.443 68.6189H736.443ZM737.392 72.888C735.534 73.2258 733.994 73.4327 732.764 73.5147L732.897 75.5103C734.229 75.4215 735.85 75.2012 737.75 74.8557L737.392 72.888ZM732.764 73.5147C731.514 73.598 729.873 73.6406 727.834 73.6406V75.6406C729.895 75.6406 731.585 75.5978 732.897 75.5103L732.764 73.5147ZM727.834 73.6406C722.962 73.6406 719.769 72.4709 717.952 70.3947L716.447 71.7117C718.816 74.4187 722.712 75.6406 727.834 75.6406V73.6406ZM717.965 70.4091C716.113 68.2102 715.125 65.0932 715.125 60.9316H713.125C713.125 65.3968 714.187 69.0275 716.435 71.6973L717.965 70.4091ZM715.125 60.9375L715.189 50.1112L713.189 50.0993L713.125 60.9256L715.125 60.9375ZM714.146 49.1062C712.126 49.1921 710.022 49.321 707.833 49.4927L707.989 51.4866C710.156 51.3166 712.237 51.1892 714.231 51.1043L714.146 49.1062ZM708.911 50.4896V39.1508H706.911V50.4896H708.911ZM707.911 40.1508C710.364 40.1508 712.49 39.364 714.224 37.774L712.873 36.2997C711.532 37.5283 709.899 38.1508 707.911 38.1508V40.1508ZM714.224 37.774C715.921 36.2187 716.957 34.3283 717.292 32.1264L715.314 31.8256C715.052 33.5528 714.251 35.0362 712.873 36.2997L714.224 37.774ZM716.303 32.976H733.728V30.976H716.303V32.976ZM732.919 31.3871C730.799 34.2976 728.466 36.6033 725.928 38.3229L727.05 39.9787C729.807 38.111 732.3 35.6334 734.536 32.5649L732.919 31.3871ZM726.489 40.1508H738.852V38.1508H726.489V40.1508ZM737.852 39.1508V50.4896H739.852V39.1508H737.852ZM764.906 73.1672L764.637 74.1305L764.65 74.134L764.906 73.1672ZM754.528 68.5548L753.722 67.963L753.087 68.8275L753.994 69.4003L754.528 68.5548ZM761.254 59.3941L761.837 58.5816L761.034 58.0051L760.448 58.8022L761.254 59.3941ZM768.365 62.7253L768.084 63.6851L768.091 63.6871L768.098 63.689L768.365 62.7253ZM779.96 63.1096L780.407 64.0041L780.414 64.0005L780.421 63.9968L779.96 63.1096ZM776.757 58.8816L776.698 57.8833L776.695 57.8836L776.757 58.8816ZM775.091 59.0097L774.992 58.0147L774.984 58.0154L774.977 58.0163L775.091 59.0097ZM758.948 57.2801L758.422 58.1307L758.431 58.1362L758.44 58.1416L758.948 57.2801ZM760.742 41.5211L761.242 42.3868L761.25 42.3822L760.742 41.5211ZM786.558 39.8555L786.282 40.8166L786.289 40.8186L786.296 40.8205L786.558 39.8555ZM795.719 44.1476L796.429 44.8516L797.25 44.0234L796.306 43.3383L795.719 44.1476ZM788.352 51.5787L787.886 52.4636L788.541 52.8082L789.062 52.2827L788.352 51.5787ZM781.498 48.8881L781.241 49.8547L781.253 49.8577L781.264 49.8605L781.498 48.8881ZM771.312 48.9522L770.823 48.0796L770.823 48.0796L771.312 48.9522ZM770.351 52.4114L769.726 53.1923L769.744 53.2067L769.763 53.2202L770.351 52.4114ZM775.156 52.7318L775.087 51.7341L775.072 51.7352L775.056 51.7367L775.156 52.7318ZM792.452 54.6536L792.975 53.8014L792.975 53.8014L792.452 54.6536ZM790.722 71.5657L791.218 72.434L791.226 72.4295L790.722 71.5657ZM775.86 73.6406C772.365 73.6406 768.799 73.1622 765.161 72.2004L764.65 74.134C768.443 75.1367 772.181 75.6406 775.86 75.6406V73.6406ZM765.175 72.204C761.596 71.2053 758.226 69.7077 755.062 67.7093L753.994 69.4003C757.321 71.5018 760.87 73.0791 764.637 74.1304L765.175 72.204ZM755.334 69.1467L762.06 59.9859L760.448 58.8022L753.722 67.963L755.334 69.1467ZM760.671 60.2066C762.744 61.6933 765.221 62.848 768.084 63.6851L768.646 61.7654C765.957 60.9796 763.694 59.9136 761.837 58.5816L760.671 60.2066ZM768.098 63.689C770.927 64.4723 773.413 64.8784 775.54 64.8784V62.8784C773.653 62.8784 771.355 62.5157 768.632 61.7615L768.098 63.689ZM775.54 64.8784C777.525 64.8784 779.18 64.6179 780.407 64.0041L779.513 62.2152C778.691 62.6264 777.398 62.8784 775.54 62.8784V64.8784ZM780.421 63.9968C781.666 63.3496 782.562 62.3692 782.562 60.9956H780.562C780.562 61.3303 780.389 61.7593 779.499 62.2224L780.421 63.9968ZM782.562 60.9956C782.562 60.022 782.176 59.1815 781.393 58.5941L780.193 60.1941C780.435 60.3754 780.562 60.6026 780.562 60.9956H782.562ZM781.393 58.5941C780.65 58.037 779.708 57.8175 778.679 57.8175V59.8175C779.444 59.8175 779.911 59.9824 780.193 60.1941L781.393 58.5941ZM778.679 57.8175C778.099 57.8175 777.438 57.8398 776.698 57.8833L776.816 59.8799C777.528 59.838 778.148 59.8175 778.679 59.8175V57.8175ZM776.695 57.8836C776.005 57.9266 775.436 57.9702 774.992 58.0147L775.191 60.0048C775.601 59.9638 776.142 59.922 776.819 59.8797L776.695 57.8836ZM774.977 58.0163C772.796 58.268 770.549 58.3941 768.237 58.3941V60.3941C770.622 60.3941 772.945 60.264 775.206 60.0031L774.977 58.0163ZM768.237 58.3941C764.551 58.3941 761.647 57.7098 759.456 56.4185L758.44 58.1416C761.032 59.6691 764.321 60.3941 768.237 60.3941V58.3941ZM759.474 56.4295C757.476 55.1942 756.425 53.2039 756.425 50.2334H754.425C754.425 53.7544 755.723 56.4618 758.422 58.1307L759.474 56.4295ZM756.425 50.2334C756.425 46.8694 757.973 44.2774 761.242 42.3867L760.241 40.6554C756.421 42.8646 754.425 46.0809 754.425 50.2334H756.425ZM761.25 42.3822C764.57 40.4225 769.569 39.3821 776.373 39.3821V37.3821C769.424 37.3821 764.003 38.4343 760.233 40.6599L761.25 42.3822ZM776.373 39.3821C779.648 39.3821 782.95 39.8587 786.282 40.8166L786.835 38.8944C783.333 37.8877 779.845 37.3821 776.373 37.3821V39.3821ZM786.296 40.8205C789.65 41.7314 792.591 43.1128 795.132 44.9569L796.306 43.3383C793.552 41.3387 790.386 39.8587 786.82 38.8905L786.296 40.8205ZM795.009 43.4435L787.642 50.8746L789.062 52.2827L796.429 44.8516L795.009 43.4435ZM788.818 50.6937C786.328 49.3831 783.964 48.4517 781.731 47.9157L781.264 49.8605C783.301 50.3494 785.508 51.2118 787.886 52.4636L788.818 50.6937ZM781.754 47.9215C779.579 47.3444 777.379 47.0553 775.156 47.0553V49.0553C777.203 49.0553 779.231 49.3213 781.241 49.8547L781.754 47.9215ZM775.156 47.0553C773.527 47.0553 772.07 47.3815 770.823 48.0796L771.8 49.8247C772.689 49.327 773.794 49.0553 775.156 49.0553V47.0553ZM770.823 48.0796C769.639 48.7428 768.71 49.6897 768.71 51.0021H770.71C770.71 50.777 770.849 50.3573 771.8 49.8247L770.823 48.0796ZM768.71 51.0021C768.71 51.8714 769.038 52.6415 769.726 53.1923L770.976 51.6306C770.81 51.498 770.71 51.3286 770.71 51.0021H768.71ZM769.763 53.2202C770.442 53.7143 771.261 53.9239 772.145 53.9239V51.9239C771.577 51.9239 771.199 51.792 770.939 51.6027L769.763 53.2202ZM772.145 53.9239C772.92 53.9239 773.962 53.8561 775.255 53.7268L775.056 51.7367C773.787 51.8636 772.821 51.9239 772.145 51.9239V53.9239ZM775.224 53.7294C778.337 53.5162 780.636 53.4114 782.138 53.4114V51.4114C780.565 51.4114 778.209 51.5202 775.087 51.7341L775.224 53.7294ZM782.138 53.4114C786.489 53.4114 789.716 54.1472 791.929 55.5058L792.975 53.8014C790.319 52.1704 786.67 51.4114 782.138 51.4114V53.4114ZM791.929 55.5058C794.04 56.8025 795.103 58.7488 795.103 61.5081H797.103C797.103 58.1176 795.732 55.4942 792.975 53.8014L791.929 55.5058ZM795.103 61.5081C795.103 65.8123 793.46 68.8111 790.218 70.7019L791.226 72.4295C795.16 70.1349 797.103 66.4287 797.103 61.5081H795.103ZM790.226 70.6974C786.849 72.627 782.091 73.6406 775.86 73.6406V75.6406C782.27 75.6406 787.42 74.6042 791.218 72.4339L790.226 70.6974ZM864.788 47.4788V46.4788H863.788V47.4788H864.788ZM892.142 47.4788H893.142V46.4788H892.142V47.4788ZM892.142 74V75H893.142V74H892.142ZM880.868 74L879.875 74.1178L879.979 75H880.868V74ZM879.522 62.6612L880.515 62.5434L878.569 62.3601L879.522 62.6612ZM872.668 71.6938L873.181 72.5523L873.181 72.5523L872.668 71.6938ZM849.093 71.7579L848.594 72.6241L848.598 72.6268L849.093 71.7579ZM841.214 63.494L840.328 63.958L840.332 63.9662L841.214 63.494ZM845.25 32.8088L845.947 33.5259L845.947 33.5259L845.25 32.8088ZM881.124 28.837L880.73 29.7562L880.733 29.7576L881.124 28.837ZM891.886 37.1649L892.341 38.0554L893.422 37.503L892.673 36.5479L891.886 37.1649ZM880.611 43.0585L880.145 42.1738L880.134 42.1798L880.123 42.186L880.611 43.0585ZM879.01 43.9554L878.303 44.6625L878.838 45.1978L879.498 44.8279L879.01 43.9554ZM873.18 40.2399L872.821 41.1732L872.829 41.1762L872.837 41.1791L873.18 40.2399ZM856.973 42.2258L857.702 42.9107L857.708 42.9034L856.973 42.2258ZM857.165 58.4332L856.465 59.1474L856.472 59.1543L857.165 58.4332ZM872.668 60.7394L872.378 59.7821L872.372 59.7841L872.668 60.7394ZM877.28 57.8566L878.021 58.5282L879.536 56.8566H877.28V57.8566ZM864.788 57.8566H863.788V58.8566H864.788V57.8566ZM864.788 48.4788H892.142V46.4788H864.788V48.4788ZM891.142 47.4788V74H893.142V47.4788H891.142ZM892.142 73H880.868V75H892.142V73ZM881.861 73.8822L880.515 62.5434L878.529 62.779L879.875 74.1178L881.861 73.8822ZM878.569 62.3601C877.352 66.2116 875.209 69.0106 872.155 70.8353L873.181 72.5523C876.703 70.448 879.13 67.2252 880.476 62.9623L878.569 62.3601ZM872.155 70.8353C869.054 72.6876 865.227 73.6406 860.624 73.6406V75.6406C865.503 75.6406 869.704 74.6291 873.181 72.5523L872.155 70.8353ZM860.624 73.6406C856.465 73.6406 852.795 72.7156 849.588 70.8889L848.598 72.6268C852.139 74.6438 856.157 75.6406 860.624 75.6406V73.6406ZM849.593 70.8917C846.433 69.0685 843.935 66.4549 842.095 63.0218L840.332 63.9662C842.337 67.708 845.091 70.6035 848.594 72.6241L849.593 70.8917ZM842.1 63.03C840.308 59.6096 839.395 55.5889 839.395 50.938H837.395C837.395 55.8537 838.361 60.2036 840.328 63.958L842.1 63.03ZM839.395 50.938C839.395 43.5056 841.609 37.7422 845.947 33.5259L844.553 32.0917C839.751 36.7585 837.395 43.0813 837.395 50.938H839.395ZM845.947 33.5259C850.253 29.3403 857.059 27.1464 866.582 27.1464V25.1464C856.801 25.1464 849.386 27.3942 844.553 32.0917L845.947 33.5259ZM866.582 27.1464C871.984 27.1464 876.692 28.0257 880.73 29.7562L881.518 27.9179C877.185 26.0609 872.199 25.1464 866.582 25.1464V27.1464ZM880.733 29.7576C884.799 31.4826 888.252 34.1513 891.099 37.782L892.673 36.5479C889.626 32.6621 885.904 29.7789 881.514 27.9164L880.733 29.7576ZM891.431 36.2745C889.503 37.26 885.739 39.2274 880.145 42.1738L881.077 43.9433C886.673 40.9961 890.426 39.0344 892.341 38.0554L891.431 36.2745ZM880.123 42.186L878.521 43.0829L879.498 44.8279L881.1 43.9311L880.123 42.186ZM879.717 43.2483C877.948 41.4793 875.881 40.1618 873.524 39.3006L872.837 41.1791C874.922 41.9408 876.741 43.1003 878.303 44.6625L879.717 43.2483ZM873.539 39.3065C871.199 38.4065 868.728 37.9586 866.134 37.9586V39.9586C868.493 39.9586 870.72 40.3649 872.821 41.1732L873.539 39.3065ZM866.134 37.9586C861.865 37.9586 858.498 39.0952 856.238 41.5481L857.708 42.9034C859.462 41.0002 862.202 39.9586 866.134 39.9586V37.9586ZM856.244 41.5408C854.048 43.877 852.962 46.7763 852.962 50.1693H854.962C854.962 47.2417 855.883 44.8453 857.702 42.9107L856.244 41.5408ZM852.962 50.1693C852.962 53.8128 854.11 56.8393 856.465 59.1474L857.865 57.719C855.949 55.8418 854.962 53.359 854.962 50.1693H852.962ZM856.472 59.1543C858.908 61.4948 862.515 62.5722 867.095 62.5722V60.5722C862.791 60.5722 859.778 59.5569 857.858 57.7121L856.472 59.1543ZM867.095 62.5722C869.114 62.5722 871.072 62.2802 872.964 61.6947L872.372 59.7841C870.676 60.3089 868.918 60.5722 867.095 60.5722V62.5722ZM872.957 61.6966C874.96 61.0911 876.656 60.0348 878.021 58.5282L876.539 57.1851C875.428 58.4118 874.049 59.2773 872.378 59.7822L872.957 61.6966ZM877.28 56.8566H864.788V58.8566H877.28V56.8566ZM865.788 57.8566V47.4788H863.788V57.8566H865.788ZM916.674 68.2986L915.995 69.0323L915.998 69.0357L916.674 68.2986ZM916.61 32.5525L915.931 31.8188L915.927 31.8219L916.61 32.5525ZM959.915 32.5525L959.233 33.2832L959.236 33.2863L959.915 32.5525ZM959.979 68.2986L960.659 69.0326L960.659 69.0326L959.979 68.2986ZM948.513 58.8816L949.163 59.6409L949.172 59.6332L948.513 58.8816ZM948.513 41.9695L947.853 42.7211L947.853 42.7211L948.513 41.9695ZM928.077 41.9695L928.737 42.7211L928.737 42.7211L928.077 41.9695ZM928.077 58.8175L928.737 58.0659L928.737 58.0659L928.077 58.8175ZM938.263 73.6406C928.598 73.6406 921.698 71.5471 917.35 67.5614L915.998 69.0357C920.875 73.5061 928.368 75.6406 938.263 75.6406V73.6406ZM917.354 67.5648C912.99 63.5244 910.756 57.8371 910.756 50.3615H908.756C908.756 58.2605 911.134 64.5312 915.995 69.0323L917.354 67.5648ZM910.756 50.3615C910.756 42.9723 912.968 37.3249 917.293 33.2831L915.927 31.8219C911.113 36.3216 908.756 42.5469 908.756 50.3615H910.756ZM917.29 33.2863C921.637 29.261 928.556 27.1464 938.263 27.1464V25.1464C928.324 25.1464 920.808 27.3026 915.931 31.8188L917.29 33.2863ZM938.263 27.1464C948.015 27.1464 954.93 29.262 959.233 33.2831L960.598 31.8219C955.761 27.3016 948.241 25.1464 938.263 25.1464V27.1464ZM959.236 33.2863C963.602 37.3288 965.834 42.9751 965.834 50.3615H967.834C967.834 42.5441 965.454 36.3177 960.595 31.8188L959.236 33.2863ZM965.834 50.3615C965.834 57.885 963.618 63.5698 959.3 67.5646L960.659 69.0326C965.48 64.5713 967.834 58.298 967.834 50.3615H965.834ZM959.3 67.5646C954.998 71.5449 948.061 73.6406 938.263 73.6406V75.6406C948.281 75.6406 955.821 73.5083 960.659 69.0326L959.3 67.5646ZM938.263 62.5722C943.085 62.5722 946.798 61.6682 949.163 59.6409L947.862 58.1224C946.042 59.6825 942.921 60.5722 938.263 60.5722V62.5722ZM949.172 59.6332C951.554 57.5428 952.651 54.3789 952.651 50.3615H950.651C950.651 54.0314 949.656 56.5476 947.853 58.13L949.172 59.6332ZM952.651 50.3615C952.651 46.4212 951.55 43.3043 949.172 41.2179L947.853 42.7211C949.661 44.3076 950.651 46.7853 950.651 50.3615H952.651ZM949.172 41.2179C946.806 39.1417 943.089 38.2149 938.263 38.2149V40.2149C942.917 40.2149 946.034 41.1245 947.853 42.7211L949.172 41.2179ZM938.263 38.2149C933.476 38.2149 929.782 39.1428 927.417 41.2179L928.737 42.7211C930.557 41.1234 933.654 40.2149 938.263 40.2149V38.2149ZM927.417 41.2179C925.04 43.3043 923.938 46.4212 923.938 50.3615H925.938C925.938 46.7853 926.929 44.3076 928.737 42.7211L927.417 41.2179ZM923.938 50.3615C923.938 54.3403 925.038 57.4807 927.417 59.5692L928.737 58.0659C926.931 56.4815 925.938 53.9846 925.938 50.3615H923.938ZM927.417 59.5692C929.782 61.6443 933.476 62.5722 938.263 62.5722V60.5722C933.654 60.5722 930.557 59.6636 928.737 58.0659L927.417 59.5692ZM1007.83 43.2507H1006.83V43.9708L1007.51 44.1991L1007.83 43.2507ZM1007.83 30.3745L1008.17 29.4337L1006.83 28.9509V30.3745H1007.83ZM1041.59 42.5461H1042.59V41.8436L1041.93 41.6053L1041.59 42.5461ZM1041.59 59.0097L1041.93 59.9505L1042.59 59.7122V59.0097H1041.59ZM1007.83 71.1813H1006.83V72.6049L1008.17 72.122L1007.83 71.1813ZM1007.83 58.3051L1007.51 57.3575L1006.83 57.5869V58.3051H1007.83ZM1030.25 50.7459L1030.57 51.6935L1033.39 50.7418L1030.56 49.7975L1030.25 50.7459ZM1008.83 43.2507V30.3745H1006.83V43.2507H1008.83ZM1007.49 31.3152L1041.25 43.4868L1041.93 41.6053L1008.17 29.4337L1007.49 31.3152ZM1040.59 42.5461V59.0097H1042.59V42.5461H1040.59ZM1041.25 58.069L1007.49 70.2406L1008.17 72.122L1041.93 59.9505L1041.25 58.069ZM1008.83 71.1813V58.3051H1006.83V71.1813H1008.83ZM1008.15 59.2527L1030.57 51.6935L1029.93 49.7983L1007.51 57.3575L1008.15 59.2527ZM1030.56 49.7975L1008.14 42.3023L1007.51 44.1991L1029.93 51.6943L1030.56 49.7975ZM1055.35 43.2507H1054.35V43.9708L1055.03 44.1991L1055.35 43.2507ZM1055.35 30.3745L1055.69 29.4337L1054.35 28.9509V30.3745H1055.35ZM1089.11 42.5461H1090.11V41.8436L1089.45 41.6053L1089.11 42.5461ZM1089.11 59.0097L1089.45 59.9505L1090.11 59.7122V59.0097H1089.11ZM1055.35 71.1813H1054.35V72.6049L1055.69 72.122L1055.35 71.1813ZM1055.35 58.3051L1055.03 57.3575L1054.35 57.5869V58.3051H1055.35ZM1077.77 50.7459L1078.09 51.6935L1080.92 50.7418L1078.09 49.7975L1077.77 50.7459ZM1056.35 43.2507V30.3745H1054.35V43.2507H1056.35ZM1055.01 31.3152L1088.77 43.4868L1089.45 41.6053L1055.69 29.4337L1055.01 31.3152ZM1088.11 42.5461V59.0097H1090.11V42.5461H1088.11ZM1088.77 58.069L1055.01 70.2406L1055.69 72.122L1089.45 59.9505L1088.77 58.069ZM1056.35 71.1813V58.3051H1054.35V71.1813H1056.35ZM1055.67 59.2527L1078.09 51.6935L1077.45 49.7983L1055.03 57.3575L1055.67 59.2527ZM1078.09 49.7975L1055.67 42.3023L1055.03 44.1991L1077.46 51.6943L1078.09 49.7975ZM1102.88 43.2507H1101.88V43.9708L1102.56 44.1991L1102.88 43.2507ZM1102.88 30.3745L1103.22 29.4337L1101.88 28.9509V30.3745H1102.88ZM1136.64 42.5461H1137.64V41.8436L1136.98 41.6053L1136.64 42.5461ZM1136.64 59.0097L1136.98 59.9505L1137.64 59.7122V59.0097H1136.64ZM1102.88 71.1813H1101.88V72.6049L1103.22 72.122L1102.88 71.1813ZM1102.88 58.3051L1102.56 57.3575L1101.88 57.5869V58.3051H1102.88ZM1125.3 50.7459L1125.62 51.6935L1128.44 50.7418L1125.62 49.7975L1125.3 50.7459ZM1103.88 43.2507V30.3745H1101.88V43.2507H1103.88ZM1102.54 31.3152L1136.3 43.4868L1136.98 41.6053L1103.22 29.4337L1102.54 31.3152ZM1135.64 42.5461V59.0097H1137.64V42.5461H1135.64ZM1136.3 58.069L1102.54 70.2406L1103.22 72.122L1136.98 59.9505L1136.3 58.069ZM1103.88 71.1813V58.3051H1101.88V71.1813H1103.88ZM1103.2 59.2527L1125.62 51.6935L1124.98 49.7983L1102.56 57.3575L1103.2 59.2527ZM1125.62 49.7975L1103.19 42.3023L1102.56 44.1991L1124.98 51.6943L1125.62 49.7975Z" fill="#D7F367"/>
<path d="M1189.46 61.0597H1188.46V62.0666L1189.46 62.0597L1189.46 61.0597ZM1220.21 60.4191L1221.18 60.6661L1221.51 59.3634L1220.16 59.42L1220.21 60.4191ZM1219.18 66.697L1218.18 66.6333L1218.18 66.6333L1219.18 66.697ZM1218.99 74V75H1219.99V74H1218.99ZM1173.83 74L1172.83 73.9588L1172.78 75H1173.83V74ZM1173.83 27.4917V26.4917H1172.78L1172.83 27.5329L1173.83 27.4917ZM1189.46 27.4917H1190.46V26.4917H1189.46V27.4917ZM1189.46 62.0597C1201.86 61.9742 1212.12 61.7605 1220.25 61.4182L1220.16 59.42C1212.07 59.7609 1201.83 59.9743 1189.45 60.0597L1189.46 62.0597ZM1219.24 60.1721C1218.67 62.4033 1218.32 64.5575 1218.18 66.6333L1220.18 66.7607C1220.3 64.8221 1220.63 62.791 1221.18 60.6661L1219.24 60.1721ZM1218.18 66.6333C1218.05 68.6686 1217.99 71.1254 1217.99 74H1219.99C1219.99 71.1518 1220.05 68.74 1220.18 66.7607L1218.18 66.6333ZM1218.99 73H1173.83V75H1218.99V73ZM1174.83 74.0412C1175.17 65.7442 1175.34 57.979 1175.34 50.7459H1173.34C1173.34 57.9478 1173.17 65.6853 1172.83 73.9588L1174.83 74.0412ZM1175.34 50.7459C1175.34 43.5127 1175.17 35.7475 1174.83 27.4505L1172.83 27.5329C1173.17 35.8064 1173.34 43.5439 1173.34 50.7459H1175.34ZM1173.83 28.4917H1189.46V26.4917H1173.83V28.4917ZM1188.46 27.4917V61.0597H1190.46V27.4917H1188.46ZM1249.56 57.9848V56.9848H1248.36L1248.57 58.1636L1249.56 57.9848ZM1252.06 62.5971L1251.39 63.3392L1251.4 63.3506L1251.41 63.3614L1252.06 62.5971ZM1262.88 63.3018L1263.28 64.2197L1263.29 64.2152L1263.3 64.2105L1262.88 63.3018ZM1266.66 60.2909L1267.1 59.3939L1266.35 59.0233L1265.86 59.6996L1266.66 60.2909ZM1278.07 64.8393L1278.98 65.2442L1279.42 64.2466L1278.39 63.8932L1278.07 64.8393ZM1270.83 72.0141L1271.28 72.9063L1271.28 72.9042L1270.83 72.0141ZM1241.1 69.6439L1240.4 70.3598L1240.41 70.3684L1241.1 69.6439ZM1241.1 43.3788L1241.8 44.0992L1241.8 44.0992L1241.1 43.3788ZM1268.58 40.5602L1268.17 41.4709L1268.17 41.4709L1268.58 40.5602ZM1275.95 46.646L1275.12 47.1943L1275.12 47.2007L1275.95 46.646ZM1278.39 57.9848V58.9848H1279.24L1279.37 58.1368L1278.39 57.9848ZM1252.89 49.2725L1253.4 50.1323L1253.4 50.1323L1252.89 49.2725ZM1250.01 52.6036L1249.08 52.2371L1248.54 53.6036H1250.01V52.6036ZM1265.13 52.6036V53.6036H1266.57L1266.06 52.2525L1265.13 52.6036ZM1262.63 49.3365L1262.03 50.1401L1262.04 50.1473L1262.05 50.1543L1262.63 49.3365ZM1270.44 56.9848H1249.56V58.9848H1270.44V56.9848ZM1248.57 58.1636C1248.95 60.2436 1249.89 61.9847 1251.39 63.3392L1252.73 61.855C1251.58 60.818 1250.85 59.4841 1250.54 57.8059L1248.57 58.1636ZM1251.41 63.3614C1253.02 64.7163 1255.2 65.3268 1257.82 65.3268V63.3268C1255.49 63.3268 1253.83 62.7841 1252.7 61.8329L1251.41 63.3614ZM1257.82 65.3268C1259.75 65.3268 1261.57 64.9594 1263.28 64.2197L1262.49 62.384C1261.04 63.0108 1259.49 63.3268 1257.82 63.3268V65.3268ZM1263.3 64.2105C1265.02 63.4204 1266.42 62.3133 1267.47 60.8823L1265.86 59.6996C1265.03 60.831 1263.91 61.7312 1262.47 62.3931L1263.3 64.2105ZM1266.22 61.188C1269.14 62.6237 1272.98 64.1555 1277.74 65.7854L1278.39 63.8932C1273.67 62.2773 1269.91 60.7769 1267.1 59.3939L1266.22 61.188ZM1277.15 64.4344C1275.94 67.1741 1273.71 69.4127 1270.37 71.1241L1271.28 72.9042C1274.95 71.0281 1277.55 68.4835 1278.98 65.2442L1277.15 64.4344ZM1270.37 71.1219C1267.1 72.7777 1262.75 73.6406 1257.25 73.6406V75.6406C1262.93 75.6406 1267.63 74.7525 1271.28 72.9063L1270.37 71.1219ZM1257.25 73.6406C1250.12 73.6406 1245.03 72.0024 1241.79 68.9193L1240.41 70.3684C1244.18 73.9476 1249.85 75.6406 1257.25 75.6406V73.6406ZM1241.8 68.928C1238.56 65.7677 1236.91 61.6189 1236.91 56.3832H1234.91C1234.91 62.0806 1236.73 66.7722 1240.4 70.3597L1241.8 68.928ZM1236.91 56.3832C1236.91 51.2832 1238.56 47.2198 1241.8 44.0992L1240.41 42.6585C1236.73 46.2002 1234.91 50.8065 1234.91 56.3832H1236.91ZM1241.8 44.0992C1244.99 41.0217 1250.07 39.3821 1257.25 39.3821V37.3821C1249.82 37.3821 1244.13 39.0737 1240.41 42.6585L1241.8 44.0992ZM1257.25 39.3821C1261.49 39.3821 1265.13 40.09 1268.17 41.4709L1269 39.6494C1265.64 38.1263 1261.71 37.3821 1257.25 37.3821V39.3821ZM1268.17 41.4709C1271.22 42.8551 1273.52 44.7674 1275.12 47.1943L1276.79 46.0976C1274.96 43.3142 1272.35 41.1693 1269 39.6494L1268.17 41.4709ZM1275.12 47.2007C1276.71 49.5853 1277.51 52.3358 1277.51 55.4864H1279.51C1279.51 51.9747 1278.61 48.8315 1276.78 46.0913L1275.12 47.2007ZM1277.51 55.4864C1277.51 56.5849 1277.47 57.3555 1277.4 57.8327L1279.37 58.1368C1279.47 57.5036 1279.51 56.6086 1279.51 55.4864H1277.51ZM1278.39 56.9848H1270.44V58.9848H1278.39V56.9848ZM1258.14 47.0553C1255.89 47.0553 1253.94 47.4831 1252.38 48.4126L1253.4 50.1323C1254.57 49.4389 1256.13 49.0553 1258.14 49.0553V47.0553ZM1252.38 48.4126C1250.83 49.3314 1249.72 50.6106 1249.08 52.2371L1250.94 52.9702C1251.41 51.778 1252.21 50.8364 1253.4 50.1323L1252.38 48.4126ZM1250.01 53.6036H1265.13V51.6036H1250.01V53.6036ZM1266.06 52.2525C1265.48 50.7046 1264.53 49.4501 1263.2 48.5187L1262.05 50.1543C1263.03 50.8458 1263.74 51.7694 1264.19 52.9548L1266.06 52.2525ZM1263.22 48.533C1261.85 47.5195 1260.13 47.0553 1258.14 47.0553V49.0553C1259.82 49.0553 1261.09 49.4453 1262.03 50.1401L1263.22 48.533ZM1324.48 50.4896L1324.42 51.4875L1325.48 51.557V50.4896H1324.48ZM1313.72 49.9131L1313.76 48.9138L1312.73 48.8732L1312.72 49.9036L1313.72 49.9131ZM1313.66 56.7035L1312.66 56.6941V56.7035H1313.66ZM1315.13 62.1487L1314.33 62.7446L1314.34 62.7592L1314.35 62.7734L1315.13 62.1487ZM1323.33 63.8143L1324.33 63.9218L1324.47 62.5793L1323.14 62.832L1323.33 63.8143ZM1323.2 73.8719L1323.38 74.8557L1324.23 74.7017L1324.2 73.8406L1323.2 73.8719ZM1302.83 71.0532L1302.07 71.6973L1302.07 71.7046L1302.08 71.7117L1302.83 71.0532ZM1299.76 60.9316L1298.76 60.9256V60.9316H1299.76ZM1299.82 50.1053L1300.82 50.1112L1300.83 49.0615L1299.78 49.1062L1299.82 50.1053ZM1293.54 50.4896H1292.54V51.5711L1293.62 51.4866L1293.54 50.4896ZM1293.54 39.1508V38.1508H1292.54V39.1508H1293.54ZM1299.18 37.0368L1299.86 37.774L1299.86 37.774L1299.18 37.0368ZM1301.94 31.976V30.976H1301.08L1300.95 31.8256L1301.94 31.976ZM1319.36 31.976L1320.17 32.5649L1321.33 30.976H1319.36V31.976ZM1312.12 39.1508L1311.56 38.3229L1308.86 40.1508H1312.12V39.1508ZM1324.48 39.1508H1325.48V38.1508H1324.48V39.1508ZM1324.55 49.4917C1320.61 49.235 1317.02 49.0424 1313.76 48.9138L1313.68 50.9123C1316.92 51.04 1320.5 51.2317 1324.42 51.4875L1324.55 49.4917ZM1312.72 49.9036L1312.66 56.6941L1314.66 56.713L1314.72 49.9225L1312.72 49.9036ZM1312.66 56.7035C1312.66 59.1409 1313.18 61.1916 1314.33 62.7446L1315.93 61.5529C1315.12 60.458 1314.66 58.8786 1314.66 56.7035H1312.66ZM1314.35 62.7734C1315.65 64.3997 1317.82 65.0705 1320.51 65.0705V63.0705C1318.08 63.0705 1316.66 62.4602 1315.91 61.524L1314.35 62.7734ZM1320.51 65.0705C1321.55 65.0705 1322.56 64.9801 1323.52 64.7966L1323.14 62.832C1322.31 62.9902 1321.44 63.0705 1320.51 63.0705V65.0705ZM1322.34 63.7068C1322.16 65.3234 1322.08 66.9608 1322.08 68.6189H1324.08C1324.08 67.0311 1324.16 65.4655 1324.33 63.9218L1322.34 63.7068ZM1322.08 68.6189C1322.08 69.4064 1322.12 71.1744 1322.2 73.9031L1324.2 73.8406C1324.12 71.1028 1324.08 69.3688 1324.08 68.6189H1322.08ZM1323.02 72.888C1321.17 73.2258 1319.63 73.4327 1318.4 73.5147L1318.53 75.5103C1319.86 75.4215 1321.48 75.2012 1323.38 74.8557L1323.02 72.888ZM1318.4 73.5147C1317.15 73.598 1315.51 73.6406 1313.47 73.6406V75.6406C1315.53 75.6406 1317.22 75.5978 1318.53 75.5103L1318.4 73.5147ZM1313.47 73.6406C1308.59 73.6406 1305.4 72.4709 1303.58 70.3947L1302.08 71.7117C1304.45 74.4187 1308.34 75.6406 1313.47 75.6406V73.6406ZM1303.6 70.4091C1301.75 68.2102 1300.76 65.0932 1300.76 60.9316H1298.76C1298.76 65.3968 1299.82 69.0275 1302.07 71.6973L1303.6 70.4091ZM1300.76 60.9375L1300.82 50.1112L1298.82 50.0993L1298.76 60.9256L1300.76 60.9375ZM1299.78 49.1062C1297.76 49.1921 1295.65 49.321 1293.46 49.4927L1293.62 51.4866C1295.79 51.3166 1297.87 51.1892 1299.86 51.1043L1299.78 49.1062ZM1294.54 50.4896V39.1508H1292.54V50.4896H1294.54ZM1293.54 40.1508C1296 40.1508 1298.12 39.364 1299.86 37.774L1298.5 36.2997C1297.16 37.5283 1295.53 38.1508 1293.54 38.1508V40.1508ZM1299.86 37.774C1301.55 36.2187 1302.59 34.3283 1302.92 32.1264L1300.95 31.8256C1300.68 33.5528 1299.88 35.0362 1298.5 36.2997L1299.86 37.774ZM1301.94 32.976H1319.36V30.976H1301.94V32.976ZM1318.55 31.3871C1316.43 34.2976 1314.1 36.6033 1311.56 38.3229L1312.68 39.9787C1315.44 38.111 1317.93 35.6334 1320.17 32.5649L1318.55 31.3871ZM1312.12 40.1508H1324.48V38.1508H1312.12V40.1508ZM1323.48 39.1508V50.4896H1325.48V39.1508H1323.48ZM1350.54 73.1672L1350.27 74.1305L1350.28 74.134L1350.54 73.1672ZM1340.16 68.5548L1339.35 67.963L1338.72 68.8275L1339.63 69.4003L1340.16 68.5548ZM1346.89 59.3941L1347.47 58.5816L1346.67 58.0051L1346.08 58.8022L1346.89 59.3941ZM1354 62.7253L1353.72 63.6851L1353.72 63.6871L1353.73 63.689L1354 62.7253ZM1365.59 63.1096L1366.04 64.0041L1366.05 64.0005L1366.05 63.9968L1365.59 63.1096ZM1362.39 58.8816L1362.33 57.8833L1362.33 57.8836L1362.39 58.8816ZM1360.72 59.0097L1360.62 58.0147L1360.62 58.0154L1360.61 58.0163L1360.72 59.0097ZM1344.58 57.2801L1344.05 58.1307L1344.06 58.1362L1344.07 58.1416L1344.58 57.2801ZM1346.37 41.5211L1346.87 42.3868L1346.88 42.3822L1346.37 41.5211ZM1372.19 39.8555L1371.91 40.8166L1371.92 40.8186L1371.93 40.8205L1372.19 39.8555ZM1381.35 44.1476L1382.06 44.8516L1382.88 44.0234L1381.94 43.3383L1381.35 44.1476ZM1373.98 51.5787L1373.52 52.4636L1374.17 52.8082L1374.69 52.2827L1373.98 51.5787ZM1367.13 48.8881L1366.87 49.8547L1366.88 49.8577L1366.9 49.8605L1367.13 48.8881ZM1356.94 48.9522L1356.46 48.0796L1356.46 48.0796L1356.94 48.9522ZM1355.98 52.4114L1355.36 53.1923L1355.38 53.2067L1355.39 53.2202L1355.98 52.4114ZM1360.79 52.7318L1360.72 51.7341L1360.7 51.7352L1360.69 51.7367L1360.79 52.7318ZM1378.08 54.6536L1378.61 53.8014L1378.61 53.8014L1378.08 54.6536ZM1376.35 71.5657L1376.85 72.434L1376.86 72.4295L1376.35 71.5657ZM1361.49 73.6406C1358 73.6406 1354.43 73.1622 1350.79 72.2004L1350.28 74.134C1354.08 75.1367 1357.81 75.6406 1361.49 75.6406V73.6406ZM1350.81 72.204C1347.23 71.2053 1343.86 69.7077 1340.69 67.7093L1339.63 69.4003C1342.95 71.5018 1346.5 73.0791 1350.27 74.1304L1350.81 72.204ZM1340.97 69.1467L1347.69 59.9859L1346.08 58.8022L1339.35 67.963L1340.97 69.1467ZM1346.3 60.2066C1348.38 61.6933 1350.85 62.848 1353.72 63.6851L1354.28 61.7654C1351.59 60.9796 1349.33 59.9136 1347.47 58.5816L1346.3 60.2066ZM1353.73 63.689C1356.56 64.4723 1359.04 64.8784 1361.17 64.8784V62.8784C1359.28 62.8784 1356.99 62.5157 1354.26 61.7615L1353.73 63.689ZM1361.17 64.8784C1363.16 64.8784 1364.81 64.6179 1366.04 64.0041L1365.14 62.2152C1364.32 62.6264 1363.03 62.8784 1361.17 62.8784V64.8784ZM1366.05 63.9968C1367.3 63.3496 1368.19 62.3692 1368.19 60.9956H1366.19C1366.19 61.3303 1366.02 61.7593 1365.13 62.2224L1366.05 63.9968ZM1368.19 60.9956C1368.19 60.022 1367.81 59.1815 1367.02 58.5941L1365.82 60.1941C1366.07 60.3754 1366.19 60.6026 1366.19 60.9956H1368.19ZM1367.02 58.5941C1366.28 58.037 1365.34 57.8175 1364.31 57.8175V59.8175C1365.08 59.8175 1365.54 59.9824 1365.82 60.1941L1367.02 58.5941ZM1364.31 57.8175C1363.73 57.8175 1363.07 57.8398 1362.33 57.8833L1362.45 59.8799C1363.16 59.838 1363.78 59.8175 1364.31 59.8175V57.8175ZM1362.33 57.8836C1361.64 57.9266 1361.07 57.9702 1360.62 58.0147L1360.82 60.0048C1361.23 59.9638 1361.77 59.922 1362.45 59.8797L1362.33 57.8836ZM1360.61 58.0163C1358.43 58.268 1356.18 58.3941 1353.87 58.3941V60.3941C1356.25 60.3941 1358.58 60.264 1360.84 60.0031L1360.61 58.0163ZM1353.87 58.3941C1350.18 58.3941 1347.28 57.7098 1345.09 56.4185L1344.07 58.1416C1346.66 59.6691 1349.95 60.3941 1353.87 60.3941V58.3941ZM1345.11 56.4295C1343.11 55.1942 1342.06 53.2039 1342.06 50.2334H1340.06C1340.06 53.7544 1341.35 56.4618 1344.05 58.1307L1345.11 56.4295ZM1342.06 50.2334C1342.06 46.8694 1343.61 44.2774 1346.87 42.3867L1345.87 40.6554C1342.05 42.8646 1340.06 46.0809 1340.06 50.2334H1342.06ZM1346.88 42.3822C1350.2 40.4225 1355.2 39.3821 1362 39.3821V37.3821C1355.06 37.3821 1349.64 38.4343 1345.87 40.6599L1346.88 42.3822ZM1362 39.3821C1365.28 39.3821 1368.58 39.8587 1371.91 40.8166L1372.47 38.8944C1368.97 37.8877 1365.48 37.3821 1362 37.3821V39.3821ZM1371.93 40.8205C1375.28 41.7314 1378.22 43.1128 1380.76 44.9569L1381.94 43.3383C1379.18 41.3387 1376.02 39.8587 1372.45 38.8905L1371.93 40.8205ZM1380.64 43.4435L1373.27 50.8746L1374.69 52.2827L1382.06 44.8516L1380.64 43.4435ZM1374.45 50.6937C1371.96 49.3831 1369.6 48.4517 1367.36 47.9157L1366.9 49.8605C1368.93 50.3494 1371.14 51.2118 1373.52 52.4636L1374.45 50.6937ZM1367.39 47.9215C1365.21 47.3444 1363.01 47.0553 1360.79 47.0553V49.0553C1362.84 49.0553 1364.86 49.3213 1366.87 49.8547L1367.39 47.9215ZM1360.79 47.0553C1359.16 47.0553 1357.7 47.3815 1356.46 48.0796L1357.43 49.8247C1358.32 49.327 1359.43 49.0553 1360.79 49.0553V47.0553ZM1356.46 48.0796C1355.27 48.7428 1354.34 49.6897 1354.34 51.0021H1356.34C1356.34 50.777 1356.48 50.3573 1357.43 49.8247L1356.46 48.0796ZM1354.34 51.0021C1354.34 51.8714 1354.67 52.6415 1355.36 53.1923L1356.61 51.6306C1356.44 51.498 1356.34 51.3286 1356.34 51.0021H1354.34ZM1355.39 53.2202C1356.07 53.7143 1356.89 53.9239 1357.78 53.9239V51.9239C1357.21 51.9239 1356.83 51.792 1356.57 51.6027L1355.39 53.2202ZM1357.78 53.9239C1358.55 53.9239 1359.59 53.8561 1360.89 53.7268L1360.69 51.7367C1359.42 51.8636 1358.45 51.9239 1357.78 51.9239V53.9239ZM1360.86 53.7294C1363.97 53.5162 1366.27 53.4114 1367.77 53.4114V51.4114C1366.2 51.4114 1363.84 51.5202 1360.72 51.7341L1360.86 53.7294ZM1367.77 53.4114C1372.12 53.4114 1375.35 54.1472 1377.56 55.5058L1378.61 53.8014C1375.95 52.1704 1372.3 51.4114 1367.77 51.4114V53.4114ZM1377.56 55.5058C1379.67 56.8025 1380.74 58.7488 1380.74 61.5081H1382.74C1382.74 58.1176 1381.36 55.4942 1378.61 53.8014L1377.56 55.5058ZM1380.74 61.5081C1380.74 65.8123 1379.09 68.8111 1375.85 70.7019L1376.86 72.4295C1380.79 70.1349 1382.74 66.4287 1382.74 61.5081H1380.74ZM1375.86 70.6974C1372.48 72.627 1367.72 73.6406 1361.49 73.6406V75.6406C1367.9 75.6406 1373.05 74.6042 1376.85 72.4339L1375.86 70.6974ZM1450.42 47.4788V46.4788H1449.42V47.4788H1450.42ZM1477.77 47.4788H1478.77V46.4788H1477.77V47.4788ZM1477.77 74V75H1478.77V74H1477.77ZM1466.5 74L1465.51 74.1178L1465.61 75H1466.5V74ZM1465.15 62.6612L1466.15 62.5434L1464.2 62.3601L1465.15 62.6612ZM1458.3 71.6938L1458.81 72.5523L1458.81 72.5523L1458.3 71.6938ZM1434.73 71.7579L1434.23 72.6241L1434.23 72.6268L1434.73 71.7579ZM1426.85 63.494L1425.96 63.958L1425.96 63.9662L1426.85 63.494ZM1430.88 32.8088L1431.58 33.5259L1431.58 33.5259L1430.88 32.8088ZM1466.76 28.837L1466.36 29.7562L1466.37 29.7576L1466.76 28.837ZM1477.52 37.1649L1477.97 38.0554L1479.05 37.503L1478.31 36.5479L1477.52 37.1649ZM1466.24 43.0585L1465.78 42.1738L1465.77 42.1798L1465.75 42.186L1466.24 43.0585ZM1464.64 43.9554L1463.93 44.6625L1464.47 45.1978L1465.13 44.8279L1464.64 43.9554ZM1458.81 40.2399L1458.45 41.1732L1458.46 41.1762L1458.47 41.1791L1458.81 40.2399ZM1442.6 42.2258L1443.33 42.9107L1443.34 42.9034L1442.6 42.2258ZM1442.8 58.4332L1442.1 59.1474L1442.1 59.1543L1442.8 58.4332ZM1458.3 60.7394L1458.01 59.7821L1458 59.7841L1458.3 60.7394ZM1462.91 57.8566L1463.65 58.5282L1465.17 56.8566H1462.91V57.8566ZM1450.42 57.8566H1449.42V58.8566H1450.42V57.8566ZM1450.42 48.4788H1477.77V46.4788H1450.42V48.4788ZM1476.77 47.4788V74H1478.77V47.4788H1476.77ZM1477.77 73H1466.5V75H1477.77V73ZM1467.49 73.8822L1466.15 62.5434L1464.16 62.779L1465.51 74.1178L1467.49 73.8822ZM1464.2 62.3601C1462.98 66.2116 1460.84 69.0106 1457.79 70.8353L1458.81 72.5523C1462.34 70.448 1464.76 67.2252 1466.11 62.9623L1464.2 62.3601ZM1457.79 70.8353C1454.69 72.6876 1450.86 73.6406 1446.26 73.6406V75.6406C1451.13 75.6406 1455.34 74.6291 1458.81 72.5523L1457.79 70.8353ZM1446.26 73.6406C1442.1 73.6406 1438.43 72.7156 1435.22 70.8889L1434.23 72.6268C1437.77 74.6438 1441.79 75.6406 1446.26 75.6406V73.6406ZM1435.23 70.8917C1432.07 69.0685 1429.57 66.4549 1427.73 63.0218L1425.96 63.9662C1427.97 67.708 1430.72 70.6035 1434.23 72.6241L1435.23 70.8917ZM1427.73 63.03C1425.94 59.6096 1425.03 55.5889 1425.03 50.938H1423.03C1423.03 55.8537 1423.99 60.2036 1425.96 63.958L1427.73 63.03ZM1425.03 50.938C1425.03 43.5056 1427.24 37.7422 1431.58 33.5259L1430.18 32.0917C1425.38 36.7585 1423.03 43.0813 1423.03 50.938H1425.03ZM1431.58 33.5259C1435.89 29.3403 1442.69 27.1464 1452.21 27.1464V25.1464C1442.43 25.1464 1435.02 27.3942 1430.18 32.0917L1431.58 33.5259ZM1452.21 27.1464C1457.62 27.1464 1462.32 28.0257 1466.36 29.7562L1467.15 27.9179C1462.82 26.0609 1457.83 25.1464 1452.21 25.1464V27.1464ZM1466.37 29.7576C1470.43 31.4826 1473.88 34.1513 1476.73 37.782L1478.31 36.5479C1475.26 32.6621 1471.54 29.7789 1467.15 27.9164L1466.37 29.7576ZM1477.06 36.2745C1475.13 37.26 1471.37 39.2274 1465.78 42.1738L1466.71 43.9433C1472.3 40.9961 1476.06 39.0344 1477.97 38.0554L1477.06 36.2745ZM1465.75 42.186L1464.15 43.0829L1465.13 44.8279L1466.73 43.9311L1465.75 42.186ZM1465.35 43.2483C1463.58 41.4793 1461.51 40.1618 1459.16 39.3006L1458.47 41.1791C1460.55 41.9408 1462.37 43.1003 1463.93 44.6625L1465.35 43.2483ZM1459.17 39.3065C1456.83 38.4065 1454.36 37.9586 1451.77 37.9586V39.9586C1454.13 39.9586 1456.35 40.3649 1458.45 41.1732L1459.17 39.3065ZM1451.77 37.9586C1447.5 37.9586 1444.13 39.0952 1441.87 41.5481L1443.34 42.9034C1445.09 41.0002 1447.83 39.9586 1451.77 39.9586V37.9586ZM1441.88 41.5408C1439.68 43.877 1438.59 46.7763 1438.59 50.1693H1440.59C1440.59 47.2417 1441.52 44.8453 1443.33 42.9107L1441.88 41.5408ZM1438.59 50.1693C1438.59 53.8128 1439.74 56.8393 1442.1 59.1474L1443.5 57.719C1441.58 55.8418 1440.59 53.359 1440.59 50.1693H1438.59ZM1442.1 59.1543C1444.54 61.4948 1448.15 62.5722 1452.73 62.5722V60.5722C1448.42 60.5722 1445.41 59.5569 1443.49 57.7121L1442.1 59.1543ZM1452.73 62.5722C1454.75 62.5722 1456.7 62.2802 1458.6 61.6947L1458 59.7841C1456.31 60.3089 1454.55 60.5722 1452.73 60.5722V62.5722ZM1458.59 61.6966C1460.59 61.0911 1462.29 60.0348 1463.65 58.5282L1462.17 57.1851C1461.06 58.4118 1459.68 59.2773 1458.01 59.7822L1458.59 61.6966ZM1462.91 56.8566H1450.42V58.8566H1462.91V56.8566ZM1451.42 57.8566V47.4788H1449.42V57.8566H1451.42ZM1502.31 68.2986L1501.63 69.0323L1501.63 69.0357L1502.31 68.2986ZM1502.24 32.5525L1501.56 31.8188L1501.56 31.8219L1502.24 32.5525ZM1545.55 32.5525L1544.86 33.2832L1544.87 33.2863L1545.55 32.5525ZM1545.61 68.2986L1546.29 69.0326L1546.29 69.0326L1545.61 68.2986ZM1534.14 58.8816L1534.8 59.6409L1534.8 59.6332L1534.14 58.8816ZM1534.14 41.9695L1533.49 42.7211L1533.49 42.7211L1534.14 41.9695ZM1513.71 41.9695L1514.37 42.7211L1514.37 42.7211L1513.71 41.9695ZM1513.71 58.8175L1514.37 58.0659L1514.37 58.0659L1513.71 58.8175ZM1523.89 73.6406C1514.23 73.6406 1507.33 71.5471 1502.98 67.5614L1501.63 69.0357C1506.51 73.5061 1514 75.6406 1523.89 75.6406V73.6406ZM1502.99 67.5648C1498.62 63.5244 1496.39 57.8371 1496.39 50.3615H1494.39C1494.39 58.2605 1496.77 64.5312 1501.63 69.0323L1502.99 67.5648ZM1496.39 50.3615C1496.39 42.9723 1498.6 37.3249 1502.93 33.2831L1501.56 31.8219C1496.74 36.3216 1494.39 42.5469 1494.39 50.3615H1496.39ZM1502.92 33.2863C1507.27 29.261 1514.19 27.1464 1523.89 27.1464V25.1464C1513.96 25.1464 1506.44 27.3026 1501.56 31.8188L1502.92 33.2863ZM1523.89 27.1464C1533.65 27.1464 1540.56 29.262 1544.86 33.2831L1546.23 31.8219C1541.39 27.3016 1533.87 25.1464 1523.89 25.1464V27.1464ZM1544.87 33.2863C1549.23 37.3288 1551.47 42.9751 1551.47 50.3615H1553.47C1553.47 42.5441 1551.09 36.3177 1546.23 31.8188L1544.87 33.2863ZM1551.47 50.3615C1551.47 57.885 1549.25 63.5698 1544.93 67.5646L1546.29 69.0326C1551.11 64.5713 1553.47 58.298 1553.47 50.3615H1551.47ZM1544.93 67.5646C1540.63 71.5449 1533.69 73.6406 1523.89 73.6406V75.6406C1533.91 75.6406 1541.45 73.5083 1546.29 69.0326L1544.93 67.5646ZM1523.89 62.5722C1528.72 62.5722 1532.43 61.6682 1534.8 59.6409L1533.49 58.1224C1531.67 59.6825 1528.55 60.5722 1523.89 60.5722V62.5722ZM1534.8 59.6332C1537.19 57.5428 1538.28 54.3789 1538.28 50.3615H1536.28C1536.28 54.0314 1535.29 56.5476 1533.49 58.13L1534.8 59.6332ZM1538.28 50.3615C1538.28 46.4212 1537.18 43.3043 1534.8 41.2179L1533.49 42.7211C1535.29 44.3076 1536.28 46.7853 1536.28 50.3615H1538.28ZM1534.8 41.2179C1532.44 39.1417 1528.72 38.2149 1523.89 38.2149V40.2149C1528.55 40.2149 1531.67 41.1245 1533.49 42.7211L1534.8 41.2179ZM1523.89 38.2149C1519.11 38.2149 1515.41 39.1428 1513.05 41.2179L1514.37 42.7211C1516.19 41.1234 1519.29 40.2149 1523.89 40.2149V38.2149ZM1513.05 41.2179C1510.67 43.3043 1509.57 46.4212 1509.57 50.3615H1511.57C1511.57 46.7853 1512.56 44.3076 1514.37 42.7211L1513.05 41.2179ZM1509.57 50.3615C1509.57 54.3403 1510.67 57.4807 1513.05 59.5692L1514.37 58.0659C1512.56 56.4815 1511.57 53.9846 1511.57 50.3615H1509.57ZM1513.05 59.5692C1515.41 61.6443 1519.11 62.5722 1523.89 62.5722V60.5722C1519.29 60.5722 1516.19 59.6636 1514.37 58.0659L1513.05 59.5692ZM1593.46 43.2507H1592.46V43.9708L1593.14 44.1991L1593.46 43.2507ZM1593.46 30.3745L1593.8 29.4337L1592.46 28.9509V30.3745H1593.46ZM1627.22 42.5461H1628.22V41.8436L1627.56 41.6053L1627.22 42.5461ZM1627.22 59.0097L1627.56 59.9505L1628.22 59.7122V59.0097H1627.22ZM1593.46 71.1813H1592.46V72.6049L1593.8 72.122L1593.46 71.1813ZM1593.46 58.3051L1593.14 57.3575L1592.46 57.5869V58.3051H1593.46ZM1615.88 50.7459L1616.2 51.6935L1619.02 50.7418L1616.2 49.7975L1615.88 50.7459ZM1594.46 43.2507V30.3745H1592.46V43.2507H1594.46ZM1593.12 31.3152L1626.88 43.4868L1627.56 41.6053L1593.8 29.4337L1593.12 31.3152ZM1626.22 42.5461V59.0097H1628.22V42.5461H1626.22ZM1626.88 58.069L1593.12 70.2406L1593.8 72.122L1627.56 59.9505L1626.88 58.069ZM1594.46 71.1813V58.3051H1592.46V71.1813H1594.46ZM1593.78 59.2527L1616.2 51.6935L1615.56 49.7983L1593.14 57.3575L1593.78 59.2527ZM1616.2 49.7975L1593.78 42.3023L1593.14 44.1991L1615.56 51.6943L1616.2 49.7975ZM1640.98 43.2507H1639.98V43.9708L1640.67 44.1991L1640.98 43.2507ZM1640.98 30.3745L1641.32 29.4337L1639.98 28.9509V30.3745H1640.98ZM1674.74 42.5461H1675.74V41.8436L1675.08 41.6053L1674.74 42.5461ZM1674.74 59.0097L1675.08 59.9505L1675.74 59.7122V59.0097H1674.74ZM1640.98 71.1813H1639.98V72.6049L1641.32 72.122L1640.98 71.1813ZM1640.98 58.3051L1640.66 57.3575L1639.98 57.5869V58.3051H1640.98ZM1663.41 50.7459L1663.72 51.6935L1666.55 50.7418L1663.72 49.7975L1663.41 50.7459ZM1641.98 43.2507V30.3745H1639.98V43.2507H1641.98ZM1640.64 31.3152L1674.4 43.4868L1675.08 41.6053L1641.32 29.4337L1640.64 31.3152ZM1673.74 42.5461V59.0097H1675.74V42.5461H1673.74ZM1674.4 58.069L1640.64 70.2406L1641.32 72.122L1675.08 59.9505L1674.4 58.069ZM1641.98 71.1813V58.3051H1639.98V71.1813H1641.98ZM1641.3 59.2527L1663.72 51.6935L1663.09 49.7983L1640.66 57.3575L1641.3 59.2527ZM1663.72 49.7975L1641.3 42.3023L1640.67 44.1991L1663.09 51.6943L1663.72 49.7975ZM1688.51 43.2507H1687.51V43.9708L1688.19 44.1991L1688.51 43.2507ZM1688.51 30.3745L1688.85 29.4337L1687.51 28.9509V30.3745H1688.51ZM1722.27 42.5461H1723.27V41.8436L1722.61 41.6053L1722.27 42.5461ZM1722.27 59.0097L1722.61 59.9505L1723.27 59.7122V59.0097H1722.27ZM1688.51 71.1813H1687.51V72.6049L1688.85 72.122L1688.51 71.1813ZM1688.51 58.3051L1688.19 57.3575L1687.51 57.5869V58.3051H1688.51ZM1710.93 50.7459L1711.25 51.6935L1714.07 50.7418L1711.25 49.7975L1710.93 50.7459ZM1689.51 43.2507V30.3745H1687.51V43.2507H1689.51ZM1688.17 31.3152L1721.93 43.4868L1722.61 41.6053L1688.85 29.4337L1688.17 31.3152ZM1721.27 42.5461V59.0097H1723.27V42.5461H1721.27ZM1721.93 58.069L1688.17 70.2406L1688.85 72.122L1722.61 59.9505L1721.93 58.069ZM1689.51 71.1813V58.3051H1687.51V71.1813H1689.51ZM1688.83 59.2527L1711.25 51.6935L1710.61 49.7983L1688.19 57.3575L1688.83 59.2527ZM1711.25 49.7975L1688.83 42.3023L1688.19 44.1991L1710.61 51.6943L1711.25 49.7975Z" fill="white"/>
<path d="M1775.09 61.0597H1774.09V62.0666L1775.1 62.0597L1775.09 61.0597ZM1805.84 60.4191L1806.81 60.6661L1807.14 59.3634L1805.8 59.42L1805.84 60.4191ZM1804.81 66.697L1803.82 66.6333L1803.82 66.6333L1804.81 66.697ZM1804.62 74V75H1805.62V74H1804.62ZM1759.46 74L1758.46 73.9588L1758.42 75H1759.46V74ZM1759.46 27.4917V26.4917H1758.42L1758.46 27.5329L1759.46 27.4917ZM1775.09 27.4917H1776.09V26.4917H1775.09V27.4917ZM1775.1 62.0597C1787.49 61.9742 1797.75 61.7605 1805.88 61.4182L1805.8 59.42C1797.7 59.7609 1787.46 59.9743 1775.08 60.0597L1775.1 62.0597ZM1804.87 60.1721C1804.3 62.4033 1803.95 64.5575 1803.82 66.6333L1805.81 66.7607C1805.94 64.8221 1806.27 62.791 1806.81 60.6661L1804.87 60.1721ZM1803.82 66.6333C1803.69 68.6686 1803.62 71.1254 1803.62 74H1805.62C1805.62 71.1518 1805.69 68.74 1805.81 66.7607L1803.82 66.6333ZM1804.62 73H1759.46V75H1804.62V73ZM1760.46 74.0412C1760.8 65.7442 1760.97 57.979 1760.97 50.7459H1758.97C1758.97 57.9478 1758.8 65.6853 1758.46 73.9588L1760.46 74.0412ZM1760.97 50.7459C1760.97 43.5127 1760.8 35.7475 1760.46 27.4505L1758.46 27.5329C1758.8 35.8064 1758.97 43.5439 1758.97 50.7459H1760.97ZM1759.46 28.4917H1775.09V26.4917H1759.46V28.4917ZM1774.09 27.4917V61.0597H1776.09V27.4917H1774.09ZM1835.19 57.9848V56.9848H1833.99L1834.21 58.1636L1835.19 57.9848ZM1837.69 62.5971L1837.02 63.3392L1837.03 63.3506L1837.04 63.3614L1837.69 62.5971ZM1848.51 63.3018L1848.91 64.2197L1848.92 64.2152L1848.93 64.2105L1848.51 63.3018ZM1852.29 60.2909L1852.74 59.3939L1851.98 59.0233L1851.49 59.6996L1852.29 60.2909ZM1863.7 64.8393L1864.61 65.2442L1865.05 64.2466L1864.02 63.8932L1863.7 64.8393ZM1856.46 72.0141L1856.91 72.9063L1856.91 72.9042L1856.46 72.0141ZM1826.73 69.6439L1826.04 70.3598L1826.04 70.3684L1826.73 69.6439ZM1826.73 43.3788L1827.43 44.0992L1827.43 44.0992L1826.73 43.3788ZM1854.22 40.5602L1853.8 41.4709L1853.8 41.4709L1854.22 40.5602ZM1861.58 46.646L1860.75 47.1943L1860.75 47.2007L1861.58 46.646ZM1864.02 57.9848V58.9848H1864.88L1865.01 58.1368L1864.02 57.9848ZM1838.52 49.2725L1839.03 50.1323L1839.03 50.1323L1838.52 49.2725ZM1835.64 52.6036L1834.71 52.2371L1834.17 53.6036H1835.64V52.6036ZM1850.76 52.6036V53.6036H1852.2L1851.69 52.2525L1850.76 52.6036ZM1848.26 49.3365L1847.66 50.1401L1847.67 50.1473L1847.68 50.1543L1848.26 49.3365ZM1856.07 56.9848H1835.19V58.9848H1856.07V56.9848ZM1834.21 58.1636C1834.58 60.2436 1835.52 61.9847 1837.02 63.3392L1838.36 61.855C1837.21 60.818 1836.48 59.4841 1836.17 57.8059L1834.21 58.1636ZM1837.04 63.3614C1838.65 64.7163 1840.83 65.3268 1843.45 65.3268V63.3268C1841.12 63.3268 1839.46 62.7841 1838.33 61.8329L1837.04 63.3614ZM1843.45 65.3268C1845.38 65.3268 1847.2 64.9594 1848.91 64.2197L1848.12 62.384C1846.67 63.0108 1845.12 63.3268 1843.45 63.3268V65.3268ZM1848.93 64.2105C1850.65 63.4204 1852.05 62.3133 1853.1 60.8823L1851.49 59.6996C1850.66 60.831 1849.54 61.7312 1848.1 62.3931L1848.93 64.2105ZM1851.85 61.188C1854.77 62.6237 1858.61 64.1555 1863.37 65.7854L1864.02 63.8932C1859.3 62.2773 1855.54 60.7769 1852.74 59.3939L1851.85 61.188ZM1862.78 64.4344C1861.57 67.1741 1859.34 69.4127 1856 71.1241L1856.91 72.9042C1860.58 71.0281 1863.18 68.4835 1864.61 65.2442L1862.78 64.4344ZM1856.01 71.1219C1852.74 72.7777 1848.38 73.6406 1842.88 73.6406V75.6406C1848.56 75.6406 1853.26 74.7525 1856.91 72.9063L1856.01 71.1219ZM1842.88 73.6406C1835.75 73.6406 1830.66 72.0024 1827.42 68.9193L1826.04 70.3684C1829.81 73.9476 1835.49 75.6406 1842.88 75.6406V73.6406ZM1827.43 68.928C1824.19 65.7677 1822.55 61.6189 1822.55 56.3832H1820.55C1820.55 62.0806 1822.36 66.7722 1826.04 70.3597L1827.43 68.928ZM1822.55 56.3832C1822.55 51.2832 1824.19 47.2198 1827.43 44.0992L1826.04 42.6585C1822.36 46.2002 1820.55 50.8065 1820.55 56.3832H1822.55ZM1827.43 44.0992C1830.62 41.0217 1835.7 39.3821 1842.88 39.3821V37.3821C1835.45 37.3821 1829.76 39.0737 1826.04 42.6585L1827.43 44.0992ZM1842.88 39.3821C1847.12 39.3821 1850.76 40.09 1853.8 41.4709L1854.63 39.6494C1851.27 38.1263 1847.34 37.3821 1842.88 37.3821V39.3821ZM1853.8 41.4709C1856.86 42.8551 1859.16 44.7674 1860.75 47.1943L1862.42 46.0976C1860.59 43.3142 1857.98 41.1693 1854.63 39.6494L1853.8 41.4709ZM1860.75 47.2007C1862.34 49.5853 1863.15 52.3358 1863.15 55.4864H1865.15C1865.15 51.9747 1864.24 48.8315 1862.42 46.0913L1860.75 47.2007ZM1863.15 55.4864C1863.15 56.5849 1863.1 57.3555 1863.03 57.8327L1865.01 58.1368C1865.1 57.5036 1865.15 56.6086 1865.15 55.4864H1863.15ZM1864.02 56.9848H1856.07V58.9848H1864.02V56.9848ZM1843.77 47.0553C1841.52 47.0553 1839.58 47.4831 1838.01 48.4126L1839.03 50.1323C1840.2 49.4389 1841.76 49.0553 1843.77 49.0553V47.0553ZM1838.01 48.4126C1836.46 49.3314 1835.35 50.6106 1834.71 52.2371L1836.57 52.9702C1837.04 51.778 1837.85 50.8364 1839.03 50.1323L1838.01 48.4126ZM1835.64 53.6036H1850.76V51.6036H1835.64V53.6036ZM1851.69 52.2525C1851.11 50.7046 1850.16 49.4501 1848.83 48.5187L1847.68 50.1543C1848.67 50.8458 1849.38 51.7694 1849.82 52.9548L1851.69 52.2525ZM1848.85 48.533C1847.49 47.5195 1845.76 47.0553 1843.77 47.0553V49.0553C1845.46 49.0553 1846.73 49.4453 1847.66 50.1401L1848.85 48.533ZM1910.12 50.4896L1910.05 51.4875L1911.12 51.557V50.4896H1910.12ZM1899.35 49.9131L1899.39 48.9138L1898.36 48.8732L1898.35 49.9036L1899.35 49.9131ZM1899.29 56.7035L1898.29 56.6941V56.7035H1899.29ZM1900.76 62.1487L1899.96 62.7446L1899.97 62.7592L1899.98 62.7734L1900.76 62.1487ZM1908.96 63.8143L1909.96 63.9218L1910.1 62.5793L1908.78 62.832L1908.96 63.8143ZM1908.84 73.8719L1909.01 74.8557L1909.86 74.7017L1909.83 73.8406L1908.84 73.8719ZM1888.46 71.0532L1887.7 71.6973L1887.7 71.7046L1887.71 71.7117L1888.46 71.0532ZM1885.39 60.9316L1884.39 60.9256V60.9316H1885.39ZM1885.45 50.1053L1886.45 50.1112L1886.46 49.0615L1885.41 49.1062L1885.45 50.1053ZM1879.17 50.4896H1878.17V51.5711L1879.25 51.4866L1879.17 50.4896ZM1879.17 39.1508V38.1508H1878.17V39.1508H1879.17ZM1884.81 37.0368L1885.49 37.774L1885.49 37.774L1884.81 37.0368ZM1887.57 31.976V30.976H1886.71L1886.58 31.8256L1887.57 31.976ZM1904.99 31.976L1905.8 32.5649L1906.96 30.976H1904.99V31.976ZM1897.75 39.1508L1897.19 38.3229L1894.49 40.1508H1897.75V39.1508ZM1910.12 39.1508H1911.12V38.1508H1910.12V39.1508ZM1910.18 49.4917C1906.25 49.235 1902.65 49.0424 1899.39 48.9138L1899.31 50.9123C1902.55 51.04 1906.13 51.2317 1910.05 51.4875L1910.18 49.4917ZM1898.35 49.9036L1898.29 56.6941L1900.29 56.713L1900.35 49.9225L1898.35 49.9036ZM1898.29 56.7035C1898.29 59.1409 1898.81 61.1916 1899.96 62.7446L1901.57 61.5529C1900.75 60.458 1900.29 58.8786 1900.29 56.7035H1898.29ZM1899.98 62.7734C1901.28 64.3997 1903.45 65.0705 1906.14 65.0705V63.0705C1903.71 63.0705 1902.29 62.4602 1901.54 61.524L1899.98 62.7734ZM1906.14 65.0705C1907.18 65.0705 1908.19 64.9801 1909.15 64.7966L1908.78 62.832C1907.95 62.9902 1907.07 63.0705 1906.14 63.0705V65.0705ZM1907.97 63.7068C1907.79 65.3234 1907.71 66.9608 1907.71 68.6189H1909.71C1909.71 67.0311 1909.79 65.4655 1909.96 63.9218L1907.97 63.7068ZM1907.71 68.6189C1907.71 69.4064 1907.75 71.1744 1907.84 73.9031L1909.83 73.8406C1909.75 71.1028 1909.71 69.3688 1909.71 68.6189H1907.71ZM1908.66 72.888C1906.8 73.2258 1905.26 73.4327 1904.03 73.5147L1904.16 75.5103C1905.49 75.4215 1907.11 75.2012 1909.01 74.8557L1908.66 72.888ZM1904.03 73.5147C1902.78 73.598 1901.14 73.6406 1899.1 73.6406V75.6406C1901.16 75.6406 1902.85 75.5978 1904.16 75.5103L1904.03 73.5147ZM1899.1 73.6406C1894.23 73.6406 1891.03 72.4709 1889.22 70.3947L1887.71 71.7117C1890.08 74.4187 1893.98 75.6406 1899.1 75.6406V73.6406ZM1889.23 70.4091C1887.38 68.2102 1886.39 65.0932 1886.39 60.9316H1884.39C1884.39 65.3968 1885.45 69.0275 1887.7 71.6973L1889.23 70.4091ZM1886.39 60.9375L1886.45 50.1112L1884.45 50.0993L1884.39 60.9256L1886.39 60.9375ZM1885.41 49.1062C1883.39 49.1921 1881.29 49.321 1879.1 49.4927L1879.25 51.4866C1881.42 51.3166 1883.5 51.1892 1885.5 51.1043L1885.41 49.1062ZM1880.17 50.4896V39.1508H1878.17V50.4896H1880.17ZM1879.17 40.1508C1881.63 40.1508 1883.75 39.364 1885.49 37.774L1884.14 36.2997C1882.8 37.5283 1881.16 38.1508 1879.17 38.1508V40.1508ZM1885.49 37.774C1887.18 36.2187 1888.22 34.3283 1888.56 32.1264L1886.58 31.8256C1886.32 33.5528 1885.51 35.0362 1884.14 36.2997L1885.49 37.774ZM1887.57 32.976H1904.99V30.976H1887.57V32.976ZM1904.18 31.3871C1902.06 34.2976 1899.73 36.6033 1897.19 38.3229L1898.31 39.9787C1901.07 38.111 1903.56 35.6334 1905.8 32.5649L1904.18 31.3871ZM1897.75 40.1508H1910.12V38.1508H1897.75V40.1508ZM1909.12 39.1508V50.4896H1911.12V39.1508H1909.12ZM1936.17 73.1672L1935.9 74.1305L1935.91 74.134L1936.17 73.1672ZM1925.79 68.5548L1924.99 67.963L1924.35 68.8275L1925.26 69.4003L1925.79 68.5548ZM1932.52 59.3941L1933.1 58.5816L1932.3 58.0051L1931.71 58.8022L1932.52 59.3941ZM1939.63 62.7253L1939.35 63.6851L1939.36 63.6871L1939.36 63.689L1939.63 62.7253ZM1951.22 63.1096L1951.67 64.0041L1951.68 64.0005L1951.69 63.9968L1951.22 63.1096ZM1948.02 58.8816L1947.96 57.8833L1947.96 57.8836L1948.02 58.8816ZM1946.36 59.0097L1946.26 58.0147L1946.25 58.0154L1946.24 58.0163L1946.36 59.0097ZM1930.21 57.2801L1929.69 58.1307L1929.7 58.1362L1929.7 58.1416L1930.21 57.2801ZM1932.01 41.5211L1932.51 42.3868L1932.51 42.3822L1932.01 41.5211ZM1957.82 39.8555L1957.55 40.8166L1957.55 40.8186L1957.56 40.8205L1957.82 39.8555ZM1966.98 44.1476L1967.69 44.8516L1968.51 44.0234L1967.57 43.3383L1966.98 44.1476ZM1959.62 51.5787L1959.15 52.4636L1959.81 52.8082L1960.33 52.2827L1959.62 51.5787ZM1952.76 48.8881L1952.51 49.8547L1952.52 49.8577L1952.53 49.8605L1952.76 48.8881ZM1942.58 48.9522L1942.09 48.0796L1942.09 48.0796L1942.58 48.9522ZM1941.61 52.4114L1940.99 53.1923L1941.01 53.2067L1941.03 53.2202L1941.61 52.4114ZM1946.42 52.7318L1946.35 51.7341L1946.34 51.7352L1946.32 51.7367L1946.42 52.7318ZM1963.72 54.6536L1964.24 53.8014L1964.24 53.8014L1963.72 54.6536ZM1961.99 71.5657L1962.48 72.434L1962.49 72.4295L1961.99 71.5657ZM1947.12 73.6406C1943.63 73.6406 1940.06 73.1622 1936.43 72.2004L1935.91 74.134C1939.71 75.1367 1943.44 75.6406 1947.12 75.6406V73.6406ZM1936.44 72.204C1932.86 71.2053 1929.49 69.7077 1926.33 67.7093L1925.26 69.4003C1928.59 71.5018 1932.13 73.0791 1935.9 74.1304L1936.44 72.204ZM1926.6 69.1467L1933.32 59.9859L1931.71 58.8022L1924.99 67.963L1926.6 69.1467ZM1931.94 60.2066C1934.01 61.6933 1936.48 62.848 1939.35 63.6851L1939.91 61.7654C1937.22 60.9796 1934.96 59.9136 1933.1 58.5816L1931.94 60.2066ZM1939.36 63.689C1942.19 64.4723 1944.68 64.8784 1946.8 64.8784V62.8784C1944.92 62.8784 1942.62 62.5157 1939.9 61.7615L1939.36 63.689ZM1946.8 64.8784C1948.79 64.8784 1950.44 64.6179 1951.67 64.0041L1950.78 62.2152C1949.95 62.6264 1948.66 62.8784 1946.8 62.8784V64.8784ZM1951.69 63.9968C1952.93 63.3496 1953.83 62.3692 1953.83 60.9956H1951.83C1951.83 61.3303 1951.65 61.7593 1950.76 62.2224L1951.69 63.9968ZM1953.83 60.9956C1953.83 60.022 1953.44 59.1815 1952.66 58.5941L1951.46 60.1941C1951.7 60.3754 1951.83 60.6026 1951.83 60.9956H1953.83ZM1952.66 58.5941C1951.91 58.037 1950.97 57.8175 1949.94 57.8175V59.8175C1950.71 59.8175 1951.17 59.9824 1951.46 60.1941L1952.66 58.5941ZM1949.94 57.8175C1949.36 57.8175 1948.7 57.8398 1947.96 57.8833L1948.08 59.8799C1948.79 59.838 1949.41 59.8175 1949.94 59.8175V57.8175ZM1947.96 57.8836C1947.27 57.9266 1946.7 57.9702 1946.26 58.0147L1946.45 60.0048C1946.86 59.9638 1947.41 59.922 1948.08 59.8797L1947.96 57.8836ZM1946.24 58.0163C1944.06 58.268 1941.81 58.3941 1939.5 58.3941V60.3941C1941.89 60.3941 1944.21 60.264 1946.47 60.0031L1946.24 58.0163ZM1939.5 58.3941C1935.82 58.3941 1932.91 57.7098 1930.72 56.4185L1929.7 58.1416C1932.3 59.6691 1935.58 60.3941 1939.5 60.3941V58.3941ZM1930.74 56.4295C1928.74 55.1942 1927.69 53.2039 1927.69 50.2334H1925.69C1925.69 53.7544 1926.99 56.4618 1929.69 58.1307L1930.74 56.4295ZM1927.69 50.2334C1927.69 46.8694 1929.24 44.2774 1932.51 42.3867L1931.51 40.6554C1927.68 42.8646 1925.69 46.0809 1925.69 50.2334H1927.69ZM1932.51 42.3822C1935.83 40.4225 1940.83 39.3821 1947.64 39.3821V37.3821C1940.69 37.3821 1935.27 38.4343 1931.5 40.6599L1932.51 42.3822ZM1947.64 39.3821C1950.91 39.3821 1954.21 39.8587 1957.55 40.8166L1958.1 38.8944C1954.6 37.8877 1951.11 37.3821 1947.64 37.3821V39.3821ZM1957.56 40.8205C1960.91 41.7314 1963.85 43.1128 1966.4 44.9569L1967.57 43.3383C1964.82 41.3387 1961.65 39.8587 1958.08 38.8905L1957.56 40.8205ZM1966.27 43.4435L1958.91 50.8746L1960.33 52.2827L1967.69 44.8516L1966.27 43.4435ZM1960.08 50.6937C1957.59 49.3831 1955.23 48.4517 1952.99 47.9157L1952.53 49.8605C1954.57 50.3494 1956.77 51.2118 1959.15 52.4636L1960.08 50.6937ZM1953.02 47.9215C1950.84 47.3444 1948.64 47.0553 1946.42 47.0553V49.0553C1948.47 49.0553 1950.49 49.3213 1952.51 49.8547L1953.02 47.9215ZM1946.42 47.0553C1944.79 47.0553 1943.33 47.3815 1942.09 48.0796L1943.06 49.8247C1943.95 49.327 1945.06 49.0553 1946.42 49.0553V47.0553ZM1942.09 48.0796C1940.9 48.7428 1939.97 49.6897 1939.97 51.0021H1941.97C1941.97 50.777 1942.11 50.3573 1943.06 49.8247L1942.09 48.0796ZM1939.97 51.0021C1939.97 51.8714 1940.3 52.6415 1940.99 53.1923L1942.24 51.6306C1942.07 51.498 1941.97 51.3286 1941.97 51.0021H1939.97ZM1941.03 53.2202C1941.71 53.7143 1942.52 53.9239 1943.41 53.9239V51.9239C1942.84 51.9239 1942.46 51.792 1942.2 51.6027L1941.03 53.2202ZM1943.41 53.9239C1944.18 53.9239 1945.23 53.8561 1946.52 53.7268L1946.32 51.7367C1945.05 51.8636 1944.09 51.9239 1943.41 51.9239V53.9239ZM1946.49 53.7294C1949.6 53.5162 1951.9 53.4114 1953.4 53.4114V51.4114C1951.83 51.4114 1949.47 51.5202 1946.35 51.7341L1946.49 53.7294ZM1953.4 53.4114C1957.75 53.4114 1960.98 54.1472 1963.19 55.5058L1964.24 53.8014C1961.58 52.1704 1957.93 51.4114 1953.4 51.4114V53.4114ZM1963.19 55.5058C1965.3 56.8025 1966.37 58.7488 1966.37 61.5081H1968.37C1968.37 58.1176 1967 55.4942 1964.24 53.8014L1963.19 55.5058ZM1966.37 61.5081C1966.37 65.8123 1964.72 68.8111 1961.48 70.7019L1962.49 72.4295C1966.42 70.1349 1968.37 66.4287 1968.37 61.5081H1966.37ZM1961.49 70.6974C1958.11 72.627 1953.36 73.6406 1947.12 73.6406V75.6406C1953.53 75.6406 1958.68 74.6042 1962.48 72.4339L1961.49 70.6974ZM2036.05 47.4788V46.4788H2035.05V47.4788H2036.05ZM2063.41 47.4788H2064.41V46.4788H2063.41V47.4788ZM2063.41 74V75H2064.41V74H2063.41ZM2052.13 74L2051.14 74.1178L2051.24 75H2052.13V74ZM2050.79 62.6612L2051.78 62.5434L2049.83 62.3601L2050.79 62.6612ZM2043.93 71.6938L2044.44 72.5523L2044.44 72.5523L2043.93 71.6938ZM2020.36 71.7579L2019.86 72.6241L2019.86 72.6268L2020.36 71.7579ZM2012.48 63.494L2011.59 63.958L2011.6 63.9662L2012.48 63.494ZM2016.51 32.8088L2017.21 33.5259L2017.21 33.5259L2016.51 32.8088ZM2052.39 28.837L2051.99 29.7562L2052 29.7576L2052.39 28.837ZM2063.15 37.1649L2063.61 38.0554L2064.69 37.503L2063.94 36.5479L2063.15 37.1649ZM2051.88 43.0585L2051.41 42.1738L2051.4 42.1798L2051.39 42.186L2051.88 43.0585ZM2050.27 43.9554L2049.57 44.6625L2050.1 45.1978L2050.76 44.8279L2050.27 43.9554ZM2044.44 40.2399L2044.09 41.1732L2044.09 41.1762L2044.1 41.1791L2044.44 40.2399ZM2028.24 42.2258L2028.97 42.9107L2028.97 42.9034L2028.24 42.2258ZM2028.43 58.4332L2027.73 59.1474L2027.74 59.1543L2028.43 58.4332ZM2043.93 60.7394L2043.64 59.7821L2043.64 59.7841L2043.93 60.7394ZM2048.54 57.8566L2049.29 58.5282L2050.8 56.8566H2048.54V57.8566ZM2036.05 57.8566H2035.05V58.8566H2036.05V57.8566ZM2036.05 48.4788H2063.41V46.4788H2036.05V48.4788ZM2062.41 47.4788V74H2064.41V47.4788H2062.41ZM2063.41 73H2052.13V75H2063.41V73ZM2053.12 73.8822L2051.78 62.5434L2049.79 62.779L2051.14 74.1178L2053.12 73.8822ZM2049.83 62.3601C2048.62 66.2116 2046.47 69.0106 2043.42 70.8353L2044.44 72.5523C2047.97 70.448 2050.39 67.2252 2051.74 62.9623L2049.83 62.3601ZM2043.42 70.8353C2040.32 72.6876 2036.49 73.6406 2031.89 73.6406V75.6406C2036.77 75.6406 2040.97 74.6291 2044.44 72.5523L2043.42 70.8353ZM2031.89 73.6406C2027.73 73.6406 2024.06 72.7156 2020.85 70.8889L2019.86 72.6268C2023.4 74.6438 2027.42 75.6406 2031.89 75.6406V73.6406ZM2020.86 70.8917C2017.7 69.0685 2015.2 66.4549 2013.36 63.0218L2011.6 63.9662C2013.6 67.708 2016.36 70.6035 2019.86 72.6241L2020.86 70.8917ZM2013.36 63.03C2011.57 59.6096 2010.66 55.5889 2010.66 50.938H2008.66C2008.66 55.8537 2009.63 60.2036 2011.59 63.958L2013.36 63.03ZM2010.66 50.938C2010.66 43.5056 2012.87 37.7422 2017.21 33.5259L2015.82 32.0917C2011.02 36.7585 2008.66 43.0813 2008.66 50.938H2010.66ZM2017.21 33.5259C2021.52 29.3403 2028.32 27.1464 2037.85 27.1464V25.1464C2028.07 25.1464 2020.65 27.3942 2015.82 32.0917L2017.21 33.5259ZM2037.85 27.1464C2043.25 27.1464 2047.96 28.0257 2051.99 29.7562L2052.78 27.9179C2048.45 26.0609 2043.46 25.1464 2037.85 25.1464V27.1464ZM2052 29.7576C2056.06 31.4826 2059.52 34.1513 2062.36 37.782L2063.94 36.5479C2060.89 32.6621 2057.17 29.7789 2052.78 27.9164L2052 29.7576ZM2062.69 36.2745C2060.77 37.26 2057 39.2274 2051.41 42.1738L2052.34 43.9433C2057.94 40.9961 2061.69 39.0344 2063.61 38.0554L2062.69 36.2745ZM2051.39 42.186L2049.79 43.0829L2050.76 44.8279L2052.36 43.9311L2051.39 42.186ZM2050.98 43.2483C2049.21 41.4793 2047.14 40.1618 2044.79 39.3006L2044.1 41.1791C2046.19 41.9408 2048 43.1003 2049.57 44.6625L2050.98 43.2483ZM2044.8 39.3065C2042.46 38.4065 2039.99 37.9586 2037.4 37.9586V39.9586C2039.76 39.9586 2041.98 40.3649 2044.09 41.1732L2044.8 39.3065ZM2037.4 37.9586C2033.13 37.9586 2029.76 39.0952 2027.5 41.5481L2028.97 42.9034C2030.73 41.0002 2033.47 39.9586 2037.4 39.9586V37.9586ZM2027.51 41.5408C2025.31 43.877 2024.23 46.7763 2024.23 50.1693H2026.23C2026.23 47.2417 2027.15 44.8453 2028.97 42.9107L2027.51 41.5408ZM2024.23 50.1693C2024.23 53.8128 2025.37 56.8393 2027.73 59.1474L2029.13 57.719C2027.21 55.8418 2026.23 53.359 2026.23 50.1693H2024.23ZM2027.74 59.1543C2030.17 61.4948 2033.78 62.5722 2038.36 62.5722V60.5722C2034.05 60.5722 2031.04 59.5569 2029.12 57.7121L2027.74 59.1543ZM2038.36 62.5722C2040.38 62.5722 2042.34 62.2802 2044.23 61.6947L2043.64 59.7841C2041.94 60.3089 2040.18 60.5722 2038.36 60.5722V62.5722ZM2044.22 61.6966C2046.22 61.0911 2047.92 60.0348 2049.29 58.5282L2047.8 57.1851C2046.69 58.4118 2045.31 59.2773 2043.64 59.7822L2044.22 61.6966ZM2048.54 56.8566H2036.05V58.8566H2048.54V56.8566ZM2037.05 57.8566V47.4788H2035.05V57.8566H2037.05ZM2087.94 68.2986L2087.26 69.0323L2087.26 69.0357L2087.94 68.2986ZM2087.87 32.5525L2087.19 31.8188L2087.19 31.8219L2087.87 32.5525ZM2131.18 32.5525L2130.5 33.2832L2130.5 33.2863L2131.18 32.5525ZM2131.24 68.2986L2131.92 69.0326L2131.92 69.0326L2131.24 68.2986ZM2119.78 58.8816L2120.43 59.6409L2120.44 59.6332L2119.78 58.8816ZM2119.78 41.9695L2119.12 42.7211L2119.12 42.7211L2119.78 41.9695ZM2099.34 41.9695L2100 42.7211L2100 42.7211L2099.34 41.9695ZM2099.34 58.8175L2100 58.0659L2100 58.0659L2099.34 58.8175ZM2109.53 73.6406C2099.86 73.6406 2092.96 71.5471 2088.61 67.5614L2087.26 69.0357C2092.14 73.5061 2099.63 75.6406 2109.53 75.6406V73.6406ZM2088.62 67.5648C2084.25 63.5244 2082.02 57.8371 2082.02 50.3615H2080.02C2080.02 58.2605 2082.4 64.5312 2087.26 69.0323L2088.62 67.5648ZM2082.02 50.3615C2082.02 42.9723 2084.23 37.3249 2088.56 33.2831L2087.19 31.8219C2082.38 36.3216 2080.02 42.5469 2080.02 50.3615H2082.02ZM2088.55 33.2863C2092.9 29.261 2099.82 27.1464 2109.53 27.1464V25.1464C2099.59 25.1464 2092.07 27.3026 2087.19 31.8188L2088.55 33.2863ZM2109.53 27.1464C2119.28 27.1464 2126.19 29.262 2130.5 33.2831L2131.86 31.8219C2127.03 27.3016 2119.51 25.1464 2109.53 25.1464V27.1464ZM2130.5 33.2863C2134.87 37.3288 2137.1 42.9751 2137.1 50.3615H2139.1C2139.1 42.5441 2136.72 36.3177 2131.86 31.8188L2130.5 33.2863ZM2137.1 50.3615C2137.1 57.885 2134.88 63.5698 2130.56 67.5646L2131.92 69.0326C2136.74 64.5713 2139.1 58.298 2139.1 50.3615H2137.1ZM2130.56 67.5646C2126.26 71.5449 2119.32 73.6406 2109.53 73.6406V75.6406C2119.54 75.6406 2127.09 73.5083 2131.92 69.0326L2130.56 67.5646ZM2109.53 62.5722C2114.35 62.5722 2118.06 61.6682 2120.43 59.6409L2119.13 58.1224C2117.31 59.6825 2114.19 60.5722 2109.53 60.5722V62.5722ZM2120.44 59.6332C2122.82 57.5428 2123.92 54.3789 2123.92 50.3615H2121.92C2121.92 54.0314 2120.92 56.5476 2119.12 58.13L2120.44 59.6332ZM2123.92 50.3615C2123.92 46.4212 2122.81 43.3043 2120.44 41.2179L2119.12 42.7211C2120.92 44.3076 2121.92 46.7853 2121.92 50.3615H2123.92ZM2120.44 41.2179C2118.07 39.1417 2114.35 38.2149 2109.53 38.2149V40.2149C2114.18 40.2149 2117.3 41.1245 2119.12 42.7211L2120.44 41.2179ZM2109.53 38.2149C2104.74 38.2149 2101.05 39.1428 2098.68 41.2179L2100 42.7211C2101.82 41.1234 2104.92 40.2149 2109.53 40.2149V38.2149ZM2098.68 41.2179C2096.3 43.3043 2095.2 46.4212 2095.2 50.3615H2097.2C2097.2 46.7853 2098.19 44.3076 2100 42.7211L2098.68 41.2179ZM2095.2 50.3615C2095.2 54.3403 2096.3 57.4807 2098.68 59.5692L2100 58.0659C2098.2 56.4815 2097.2 53.9846 2097.2 50.3615H2095.2ZM2098.68 59.5692C2101.05 61.6443 2104.74 62.5722 2109.53 62.5722V60.5722C2104.92 60.5722 2101.82 59.6636 2100 58.0659L2098.68 59.5692ZM2179.09 43.2507H2178.09V43.9708L2178.77 44.1991L2179.09 43.2507ZM2179.09 30.3745L2179.43 29.4337L2178.09 28.9509V30.3745H2179.09ZM2212.85 42.5461H2213.85V41.8436L2213.19 41.6053L2212.85 42.5461ZM2212.85 59.0097L2213.19 59.9505L2213.85 59.7122V59.0097H2212.85ZM2179.09 71.1813H2178.09V72.6049L2179.43 72.122L2179.09 71.1813ZM2179.09 58.3051L2178.77 57.3575L2178.09 57.5869V58.3051H2179.09ZM2201.51 50.7459L2201.83 51.6935L2204.65 50.7418L2201.83 49.7975L2201.51 50.7459ZM2180.09 43.2507V30.3745H2178.09V43.2507H2180.09ZM2178.75 31.3152L2212.51 43.4868L2213.19 41.6053L2179.43 29.4337L2178.75 31.3152ZM2211.85 42.5461V59.0097H2213.85V42.5461H2211.85ZM2212.51 58.069L2178.75 70.2406L2179.43 72.122L2213.19 59.9505L2212.51 58.069ZM2180.09 71.1813V58.3051H2178.09V71.1813H2180.09ZM2179.41 59.2527L2201.83 51.6935L2201.19 49.7983L2178.77 57.3575L2179.41 59.2527ZM2201.83 49.7975L2179.41 42.3023L2178.77 44.1991L2201.19 51.6943L2201.83 49.7975ZM2226.62 43.2507H2225.62V43.9708L2226.3 44.1991L2226.62 43.2507ZM2226.62 30.3745L2226.95 29.4337L2225.62 28.9509V30.3745H2226.62ZM2260.38 42.5461H2261.38V41.8436L2260.71 41.6053L2260.38 42.5461ZM2260.38 59.0097L2260.71 59.9505L2261.38 59.7122V59.0097H2260.38ZM2226.62 71.1813H2225.62V72.6049L2226.95 72.122L2226.62 71.1813ZM2226.62 58.3051L2226.3 57.3575L2225.62 57.5869V58.3051H2226.62ZM2249.04 50.7459L2249.36 51.6935L2252.18 50.7418L2249.35 49.7975L2249.04 50.7459ZM2227.62 43.2507V30.3745H2225.62V43.2507H2227.62ZM2226.28 31.3152L2260.04 43.4868L2260.71 41.6053L2226.95 29.4337L2226.28 31.3152ZM2259.38 42.5461V59.0097H2261.38V42.5461H2259.38ZM2260.04 58.069L2226.28 70.2406L2226.95 72.122L2260.71 59.9505L2260.04 58.069ZM2227.62 71.1813V58.3051H2225.62V71.1813H2227.62ZM2226.94 59.2527L2249.36 51.6935L2248.72 49.7983L2226.3 57.3575L2226.94 59.2527ZM2249.35 49.7975L2226.93 42.3023L2226.3 44.1991L2248.72 51.6943L2249.35 49.7975ZM2274.14 43.2507H2273.14V43.9708L2273.82 44.1991L2274.14 43.2507ZM2274.14 30.3745L2274.48 29.4337L2273.14 28.9509V30.3745H2274.14ZM2307.9 42.5461H2308.9V41.8436L2308.24 41.6053L2307.9 42.5461ZM2307.9 59.0097L2308.24 59.9505L2308.9 59.7122V59.0097H2307.9ZM2274.14 71.1813H2273.14V72.6049L2274.48 72.122L2274.14 71.1813ZM2274.14 58.3051L2273.82 57.3575L2273.14 57.5869V58.3051H2274.14ZM2296.56 50.7459L2296.88 51.6935L2299.7 50.7418L2296.88 49.7975L2296.56 50.7459ZM2275.14 43.2507V30.3745H2273.14V43.2507H2275.14ZM2273.8 31.3152L2307.56 43.4868L2308.24 41.6053L2274.48 29.4337L2273.8 31.3152ZM2306.9 42.5461V59.0097H2308.9V42.5461H2306.9ZM2307.56 58.069L2273.8 70.2406L2274.48 72.122L2308.24 59.9505L2307.56 58.069ZM2275.14 71.1813V58.3051H2273.14V71.1813H2275.14ZM2274.46 59.2527L2296.88 51.6935L2296.24 49.7983L2273.82 57.3575L2274.46 59.2527ZM2296.88 49.7975L2274.46 42.3023L2273.82 44.1991L2296.25 51.6943L2296.88 49.7975Z" fill="#D7F367"/>
</svg>
