<svg width="586" height="93" viewBox="0 0 586 93" fill="none" xmlns="http://www.w3.org/2000/svg">
<path d="M35.1933 61.0597H34.1933V62.0666L35.2002 62.0597L35.1933 61.0597ZM65.9426 60.4191L66.9116 60.6661L67.2437 59.3634L65.9005 59.42L65.9426 60.4191ZM64.9176 66.697L63.9196 66.6333L63.9196 66.6333L64.9176 66.697ZM64.7254 74V75H65.7254V74H64.7254ZM19.5624 74L18.5633 73.9588L18.5204 75H19.5624V74ZM19.5624 27.4917V26.4917H18.5204L18.5633 27.5329L19.5624 27.4917ZM35.1933 27.4917H36.1933V26.4917H35.1933V27.4917ZM35.2002 62.0597C47.5917 61.9742 57.8542 61.7605 65.9847 61.4182L65.9005 59.42C57.8022 59.7609 47.5652 59.9743 35.1864 60.0597L35.2002 62.0597ZM64.9736 60.1721C64.4048 62.4033 64.0521 64.5575 63.9196 66.6333L65.9156 66.7607C66.0393 64.8221 66.37 62.791 66.9116 60.6661L64.9736 60.1721ZM63.9196 66.6333C63.7897 68.6686 63.7254 71.1254 63.7254 74H65.7254C65.7254 71.1518 65.7892 68.74 65.9156 66.7607L63.9196 66.6333ZM64.7254 73H19.5624V75H64.7254V73ZM20.5616 74.0412C20.9037 65.7442 21.0749 57.979 21.0749 50.7459H19.0749C19.0749 57.9478 18.9045 65.6853 18.5633 73.9588L20.5616 74.0412ZM21.0749 50.7459C21.0749 43.5127 20.9037 35.7475 20.5616 27.4505L18.5633 27.5329C18.9045 35.8064 19.0749 43.5439 19.0749 50.7459H21.0749ZM19.5624 28.4917H35.1933V26.4917H19.5624V28.4917ZM34.1933 27.4917V61.0597H36.1933V27.4917H34.1933ZM95.294 57.9848V56.9848H94.0958L94.3102 58.1636L95.294 57.9848ZM97.7924 62.5971L97.1221 63.3392L97.1346 63.3506L97.1475 63.3614L97.7924 62.5971ZM108.619 63.3018L109.016 64.2197L109.026 64.2152L109.036 64.2105L108.619 63.3018ZM112.398 60.2909L112.84 59.3939L112.088 59.0233L111.592 59.6996L112.398 60.2909ZM123.801 64.8393L124.716 65.2442L125.157 64.2466L124.125 63.8932L123.801 64.8393ZM116.562 72.0141L117.014 72.9063L117.018 72.9042L116.562 72.0141ZM86.838 69.6439L86.1397 70.3598L86.1488 70.3684L86.838 69.6439ZM86.838 43.3788L87.5316 44.0992L87.5316 44.0992L86.838 43.3788ZM114.32 40.5602L113.907 41.4709L113.907 41.4709L114.32 40.5602ZM121.687 46.646L120.851 47.1943L120.855 47.2007L121.687 46.646ZM124.121 57.9848V58.9848H124.979L125.11 58.1368L124.121 57.9848ZM98.6252 49.2725L99.1357 50.1323L99.1357 50.1323L98.6252 49.2725ZM95.7425 52.6036L94.812 52.2371L94.2737 53.6036H95.7425V52.6036ZM110.861 52.6036V53.6036H112.304L111.797 52.2525L110.861 52.6036ZM108.362 49.3365L107.767 50.1401L107.777 50.1473L107.787 50.1543L108.362 49.3365ZM116.178 56.9848H95.294V58.9848H116.178V56.9848ZM94.3102 58.1636C94.6883 60.2436 95.6224 61.9847 97.1221 63.3392L98.4627 61.855C97.3145 60.818 96.583 59.4841 96.2779 57.8059L94.3102 58.1636ZM97.1475 63.3614C98.7534 64.7163 100.935 65.3268 103.558 65.3268V63.3268C101.226 63.3268 99.5647 62.7841 98.4373 61.8329L97.1475 63.3614ZM103.558 65.3268C105.482 65.3268 107.305 64.9594 109.016 64.2197L108.222 62.384C106.772 63.0108 105.221 63.3268 103.558 63.3268V65.3268ZM109.036 64.2105C110.756 63.4204 112.155 62.3133 113.205 60.8823L111.592 59.6996C110.762 60.831 109.642 61.7312 108.201 62.3931L109.036 64.2105ZM111.956 61.188C114.871 62.6237 118.716 64.1555 123.477 65.7854L124.125 63.8932C119.405 62.2773 115.648 60.7769 112.84 59.3939L111.956 61.188ZM122.887 64.4344C121.673 67.1741 119.448 69.4127 116.106 71.1241L117.018 72.9042C120.681 71.0281 123.281 68.4835 124.716 65.2442L122.887 64.4344ZM116.111 71.1219C112.839 72.7777 108.484 73.6406 102.981 73.6406V75.6406C108.668 75.6406 113.367 74.7525 117.014 72.9063L116.111 71.1219ZM102.981 73.6406C95.8514 73.6406 90.7685 72.0024 87.5272 68.9193L86.1488 70.3684C89.9115 73.9476 95.5908 75.6406 102.981 75.6406V73.6406ZM87.5362 68.928C84.2959 65.7677 82.649 61.6189 82.649 56.3832H80.649C80.649 62.0806 82.4614 66.7722 86.1398 70.3597L87.5362 68.928ZM82.649 56.3832C82.649 51.2832 84.2909 47.2198 87.5316 44.0992L86.1443 42.6585C82.4665 46.2002 80.649 50.8065 80.649 56.3832H82.649ZM87.5316 44.0992C90.7275 41.0217 95.8055 39.3821 102.981 39.3821V37.3821C95.5513 37.3821 89.8671 39.0737 86.1443 42.6585L87.5316 44.0992ZM102.981 39.3821C107.228 39.3821 110.861 40.09 113.907 41.4709L114.733 39.6494C111.373 38.1263 107.447 37.3821 102.981 37.3821V39.3821ZM113.907 41.4709C116.961 42.8551 119.26 44.7674 120.851 47.1943L122.523 46.0976C120.698 43.3142 118.086 41.1693 114.733 39.6494L113.907 41.4709ZM120.855 47.2007C122.445 49.5853 123.25 52.3358 123.25 55.4864H125.25C125.25 51.9747 124.346 48.8315 122.519 46.0913L120.855 47.2007ZM123.25 55.4864C123.25 56.5849 123.207 57.3555 123.133 57.8327L125.11 58.1368C125.207 57.5036 125.25 56.6086 125.25 55.4864H123.25ZM124.121 56.9848H116.178V58.9848H124.121V56.9848ZM103.878 47.0553C101.623 47.0553 99.6801 47.4831 98.1147 48.4126L99.1357 50.1323C100.304 49.4389 101.863 49.0553 103.878 49.0553V47.0553ZM98.1147 48.4126C96.5673 49.3314 95.4528 50.6106 94.812 52.2371L96.6729 52.9702C97.1425 51.778 97.9498 50.8364 99.1357 50.1323L98.1147 48.4126ZM95.7425 53.6036H110.861V51.6036H95.7425V53.6036ZM111.797 52.2525C111.217 50.7046 110.262 49.4501 108.938 48.5187L107.787 50.1543C108.77 50.8458 109.48 51.7694 109.925 52.9548L111.797 52.2525ZM108.958 48.533C107.59 47.5195 105.869 47.0553 103.878 47.0553V49.0553C105.561 49.0553 106.829 49.4453 107.767 50.1401L108.958 48.533ZM170.22 50.4896L170.155 51.4875L171.22 51.557V50.4896H170.22ZM159.458 49.9131L159.498 48.9138L158.468 48.8732L158.458 49.9036L159.458 49.9131ZM159.394 56.7035L158.394 56.6941V56.7035H159.394ZM160.867 62.1487L160.064 62.7446L160.075 62.7592L160.087 62.7734L160.867 62.1487ZM169.067 63.8143L170.061 63.9218L170.207 62.5793L168.88 62.832L169.067 63.8143ZM168.939 73.8719L169.118 74.8557L169.966 74.7017L169.939 73.8406L168.939 73.8719ZM148.568 71.0532L147.803 71.6973L147.809 71.7046L147.815 71.7117L148.568 71.0532ZM145.493 60.9316L144.493 60.9256V60.9316H145.493ZM145.557 50.1053L146.557 50.1112L146.563 49.0615L145.514 49.1062L145.557 50.1053ZM139.279 50.4896H138.279V51.5711L139.357 51.4866L139.279 50.4896ZM139.279 39.1508V38.1508H138.279V39.1508H139.279ZM144.916 37.0368L145.592 37.774L145.592 37.774L144.916 37.0368ZM147.671 31.976V30.976H146.812L146.682 31.8256L147.671 31.976ZM165.095 31.976L165.904 32.5649L167.061 30.976H165.095V31.976ZM157.857 39.1508L157.296 38.3229L154.597 40.1508H157.857V39.1508ZM170.22 39.1508H171.22V38.1508H170.22V39.1508ZM170.285 49.4917C166.35 49.235 162.753 49.0424 159.498 48.9138L159.419 50.9123C162.654 51.04 166.233 51.2317 170.155 51.4875L170.285 49.4917ZM158.458 49.9036L158.394 56.6941L160.394 56.713L160.458 49.9225L158.458 49.9036ZM158.394 56.7035C158.394 59.1409 158.912 61.1916 160.064 62.7446L161.671 61.5529C160.858 60.458 160.394 58.8786 160.394 56.7035H158.394ZM160.087 62.7734C161.388 64.3997 163.554 65.0705 166.249 65.0705V63.0705C163.818 63.0705 162.397 62.4602 161.648 61.524L160.087 62.7734ZM166.249 65.0705C167.289 65.0705 168.291 64.9801 169.254 64.7966L168.88 62.832C168.049 62.9902 167.173 63.0705 166.249 63.0705V65.0705ZM168.073 63.7068C167.898 65.3234 167.811 66.9608 167.811 68.6189H169.811C169.811 67.0311 169.895 65.4655 170.061 63.9218L168.073 63.7068ZM167.811 68.6189C167.811 69.4064 167.854 71.1744 167.94 73.9031L169.939 73.8406C169.853 71.1028 169.811 69.3688 169.811 68.6189H167.811ZM168.76 72.888C166.902 73.2258 165.362 73.4327 164.132 73.5147L164.265 75.5103C165.597 75.4215 167.218 75.2012 169.118 74.8557L168.76 72.888ZM164.132 73.5147C162.882 73.598 161.241 73.6406 159.202 73.6406V75.6406C161.263 75.6406 162.953 75.5978 164.265 75.5103L164.132 73.5147ZM159.202 73.6406C154.33 73.6406 151.137 72.4709 149.32 70.3947L147.815 71.7117C150.184 74.4187 154.08 75.6406 159.202 75.6406V73.6406ZM149.333 70.4091C147.481 68.2102 146.493 65.0932 146.493 60.9316H144.493C144.493 65.3968 145.555 69.0275 147.803 71.6973L149.333 70.4091ZM146.493 60.9375L146.557 50.1112L144.557 50.0993L144.493 60.9256L146.493 60.9375ZM145.514 49.1062C143.494 49.1921 141.39 49.321 139.201 49.4927L139.357 51.4866C141.524 51.3166 143.605 51.1892 145.599 51.1043L145.514 49.1062ZM140.279 50.4896V39.1508H138.279V50.4896H140.279ZM139.279 40.1508C141.732 40.1508 143.857 39.364 145.592 37.774L144.241 36.2997C142.9 37.5283 141.267 38.1508 139.279 38.1508V40.1508ZM145.592 37.774C147.289 36.2187 148.324 34.3283 148.66 32.1264L146.682 31.8256C146.419 33.5528 145.619 35.0362 144.241 36.2997L145.592 37.774ZM147.671 32.976H165.095V30.976H147.671V32.976ZM164.287 31.3871C162.167 34.2976 159.834 36.6033 157.296 38.3229L158.417 39.9787C161.175 38.111 163.668 35.6334 165.904 32.5649L164.287 31.3871ZM157.857 40.1508H170.22V38.1508H157.857V40.1508ZM169.22 39.1508V50.4896H171.22V39.1508H169.22ZM196.274 73.1672L196.005 74.1305L196.018 74.134L196.274 73.1672ZM185.896 68.5548L185.09 67.963L184.455 68.8275L185.362 69.4003L185.896 68.5548ZM192.622 59.3941L193.205 58.5816L192.401 58.0051L191.816 58.8022L192.622 59.3941ZM199.733 62.7253L199.452 63.6851L199.459 63.6871L199.466 63.689L199.733 62.7253ZM211.328 63.1096L211.775 64.0041L211.782 64.0005L211.789 63.9968L211.328 63.1096ZM208.125 58.8816L208.066 57.8833L208.063 57.8836L208.125 58.8816ZM206.459 59.0097L206.36 58.0147L206.352 58.0154L206.345 58.0163L206.459 59.0097ZM190.316 57.2801L189.79 58.1307L189.799 58.1362L189.808 58.1416L190.316 57.2801ZM192.11 41.5211L192.61 42.3868L192.618 42.3822L192.11 41.5211ZM217.926 39.8555L217.65 40.8166L217.657 40.8186L217.664 40.8205L217.926 39.8555ZM227.087 44.1476L227.797 44.8516L228.618 44.0234L227.674 43.3383L227.087 44.1476ZM219.72 51.5787L219.254 52.4636L219.909 52.8082L220.43 52.2827L219.72 51.5787ZM212.865 48.8881L212.609 49.8547L212.621 49.8577L212.632 49.8605L212.865 48.8881ZM202.68 48.9522L202.191 48.0796L202.191 48.0796L202.68 48.9522ZM201.719 52.4114L201.094 53.1923L201.112 53.2067L201.131 53.2202L201.719 52.4114ZM206.523 52.7318L206.455 51.7341L206.439 51.7352L206.424 51.7367L206.523 52.7318ZM223.82 54.6536L224.343 53.8014L224.343 53.8014L223.82 54.6536ZM222.09 71.5657L222.586 72.434L222.594 72.4295L222.09 71.5657ZM207.228 73.6406C203.733 73.6406 200.167 73.1622 196.529 72.2004L196.018 74.134C199.811 75.1367 203.548 75.6406 207.228 75.6406V73.6406ZM196.542 72.204C192.964 71.2053 189.594 69.7077 186.43 67.7093L185.362 69.4003C188.689 71.5018 192.238 73.0791 196.005 74.1304L196.542 72.204ZM186.702 69.1467L193.428 59.9859L191.816 58.8022L185.09 67.963L186.702 69.1467ZM192.039 60.2066C194.112 61.6933 196.589 62.848 199.452 63.6851L200.014 61.7654C197.325 60.9796 195.062 59.9136 193.205 58.5816L192.039 60.2066ZM199.466 63.689C202.295 64.4723 204.781 64.8784 206.908 64.8784V62.8784C205.02 62.8784 202.723 62.5157 200 61.7615L199.466 63.689ZM206.908 64.8784C208.893 64.8784 210.548 64.6179 211.775 64.0041L210.881 62.2152C210.058 62.6264 208.766 62.8784 206.908 62.8784V64.8784ZM211.789 63.9968C213.034 63.3496 213.93 62.3692 213.93 60.9956H211.93C211.93 61.3303 211.757 61.7593 210.867 62.2224L211.789 63.9968ZM213.93 60.9956C213.93 60.022 213.544 59.1815 212.761 58.5941L211.561 60.1941C211.803 60.3754 211.93 60.6026 211.93 60.9956H213.93ZM212.761 58.5941C212.018 58.037 211.076 57.8175 210.047 57.8175V59.8175C210.812 59.8175 211.279 59.9824 211.561 60.1941L212.761 58.5941ZM210.047 57.8175C209.467 57.8175 208.806 57.8398 208.066 57.8833L208.184 59.8799C208.896 59.838 209.516 59.8175 210.047 59.8175V57.8175ZM208.063 57.8836C207.373 57.9266 206.804 57.9702 206.36 58.0147L206.559 60.0048C206.969 59.9638 207.51 59.922 208.187 59.8797L208.063 57.8836ZM206.345 58.0163C204.164 58.268 201.917 58.3941 199.605 58.3941V60.3941C201.99 60.3941 204.313 60.264 206.574 60.0031L206.345 58.0163ZM199.605 58.3941C195.919 58.3941 193.015 57.7098 190.824 56.4185L189.808 58.1416C192.4 59.6691 195.689 60.3941 199.605 60.3941V58.3941ZM190.842 56.4295C188.844 55.1942 187.793 53.2039 187.793 50.2334H185.793C185.793 53.7544 187.091 56.4618 189.79 58.1307L190.842 56.4295ZM187.793 50.2334C187.793 46.8694 189.341 44.2774 192.61 42.3867L191.609 40.6554C187.789 42.8646 185.793 46.0809 185.793 50.2334H187.793ZM192.618 42.3822C195.938 40.4225 200.937 39.3821 207.741 39.3821V37.3821C200.792 37.3821 195.371 38.4343 191.601 40.6599L192.618 42.3822ZM207.741 39.3821C211.016 39.3821 214.318 39.8587 217.65 40.8166L218.203 38.8944C214.701 37.8877 211.213 37.3821 207.741 37.3821V39.3821ZM217.664 40.8205C221.018 41.7314 223.959 43.1128 226.5 44.9569L227.674 43.3383C224.919 41.3387 221.753 39.8587 218.188 38.8905L217.664 40.8205ZM226.377 43.4435L219.01 50.8746L220.43 52.2827L227.797 44.8516L226.377 43.4435ZM220.186 50.6937C217.696 49.3831 215.332 48.4517 213.099 47.9157L212.632 49.8605C214.669 50.3494 216.876 51.2118 219.254 52.4636L220.186 50.6937ZM213.122 47.9215C210.947 47.3444 208.747 47.0553 206.523 47.0553V49.0553C208.571 49.0553 210.599 49.3213 212.609 49.8547L213.122 47.9215ZM206.523 47.0553C204.895 47.0553 203.438 47.3815 202.191 48.0796L203.168 49.8247C204.057 49.327 205.162 49.0553 206.523 49.0553V47.0553ZM202.191 48.0796C201.007 48.7428 200.078 49.6897 200.078 51.0021H202.078C202.078 50.777 202.217 50.3573 203.168 49.8247L202.191 48.0796ZM200.078 51.0021C200.078 51.8714 200.406 52.6415 201.094 53.1923L202.344 51.6306C202.178 51.498 202.078 51.3286 202.078 51.0021H200.078ZM201.131 53.2202C201.81 53.7143 202.629 53.9239 203.513 53.9239V51.9239C202.944 51.9239 202.567 51.792 202.307 51.6027L201.131 53.2202ZM203.513 53.9239C204.288 53.9239 205.33 53.8561 206.623 53.7268L206.424 51.7367C205.155 51.8636 204.189 51.9239 203.513 51.9239V53.9239ZM206.592 53.7294C209.705 53.5162 212.004 53.4114 213.506 53.4114V51.4114C211.933 51.4114 209.577 51.5202 206.455 51.7341L206.592 53.7294ZM213.506 53.4114C217.857 53.4114 221.084 54.1472 223.297 55.5058L224.343 53.8014C221.687 52.1704 218.038 51.4114 213.506 51.4114V53.4114ZM223.297 55.5058C225.408 56.8025 226.471 58.7488 226.471 61.5081H228.471C228.471 58.1176 227.1 55.4942 224.343 53.8014L223.297 55.5058ZM226.471 61.5081C226.471 65.8123 224.828 68.8111 221.586 70.7019L222.594 72.4295C226.528 70.1349 228.471 66.4287 228.471 61.5081H226.471ZM221.594 70.6974C218.217 72.627 213.459 73.6406 207.228 73.6406V75.6406C213.638 75.6406 218.788 74.6042 222.586 72.4339L221.594 70.6974ZM296.156 47.4788V46.4788H295.156V47.4788H296.156ZM323.51 47.4788H324.51V46.4788H323.51V47.4788ZM323.51 74V75H324.51V74H323.51ZM312.236 74L311.243 74.1178L311.347 75H312.236V74ZM310.89 62.6612L311.883 62.5434L309.937 62.3601L310.89 62.6612ZM304.036 71.6938L304.549 72.5523L304.549 72.5523L304.036 71.6938ZM280.461 71.7579L279.962 72.6241L279.966 72.6268L280.461 71.7579ZM272.582 63.494L271.696 63.958L271.7 63.9662L272.582 63.494ZM276.618 32.8088L277.315 33.5259L277.315 33.5259L276.618 32.8088ZM312.492 28.837L312.098 29.7562L312.101 29.7576L312.492 28.837ZM323.254 37.1649L323.709 38.0554L324.79 37.503L324.041 36.5479L323.254 37.1649ZM311.979 43.0585L311.513 42.1738L311.502 42.1798L311.491 42.186L311.979 43.0585ZM310.378 43.9554L309.671 44.6625L310.206 45.1978L310.866 44.8279L310.378 43.9554ZM304.548 40.2399L304.189 41.1732L304.197 41.1762L304.205 41.1791L304.548 40.2399ZM288.341 42.2258L289.069 42.9107L289.076 42.9034L288.341 42.2258ZM288.533 58.4332L287.833 59.1474L287.84 59.1543L288.533 58.4332ZM304.036 60.7394L303.746 59.7821L303.74 59.7841L304.036 60.7394ZM308.648 57.8566L309.389 58.5282L310.904 56.8566H308.648V57.8566ZM296.156 57.8566H295.156V58.8566H296.156V57.8566ZM296.156 48.4788H323.51V46.4788H296.156V48.4788ZM322.51 47.4788V74H324.51V47.4788H322.51ZM323.51 73H312.236V75H323.51V73ZM313.229 73.8822L311.883 62.5434L309.897 62.779L311.243 74.1178L313.229 73.8822ZM309.937 62.3601C308.72 66.2116 306.577 69.0106 303.523 70.8353L304.549 72.5523C308.071 70.448 310.498 67.2252 311.844 62.9623L309.937 62.3601ZM303.523 70.8353C300.422 72.6876 296.595 73.6406 291.992 73.6406V75.6406C296.871 75.6406 301.072 74.6291 304.549 72.5523L303.523 70.8353ZM291.992 73.6406C287.833 73.6406 284.163 72.7156 280.956 70.8889L279.966 72.6268C283.507 74.6438 287.525 75.6406 291.992 75.6406V73.6406ZM280.961 70.8917C277.801 69.0685 275.302 66.4549 273.463 63.0218L271.7 63.9662C273.705 67.708 276.459 70.6035 279.962 72.6241L280.961 70.8917ZM273.468 63.03C271.676 59.6096 270.763 55.5889 270.763 50.938H268.763C268.763 55.8537 269.729 60.2036 271.696 63.958L273.468 63.03ZM270.763 50.938C270.763 43.5056 272.977 37.7422 277.315 33.5259L275.921 32.0917C271.119 36.7585 268.763 43.0813 268.763 50.938H270.763ZM277.315 33.5259C281.621 29.3403 288.427 27.1464 297.95 27.1464V25.1464C288.169 25.1464 280.754 27.3942 275.921 32.0917L277.315 33.5259ZM297.95 27.1464C303.352 27.1464 308.06 28.0257 312.098 29.7562L312.886 27.9179C308.553 26.0609 303.567 25.1464 297.95 25.1464V27.1464ZM312.101 29.7576C316.167 31.4826 319.62 34.1513 322.467 37.782L324.041 36.5479C320.994 32.6621 317.272 29.7789 312.882 27.9164L312.101 29.7576ZM322.799 36.2745C320.871 37.26 317.107 39.2274 311.513 42.1738L312.445 43.9433C318.041 40.9961 321.794 39.0344 323.709 38.0554L322.799 36.2745ZM311.491 42.186L309.889 43.0829L310.866 44.8279L312.468 43.9311L311.491 42.186ZM311.085 43.2483C309.316 41.4793 307.248 40.1618 304.891 39.3006L304.205 41.1791C306.29 41.9408 308.108 43.1003 309.671 44.6625L311.085 43.2483ZM304.907 39.3065C302.567 38.4065 300.096 37.9586 297.502 37.9586V39.9586C299.861 39.9586 302.088 40.3649 304.189 41.1732L304.907 39.3065ZM297.502 37.9586C293.233 37.9586 289.866 39.0952 287.605 41.5481L289.076 42.9034C290.83 41.0002 293.57 39.9586 297.502 39.9586V37.9586ZM287.612 41.5408C285.416 43.877 284.33 46.7763 284.33 50.1693H286.33C286.33 47.2417 287.251 44.8453 289.069 42.9107L287.612 41.5408ZM284.33 50.1693C284.33 53.8128 285.478 56.8393 287.833 59.1474L289.233 57.719C287.317 55.8418 286.33 53.359 286.33 50.1693H284.33ZM287.84 59.1543C290.276 61.4948 293.883 62.5722 298.462 62.5722V60.5722C294.159 60.5722 291.146 59.5569 289.226 57.7121L287.84 59.1543ZM298.462 62.5722C300.482 62.5722 302.44 62.2802 304.331 61.6947L303.74 59.7841C302.044 60.3089 300.286 60.5722 298.462 60.5722V62.5722ZM304.325 61.6966C306.328 61.0911 308.024 60.0348 309.389 58.5282L307.907 57.1851C306.795 58.4118 305.416 59.2773 303.746 59.7822L304.325 61.6966ZM308.648 56.8566H296.156V58.8566H308.648V56.8566ZM297.156 57.8566V47.4788H295.156V57.8566H297.156ZM348.042 68.2986L347.363 69.0323L347.366 69.0357L348.042 68.2986ZM347.978 32.5525L347.299 31.8188L347.295 31.8219L347.978 32.5525ZM391.283 32.5525L390.6 33.2832L390.604 33.2863L391.283 32.5525ZM391.347 68.2986L392.026 69.0326L392.026 69.0326L391.347 68.2986ZM379.88 58.8816L380.531 59.6409L380.54 59.6332L379.88 58.8816ZM379.88 41.9695L379.221 42.7211L379.221 42.7211L379.88 41.9695ZM359.445 41.9695L360.105 42.7211L360.105 42.7211L359.445 41.9695ZM359.445 58.8175L360.105 58.0659L360.105 58.0659L359.445 58.8175ZM369.631 73.6406C359.966 73.6406 353.066 71.5471 348.718 67.5614L347.366 69.0357C352.243 73.5061 359.736 75.6406 369.631 75.6406V73.6406ZM348.722 67.5648C344.358 63.5244 342.124 57.8371 342.124 50.3615H340.124C340.124 58.2605 342.502 64.5312 347.363 69.0323L348.722 67.5648ZM342.124 50.3615C342.124 42.9723 344.336 37.3249 348.661 33.2831L347.295 31.8219C342.481 36.3216 340.124 42.5469 340.124 50.3615H342.124ZM348.657 33.2863C353.005 29.261 359.924 27.1464 369.631 27.1464V25.1464C359.692 25.1464 352.176 27.3026 347.299 31.8188L348.657 33.2863ZM369.631 27.1464C379.383 27.1464 386.298 29.262 390.6 33.2831L391.966 31.8219C387.129 27.3016 379.609 25.1464 369.631 25.1464V27.1464ZM390.604 33.2863C394.97 37.3288 397.202 42.9751 397.202 50.3615H399.202C399.202 42.5441 396.822 36.3177 391.963 31.8188L390.604 33.2863ZM397.202 50.3615C397.202 57.885 394.986 63.5698 390.668 67.5646L392.026 69.0326C396.848 64.5713 399.202 58.298 399.202 50.3615H397.202ZM390.668 67.5646C386.366 71.5449 379.429 73.6406 369.631 73.6406V75.6406C379.649 75.6406 387.189 73.5083 392.026 69.0326L390.668 67.5646ZM369.631 62.5722C374.453 62.5722 378.166 61.6682 380.531 59.6409L379.23 58.1224C377.41 59.6825 374.289 60.5722 369.631 60.5722V62.5722ZM380.54 59.6332C382.922 57.5428 384.019 54.3789 384.019 50.3615H382.019C382.019 54.0314 381.024 56.5476 379.221 58.13L380.54 59.6332ZM384.019 50.3615C384.019 46.4212 382.918 43.3043 380.54 41.2179L379.221 42.7211C381.029 44.3076 382.019 46.7853 382.019 50.3615H384.019ZM380.54 41.2179C378.174 39.1417 374.457 38.2149 369.631 38.2149V40.2149C374.285 40.2149 377.401 41.1245 379.221 42.7211L380.54 41.2179ZM369.631 38.2149C364.844 38.2149 361.15 39.1428 358.785 41.2179L360.105 42.7211C361.925 41.1234 365.022 40.2149 369.631 40.2149V38.2149ZM358.785 41.2179C356.408 43.3043 355.306 46.4212 355.306 50.3615H357.306C357.306 46.7853 358.297 44.3076 360.105 42.7211L358.785 41.2179ZM355.306 50.3615C355.306 54.3403 356.406 57.4807 358.785 59.5692L360.105 58.0659C358.299 56.4815 357.306 53.9846 357.306 50.3615H355.306ZM358.785 59.5692C361.15 61.6443 364.844 62.5722 369.631 62.5722V60.5722C365.022 60.5722 361.925 59.6636 360.105 58.0659L358.785 59.5692ZM439.194 43.2507H438.194V43.9708L438.877 44.1991L439.194 43.2507ZM439.194 30.3745L439.534 29.4337L438.194 28.9509V30.3745H439.194ZM472.955 42.5461H473.955V41.8436L473.294 41.6053L472.955 42.5461ZM472.955 59.0097L473.294 59.9505L473.955 59.7122V59.0097H472.955ZM439.194 71.1813H438.194V72.6049L439.534 72.122L439.194 71.1813ZM439.194 58.3051L438.875 57.3575L438.194 57.5869V58.3051H439.194ZM461.616 50.7459L461.935 51.6935L464.758 50.7418L461.933 49.7975L461.616 50.7459ZM440.194 43.2507V30.3745H438.194V43.2507H440.194ZM438.855 31.3152L472.615 43.4868L473.294 41.6053L439.534 29.4337L438.855 31.3152ZM471.955 42.5461V59.0097H473.955V42.5461H471.955ZM472.615 58.069L438.855 70.2406L439.534 72.122L473.294 59.9505L472.615 58.069ZM440.194 71.1813V58.3051H438.194V71.1813H440.194ZM439.514 59.2527L461.935 51.6935L461.296 49.7983L438.875 57.3575L439.514 59.2527ZM461.933 49.7975L439.511 42.3023L438.877 44.1991L461.299 51.6943L461.933 49.7975ZM486.72 43.2507H485.72V43.9708L486.403 44.1991L486.72 43.2507ZM486.72 30.3745L487.059 29.4337L485.72 28.9509V30.3745H486.72ZM520.48 42.5461H521.48V41.8436L520.819 41.6053L520.48 42.5461ZM520.48 59.0097L520.819 59.9505L521.48 59.7122V59.0097H520.48ZM486.72 71.1813H485.72V72.6049L487.059 72.122L486.72 71.1813ZM486.72 58.3051L486.4 57.3575L485.72 57.5869V58.3051H486.72ZM509.141 50.7459L509.46 51.6935L512.283 50.7418L509.458 49.7975L509.141 50.7459ZM487.72 43.2507V30.3745H485.72V43.2507H487.72ZM486.38 31.3152L520.141 43.4868L520.819 41.6053L487.059 29.4337L486.38 31.3152ZM519.48 42.5461V59.0097H521.48V42.5461H519.48ZM520.141 58.069L486.38 70.2406L487.059 72.122L520.819 59.9505L520.141 58.069ZM487.72 71.1813V58.3051H485.72V71.1813H487.72ZM487.039 59.2527L509.46 51.6935L508.822 49.7983L486.4 57.3575L487.039 59.2527ZM509.458 49.7975L487.037 42.3023L486.403 44.1991L508.824 51.6943L509.458 49.7975ZM534.245 43.2507H533.245V43.9708L533.928 44.1991L534.245 43.2507ZM534.245 30.3745L534.584 29.4337L533.245 28.9509V30.3745H534.245ZM568.005 42.5461H569.005V41.8436L568.344 41.6053L568.005 42.5461ZM568.005 59.0097L568.344 59.9505L569.005 59.7122V59.0097H568.005ZM534.245 71.1813H533.245V72.6049L534.584 72.122L534.245 71.1813ZM534.245 58.3051L533.925 57.3575L533.245 57.5869V58.3051H534.245ZM556.666 50.7459L556.986 51.6935L559.808 50.7418L556.983 49.7975L556.666 50.7459ZM535.245 43.2507V30.3745H533.245V43.2507H535.245ZM533.906 31.3152L567.666 43.4868L568.344 41.6053L534.584 29.4337L533.906 31.3152ZM567.005 42.5461V59.0097H569.005V42.5461H567.005ZM567.666 58.069L533.906 70.2406L534.584 72.122L568.344 59.9505L567.666 58.069ZM535.245 71.1813V58.3051H533.245V71.1813H535.245ZM534.564 59.2527L556.986 51.6935L556.347 49.7983L533.925 57.3575L534.564 59.2527ZM556.983 49.7975L534.562 42.3023L533.928 44.1991L556.349 51.6943L556.983 49.7975Z" fill="#D7F367"/>
</svg>
