<svg width="20" height="20" viewBox="0 0 20 20" fill="none" xmlns="http://www.w3.org/2000/svg">
<path fill-rule="evenodd" clip-rule="evenodd" d="M8.90489 0H10.0001H11.0954L10.5478 5.00007L10.0001 10.0001L9.45251 5.00007L8.90489 0ZM10.0001 10.0001L12.0258 5.396L14.0517 0.792136L15.0002 1.33976L15.9487 1.88738L12.9743 5.94362L10.0001 10.0001ZM10.0001 10.0001L14.0564 7.02572L18.1129 4.05159L18.6605 5.00007L19.2081 5.94855L14.604 7.97421L10.0001 10.0001ZM10.0001 10.0001L15.0002 9.45251L20 8.90489V10.0001V11.0954L15.0002 10.5478L10.0001 10.0001ZM10.0001 10.0001L14.604 12.0258L19.2081 14.0517L18.6605 15.0002L18.1129 15.9487L14.0564 12.9743L10.0001 10.0001ZM10.0001 10.0001L12.0258 14.604L14.0517 19.2081L15.0002 18.6605L15.9487 18.1129L12.9743 14.0564L10.0001 10.0001ZM10.0001 10.0001L10.5478 15.0002L11.0954 20H10.0001H8.90489L9.45251 15.0002L10.0001 10.0001ZM10.0001 10.0001L7.97421 14.604L5.94855 19.2081L5.00007 18.6605L4.05159 18.1129L7.02572 14.0564L10.0001 10.0001ZM10.0001 10.0001L5.94362 12.9743L1.88738 15.9487L1.33976 15.0002L0.792136 14.0517L5.396 12.0258L10.0001 10.0001ZM10.0001 10.0001L5.00007 10.5478L0 11.0954V10.0001V8.90489L5.00007 9.45251L10.0001 10.0001ZM10.0001 10.0001L5.396 7.97421L0.792136 5.94855L1.33976 5.00007L1.88738 4.05159L5.94362 7.02572L10.0001 10.0001ZM10.0001 10.0001L7.02572 5.94362L4.05159 1.88738L5.00007 1.33976L5.94855 0.792136L7.97421 5.396L10.0001 10.0001Z" fill="#D7F367"/>
</svg>
