<svg width="19" height="12" viewBox="0 0 19 12" fill="none" xmlns="http://www.w3.org/2000/svg">
<g clip-path="url(#clip0_71_624)">
<path fill-rule="evenodd" clip-rule="evenodd" d="M14.6237 0.593132C14.6023 1.52802 14.7864 2.93332 15.4222 4.11692C15.8516 4.9161 16.492 5.61957 17.4085 6C16.492 6.38042 15.8516 7.08388 15.4222 7.88307C14.7864 9.06667 14.6023 10.472 14.6237 11.4069L15.2236 11.3931C15.2038 10.528 15.378 9.23337 15.9508 8.16701C16.5153 7.1163 17.4548 6.30007 19.0007 6.30007L19.0007 5.70007L19.0007 5.69992C17.4548 5.69992 16.5152 4.88368 15.9508 3.83298C15.378 2.76661 15.2038 1.47195 15.2236 0.606856L14.6237 0.593132Z" fill="white"/>
<path d="M15.4222 4.11692L15.2461 4.21157L15.2461 4.21157L15.4222 4.11692ZM14.6237 0.593132L14.6283 0.393184L14.4283 0.38861L14.4238 0.588557L14.6237 0.593132ZM17.4085 6L17.4851 6.18472L17.9302 6L17.4851 5.81528L17.4085 6ZM15.4222 7.88307L15.5984 7.97771L15.5984 7.97771L15.4222 7.88307ZM14.6237 11.4069L14.4238 11.4114L14.4283 11.6114L14.6283 11.6068L14.6237 11.4069ZM15.2236 11.3931L15.2281 11.5931L15.4281 11.5885L15.4235 11.3886L15.2236 11.3931ZM15.9508 8.16701L15.7746 8.07236L15.7746 8.07236L15.9508 8.16701ZM19.0007 6.30007L19.0007 6.50007L19.2007 6.50007L19.2007 6.30007L19.0007 6.30007ZM19.0007 5.70007L19.2007 5.70007L19.2006 5.69669L19.0007 5.70007ZM19.0007 5.69992L19.2006 5.69655L19.1973 5.49992L19.0007 5.49992L19.0007 5.69992ZM15.9508 3.83298L16.127 3.73833L15.9508 3.83298ZM15.2236 0.606856L15.4235 0.611431L15.4281 0.411484L15.2281 0.406909L15.2236 0.606856ZM15.5984 4.02227C14.9836 2.87775 14.8028 1.50933 14.8237 0.597707L14.4238 0.588557C14.4018 1.5467 14.5892 2.98888 15.2461 4.21157L15.5984 4.02227ZM17.4851 5.81528C16.6215 5.45682 16.0119 4.79198 15.5984 4.02227L15.2461 4.21157C15.6912 5.04023 16.3624 5.78233 17.3318 6.18472L17.4851 5.81528ZM17.3318 5.81528C16.3624 6.21766 15.6912 6.95975 15.2461 7.78842L15.5984 7.97771C16.0119 7.20801 16.6215 6.54318 17.4851 6.18472L17.3318 5.81528ZM15.2461 7.78842C14.5892 9.01111 14.4018 10.4533 14.4238 11.4114L14.8237 11.4023C14.8028 10.4907 14.9836 9.12224 15.5984 7.97771L15.2461 7.78842ZM14.6283 11.6068L15.2281 11.5931L15.219 11.1932L14.6191 11.2069L14.6283 11.6068ZM15.4235 11.3886C15.4042 10.5467 15.5751 9.28895 16.127 8.26166L15.7746 8.07236C15.1808 9.1778 15.0033 10.5093 15.0236 11.3977L15.4235 11.3886ZM16.127 8.26166C16.6647 7.26064 17.5442 6.50007 19.0007 6.50007L19.0007 6.10007C17.3654 6.10007 16.3658 6.97197 15.7746 8.07236L16.127 8.26166ZM19.2007 6.30007L19.2007 5.70007L18.8007 5.70007L18.8007 6.30007L19.2007 6.30007ZM18.8007 5.7033L18.8007 5.70344L19.2006 5.69669L19.2006 5.69655L18.8007 5.7033ZM15.7746 3.92763C16.3658 5.02802 17.3654 5.89992 19.0007 5.89992L19.0007 5.49992C17.5442 5.49992 16.6647 4.73935 16.127 3.73833L15.7746 3.92763ZM15.0236 0.602282C15.0033 1.49065 15.1808 2.82219 15.7746 3.92763L16.127 3.73833C15.5751 2.71104 15.4042 1.45325 15.4235 0.611431L15.0236 0.602282ZM14.6191 0.79308L15.219 0.806804L15.2281 0.406909L14.6283 0.393184L14.6191 0.79308Z" fill="white"/>
<path d="M19 5.99988L-5 6.00004" stroke="white"/>
</g>
<defs>
<clipPath id="clip0_71_624">
<rect width="19" height="12" fill="white" transform="translate(19 12) rotate(-180)"/>
</clipPath>
</defs>
</svg>
