<svg width="12" height="12" viewBox="0 0 12 12" fill="none" xmlns="http://www.w3.org/2000/svg">
<g clip-path="url(#clip0_71_610)">
<path fill-rule="evenodd" clip-rule="evenodd" d="M7.62371 0.59314C7.60232 1.52802 7.78641 2.93332 8.42225 4.11693C8.85157 4.91611 9.49197 5.61958 10.4085 6C9.49197 6.38042 8.85157 7.08389 8.42225 7.88307C7.78641 9.06668 7.60232 10.472 7.62371 11.4069L8.22355 11.3931C8.20376 10.528 8.37795 9.23338 8.95081 8.16702C9.51525 7.11631 10.4548 6.30007 12.0007 6.30007L12.0007 5.70007L12.0007 5.69993C10.4548 5.69993 9.51525 4.88369 8.95081 3.83299C8.37795 2.76662 8.20376 1.47196 8.22355 0.606864L7.62371 0.59314Z" fill="white"/>
<path d="M8.42225 4.11693L8.24606 4.21158L8.24606 4.21158L8.42225 4.11693ZM7.62371 0.59314L7.62828 0.393192L7.42833 0.388617L7.42376 0.588565L7.62371 0.59314ZM10.4085 6L10.4851 6.18472L10.9302 6L10.4851 5.81528L10.4085 6ZM8.42225 7.88307L8.59843 7.97772L8.59843 7.97772L8.42225 7.88307ZM7.62371 11.4069L7.42376 11.4114L7.42833 11.6114L7.62828 11.6068L7.62371 11.4069ZM8.22355 11.3931L8.22812 11.5931L8.42807 11.5885L8.4235 11.3886L8.22355 11.3931ZM8.95081 8.16702L9.12699 8.26167L8.95081 8.16702ZM12.0007 6.30007L12.0007 6.50007L12.2007 6.50007L12.2007 6.30007L12.0007 6.30007ZM12.0007 5.70007L12.2007 5.70007L12.2006 5.6967L12.0007 5.70007ZM12.0007 5.69993L12.2006 5.69655L12.1973 5.49993L12.0007 5.49993L12.0007 5.69993ZM8.95081 3.83299L8.77462 3.92763L8.77462 3.92763L8.95081 3.83299ZM8.22355 0.606864L8.4235 0.611439L8.42807 0.411491L8.22812 0.406916L8.22355 0.606864ZM8.59843 4.02228C7.98359 2.87776 7.8028 1.50934 7.82365 0.597714L7.42376 0.588565C7.40184 1.54671 7.58922 2.98889 8.24606 4.21158L8.59843 4.02228ZM10.4851 5.81528C9.62155 5.45682 9.01192 4.79198 8.59843 4.02228L8.24606 4.21158C8.69122 5.04024 9.36239 5.78234 10.3318 6.18472L10.4851 5.81528ZM10.3318 5.81528C9.36239 6.21767 8.69122 6.95976 8.24606 7.78843L8.59843 7.97772C9.01192 7.20802 9.62155 6.54318 10.4851 6.18472L10.3318 5.81528ZM8.24606 7.78843C7.58923 9.01112 7.40184 10.4533 7.42376 11.4114L7.82365 11.4023C7.8028 10.4907 7.98359 9.12224 8.59843 7.97772L8.24606 7.78843ZM7.62828 11.6068L8.22812 11.5931L8.21898 11.1932L7.61913 11.2069L7.62828 11.6068ZM8.4235 11.3886C8.40424 10.5467 8.57513 9.28895 9.12699 8.26167L8.77462 8.07237C8.18077 9.17781 8.00328 10.5094 8.0236 11.3977L8.4235 11.3886ZM9.12699 8.26167C9.66475 7.26065 10.5442 6.50007 12.0007 6.50007L12.0007 6.10007C10.3654 6.10007 9.36576 6.97198 8.77462 8.07237L9.12699 8.26167ZM12.2007 6.30007L12.2007 5.70007L11.8007 5.70007L11.8007 6.30007L12.2007 6.30007ZM11.8007 5.70331L11.8007 5.70345L12.2006 5.6967L12.2006 5.69655L11.8007 5.70331ZM8.77462 3.92763C9.36575 5.02802 10.3654 5.89993 12.0007 5.89993L12.0007 5.49993C10.5442 5.49993 9.66475 4.73936 9.12699 3.73834L8.77462 3.92763ZM8.0236 0.602289C8.00328 1.49065 8.18077 2.82219 8.77462 3.92763L9.12699 3.73834C8.57513 2.71105 8.40424 1.45326 8.4235 0.611439L8.0236 0.602289ZM7.61913 0.793087L8.21898 0.806812L8.22812 0.406916L7.62828 0.393192L7.61913 0.793087Z" fill="white"/>
<path d="M12 5.99988L0.00261229 5.97346" stroke="white"/>
</g>
<defs>
<clipPath id="clip0_71_610">
<rect width="12" height="12" fill="white" transform="translate(12 12) rotate(-180)"/>
</clipPath>
</defs>
</svg>
