<svg width="17" height="13" viewBox="0 0 17 13" fill="none" xmlns="http://www.w3.org/2000/svg">
<path fill-rule="evenodd" clip-rule="evenodd" d="M12.4185 4.52379C11.7827 3.34018 11.5986 1.93488 11.62 1L12.2199 1.01372C12.2001 1.87882 12.3743 3.17348 12.9471 4.23985C13.5075 5.28294 14.4375 6.09495 15.9635 6.10666L15.997 6.10674L15.997 6.70674H15.997V6.70693C14.4511 6.70693 13.5116 7.52317 12.9471 8.57388C12.3743 9.64024 12.2001 10.9349 12.2199 11.8L11.62 11.8137C11.5986 10.8788 11.7827 9.47354 12.4186 8.28993C12.7535 7.66634 13.2171 7.10103 13.84 6.70199L0.99707 6.6737L0.99707 6.0737L13.8248 6.10195C13.2095 5.70348 12.7508 5.1423 12.4185 4.52379Z" fill="#4B4B4B"/>
<path d="M11.62 1L11.6269 0.700078L11.327 0.693216L11.3201 0.993138L11.62 1ZM12.4185 4.52379L12.6828 4.38182L12.6828 4.38182L12.4185 4.52379ZM12.2199 1.01372L12.5198 1.02059L12.5266 0.720665L12.2267 0.713803L12.2199 1.01372ZM12.9471 4.23985L12.6828 4.38182L12.6828 4.38182L12.9471 4.23985ZM15.9635 6.10666L15.9612 6.40666L15.9628 6.40666L15.9635 6.10666ZM15.997 6.10674L16.297 6.10674L16.297 5.8074L15.9977 5.80674L15.997 6.10674ZM15.997 6.70674V7.00674H16.297L16.297 6.70674L15.997 6.70674ZM15.997 6.70674V6.40674H15.697V6.70674H15.997ZM15.997 6.70693L15.997 7.00693L16.297 7.00693V6.70693H15.997ZM12.9471 8.57388L13.2114 8.71585L13.2114 8.71585L12.9471 8.57388ZM12.2199 11.8L12.2267 12.0999L12.5266 12.0931L12.5198 11.7931L12.2199 11.8ZM11.62 11.8137L11.3201 11.8206L11.327 12.1205L11.6269 12.1136L11.62 11.8137ZM12.4186 8.28993L12.1543 8.14796L12.1543 8.14796L12.4186 8.28993ZM13.84 6.70199L14.0018 6.9546L14.8609 6.40424L13.8406 6.40199L13.84 6.70199ZM0.99707 6.6737L0.69707 6.6737L0.69707 6.97304L0.99641 6.9737L0.99707 6.6737ZM0.99707 6.0737L0.997731 5.77371L0.69707 5.77304L0.69707 6.0737L0.99707 6.0737ZM13.8248 6.10195L13.8241 6.40195L14.8433 6.4042L13.9879 5.85015L13.8248 6.10195ZM11.3201 0.993138C11.2979 1.96291 11.4869 3.42353 12.1543 4.66576L12.6828 4.38182C12.0785 3.25684 11.8993 1.90686 11.9199 1.00686L11.3201 0.993138ZM12.2267 0.713803L11.6269 0.700078L11.6131 1.29992L12.213 1.31365L12.2267 0.713803ZM13.2114 4.09787C12.67 3.09012 12.5008 1.85077 12.5198 1.02059L11.9199 1.00686C11.8993 1.90686 12.0785 3.25684 12.6828 4.38182L13.2114 4.09787ZM15.9658 5.80667C14.5732 5.79599 13.7322 5.06732 13.2114 4.09787L12.6828 4.38182C13.2827 5.49856 14.3018 6.39392 15.9612 6.40666L15.9658 5.80667ZM15.9628 6.40666L15.9964 6.40674L15.9977 5.80674L15.9641 5.80666L15.9628 6.40666ZM15.697 6.10674L15.697 6.70674L16.297 6.70674L16.297 6.10674L15.697 6.10674ZM15.997 6.40674H15.997V7.00674H15.997V6.40674ZM16.297 6.70693V6.70674H15.697V6.70693H16.297ZM13.2114 8.71585C13.7358 7.73967 14.5852 7.00693 15.997 7.00693L15.997 6.40693C14.317 6.40693 13.2873 7.30667 12.6828 8.43191L13.2114 8.71585ZM12.5198 11.7931C12.5008 10.963 12.67 9.7236 13.2114 8.71585L12.6828 8.43191C12.0785 9.55688 11.8993 10.9069 11.9199 11.8069L12.5198 11.7931ZM11.6269 12.1136L12.2267 12.0999L12.213 11.5001L11.6131 11.5138L11.6269 12.1136ZM12.1543 8.14796C11.4869 9.3902 11.2979 10.8508 11.3201 11.8206L11.9199 11.8069C11.8993 10.9069 12.0785 9.55688 12.6828 8.43191L12.1543 8.14796ZM13.6781 6.44938C13.003 6.88187 12.5077 7.4901 12.1543 8.14796L12.6828 8.43191C12.9994 7.84259 13.4311 7.32019 14.0018 6.9546L13.6781 6.44938ZM13.8406 6.40199L0.997731 6.37371L0.99641 6.9737L13.8393 7.00199L13.8406 6.40199ZM1.29707 6.6737L1.29707 6.0737L0.69707 6.0737L0.69707 6.6737L1.29707 6.6737ZM0.99641 6.3737L13.8241 6.40195L13.8254 5.80196L0.997731 5.77371L0.99641 6.3737ZM12.1543 4.66576C12.5048 5.31827 12.9949 5.92194 13.6617 6.35376L13.9879 5.85015C13.4241 5.48503 12.9968 4.96633 12.6828 4.38182L12.1543 4.66576Z" fill="#4B4B4B"/>
</svg>
