<svg width="11" height="12" viewBox="0 0 11 12" fill="none" xmlns="http://www.w3.org/2000/svg">
<path fill-rule="evenodd" clip-rule="evenodd" d="M4.89769 0.5H5.50008L6.10246 0.5L5.80127 3.25004L5.50008 6.00008L5.19888 3.25004L4.89769 0.5ZM5.50008 6.00008L6.61419 3.4678L7.72845 0.935675L8.25011 1.23687L8.77178 1.53806L7.13585 3.76899L5.50008 6.00008ZM5.50008 6.00008L7.73101 4.36415L9.96209 2.72837L10.2633 3.25004L10.5645 3.7717L8.0322 4.88581L5.50008 6.00008ZM5.50008 6.00008L8.25011 5.69888L11 5.39769V6.00008V6.60246L8.25011 6.30127L5.50008 6.00008ZM5.50008 6.00008L8.0322 7.11419L10.5645 8.22845L10.2633 8.75011L9.96209 9.27178L7.73101 7.63585L5.50008 6.00008ZM5.50008 6.00008L6.61419 8.5322L7.72845 11.0645L8.25011 10.7633L8.77178 10.4621L7.13585 8.23101L5.50008 6.00008ZM5.50008 6.00008L5.80127 8.75011L6.10246 11.5H5.50008H4.89769L5.19888 8.75011L5.50008 6.00008ZM5.50008 6.00008L4.38581 8.5322L3.2717 11.0645L2.75004 10.7633L2.22837 10.4621L3.86415 8.23101L5.50008 6.00008ZM5.50008 6.00008L3.26899 7.63585L1.03806 9.27178L0.736867 8.75011L0.435675 8.22845L2.9678 7.11419L5.50008 6.00008ZM5.50008 6.00008L2.75004 6.30127L0 6.60246L0 6.00008L0 5.39769L2.75004 5.69888L5.50008 6.00008ZM5.50008 6.00008L2.9678 4.88581L0.435675 3.7717L0.736867 3.25004L1.03806 2.72837L3.26899 4.36415L5.50008 6.00008ZM5.50008 6.00008L3.86415 3.76899L2.22837 1.53806L2.75004 1.23687L3.2717 0.935675L4.38581 3.4678L5.50008 6.00008Z" fill="white"/>
</svg>
