<svg width="17" height="13" viewBox="0 0 17 13" fill="none" xmlns="http://www.w3.org/2000/svg">
<path fill-rule="evenodd" clip-rule="evenodd" d="M4.57556 8.29017C5.21139 9.47378 5.39548 10.8791 5.37409 11.814L4.77425 11.8002C4.79404 10.9351 4.61985 9.64048 4.047 8.57412C3.48664 7.53102 2.5566 6.71901 1.03065 6.7073L0.997071 6.70723L0.997071 6.10723L0.997145 6.10723L0.997145 6.10703C2.543 6.10703 3.48255 5.29079 4.04699 4.24009C4.61985 3.17372 4.79404 1.87906 4.77425 1.01396L5.37409 1.00024C5.39548 1.93512 5.21139 3.34042 4.57555 4.52403C4.24056 5.14762 3.77705 5.71294 3.15414 6.11198L15.997 6.14026L15.997 6.74026L3.16933 6.71201C3.78459 7.11048 4.24329 7.67166 4.57556 8.29017Z" fill="#4B4B4B"/>
<path d="M5.37409 11.814L5.36723 12.1139L5.66715 12.1207L5.67402 11.8208L5.37409 11.814ZM4.57556 8.29017L4.31128 8.43215L4.31128 8.43215L4.57556 8.29017ZM4.77425 11.8002L4.47433 11.7934L4.46747 12.0933L4.76739 12.1002L4.77425 11.8002ZM4.047 8.57412L4.31128 8.43215L4.31128 8.43215L4.047 8.57412ZM1.03065 6.7073L1.03295 6.4073L1.03131 6.4073L1.03065 6.7073ZM0.997071 6.70723L0.697071 6.70723L0.697071 7.00657L0.99641 7.00722L0.997071 6.70723ZM0.997071 6.10723L0.997071 5.80723L0.697071 5.80723L0.697071 6.10723L0.997071 6.10723ZM0.997145 6.10723L0.997145 6.40723L1.29715 6.40723L1.29715 6.10723L0.997145 6.10723ZM0.997145 6.10703L0.997145 5.80703L0.697145 5.80703L0.697145 6.10703L0.997145 6.10703ZM4.04699 4.24009L3.78271 4.09811L3.78271 4.09811L4.04699 4.24009ZM4.77425 1.01396L4.76739 0.714042L4.46747 0.720904L4.47433 1.02083L4.77425 1.01396ZM5.37409 1.00024L5.67402 0.993379L5.66715 0.693457L5.36723 0.700319L5.37409 1.00024ZM4.57555 4.52403L4.83983 4.666L4.83983 4.666L4.57555 4.52403ZM3.15414 6.11198L2.99231 5.85936L2.13318 6.40973L3.15348 6.41197L3.15414 6.11198ZM15.997 6.14026L16.297 6.14026L16.297 5.84092L15.9977 5.84026L15.997 6.14026ZM15.997 6.74026L15.9964 7.04026L16.297 7.04092L16.297 6.74026L15.997 6.74026ZM3.16933 6.71201L3.16999 6.41201L2.15077 6.40977L3.00625 6.96381L3.16933 6.71201ZM5.67402 11.8208C5.6962 10.8511 5.50717 9.39044 4.83984 8.1482L4.31128 8.43215C4.91562 9.55712 5.09476 10.9071 5.07417 11.8071L5.67402 11.8208ZM4.76739 12.1002L5.36723 12.1139L5.38096 11.514L4.78111 11.5003L4.76739 12.1002ZM3.78272 8.71609C4.32408 9.72384 4.49332 10.9632 4.47433 11.7934L5.07417 11.8071C5.09476 10.9071 4.91562 9.55712 4.31128 8.43215L3.78272 8.71609ZM1.02835 7.00729C2.42087 7.01798 3.26193 7.74664 3.78272 8.71609L4.31128 8.43215C3.71136 7.3154 2.69233 6.42004 1.03295 6.40731L1.02835 7.00729ZM1.03131 6.4073L0.997731 6.40723L0.99641 7.00722L1.02999 7.0073L1.03131 6.4073ZM1.29707 6.70723L1.29707 6.10723L0.697071 6.10723L0.697071 6.70723L1.29707 6.70723ZM0.997071 6.40723L0.997145 6.40723L0.997145 5.80723L0.997071 5.80723L0.997071 6.40723ZM0.697145 6.10703L0.697145 6.10723L1.29715 6.10723L1.29715 6.10703L0.697145 6.10703ZM3.78271 4.09811C3.25831 5.07429 2.40887 5.80703 0.997145 5.80703L0.997145 6.40703C2.67714 6.40703 3.70679 5.50729 4.31127 4.38206L3.78271 4.09811ZM4.47433 1.02083C4.49332 1.85101 4.32408 3.09036 3.78271 4.09811L4.31127 4.38206C4.91562 3.25708 5.09476 1.9071 5.07417 1.0071L4.47433 1.02083ZM5.36723 0.700319L4.76739 0.714042L4.78111 1.31389L5.38096 1.30016L5.36723 0.700319ZM4.83983 4.666C5.50717 3.42377 5.6962 1.96315 5.67402 0.993379L5.07417 1.0071C5.09476 1.9071 4.91562 3.25708 4.31127 4.38206L4.83983 4.666ZM3.31596 6.36459C3.9911 5.93209 4.48643 5.32387 4.83983 4.666L4.31127 4.38206C3.99469 4.97137 3.56301 5.49378 2.99231 5.85936L3.31596 6.36459ZM3.15348 6.41197L15.9964 6.44026L15.9977 5.84026L3.1548 5.81198L3.15348 6.41197ZM15.697 6.14026L15.697 6.74026L16.297 6.74026L16.297 6.14026L15.697 6.14026ZM15.9977 6.44026L3.16999 6.41201L3.16867 7.01201L15.9964 7.04026L15.9977 6.44026ZM4.83984 8.1482C4.48931 7.49569 3.99916 6.89202 3.33241 6.46021L3.00625 6.96381C3.57003 7.32894 3.99727 7.84763 4.31128 8.43215L4.83984 8.1482Z" fill="#4B4B4B"/>
</svg>
