<svg width="14" height="14" viewBox="0 0 14 14" fill="none" xmlns="http://www.w3.org/2000/svg">
<path fill-rule="evenodd" clip-rule="evenodd" d="M7.0001 0H7.76677L7.38343 3.50005L7.0001 7.0001L6.61676 3.50005L6.23342 0H7.0001ZM7.0001 7.0001L8.41806 3.7772L9.83621 0.554495L10.5001 0.937831L11.1641 1.32117L9.08199 4.16054L7.0001 7.0001ZM7.0001 7.0001L9.83946 4.91801L12.679 2.83611L13.0624 3.50005L13.4457 4.16399L10.2228 5.58194L7.0001 7.0001ZM7.0001 7.0001L10.5001 6.61676L14 6.23342V7.0001V7.76677L10.5001 7.38343L7.0001 7.0001ZM7.0001 7.0001L10.2228 8.41806L13.4457 9.83621L13.0624 10.5001L12.679 11.1641L9.83946 9.08199L7.0001 7.0001ZM7.0001 7.0001L8.41806 10.2228L9.83621 13.4457L10.5001 13.0624L11.1641 12.679L9.08199 9.83946L7.0001 7.0001ZM7.0001 7.0001L7.38343 10.5001L7.76677 14H7.0001H6.23342L6.61676 10.5001L7.0001 7.0001ZM7.0001 7.0001L5.58194 10.2228L4.16399 13.4457L3.50005 13.0624L2.83611 12.679L4.91801 9.83946L7.0001 7.0001ZM7.0001 7.0001L4.16054 9.08199L1.32117 11.1641L0.937831 10.5001L0.554495 9.83621L3.7772 8.41806L7.0001 7.0001ZM7.0001 7.0001L3.50005 7.38343L0 7.76677V7.0001V6.23342L3.50005 6.61676L7.0001 7.0001ZM7.0001 7.0001L3.7772 5.58194L0.554495 4.16399L0.937831 3.50005L1.32117 2.83611L4.16054 4.91801L7.0001 7.0001ZM7.0001 7.0001L4.91801 4.16054L2.83611 1.32117L3.50005 0.937831L4.16399 0.554495L5.58194 3.7772L7.0001 7.0001Z" fill="#D7F367"/>
</svg>
